<svg width="719" height="818" viewBox="0 0 719 818" fill="none" xmlns="http://www.w3.org/2000/svg">
<g clip-path="url(#clip0_254_34193)">
<path d="M351.438 542.247V-32.25" stroke="#08209F" stroke-linecap="round" stroke-linejoin="round"/>
<path d="M-22.0078 547.941H340.379L890.945 725.649" stroke="#08209F" stroke-linecap="round" stroke-linejoin="round"/>
<path d="M143.006 534.458H117.977V120.557H169.644L147.348 40.0801H80.4331L58.1367 120.557H109.804V534.458H84.6983C78.2789 534.463 72.1178 536.986 67.5381 541.485C62.9585 545.983 60.3258 552.098 60.2055 558.517C60.2055 558.517 60.2055 558.644 60.2055 558.695C60.2055 558.695 60.2055 558.849 60.2055 558.9C60.9461 564.672 84.6473 569.32 113.839 569.32C143.032 569.32 166.733 564.672 167.473 558.9C167.453 552.419 164.868 546.21 160.283 541.63C155.698 537.05 149.487 534.471 143.006 534.458Z" fill="#08209F"/>
<path d="M325.184 290.14C325.184 290.14 258.652 282.248 214.876 316.395C171.101 350.542 133.455 493.234 134.323 561.579C135.192 629.924 160.604 664.02 224.505 692.012C288.406 720.004 407.448 709.533 473.98 688.513C540.511 667.494 562.399 594.015 561.531 554.581C560.663 515.148 516.887 469.661 501.997 460.083C487.107 450.506 445.094 430.329 424.1 398.787C403.106 367.245 372.433 298.9 325.184 290.14Z" fill="#CCDFFB"/>
<path opacity="0.13" d="M486.188 683.789C461.031 680.392 431.2 673.573 408.623 659.858C360.94 630.921 349.038 576.419 332.003 555.987C314.968 535.555 284.32 537.266 270.707 515.123C257.094 492.979 279.212 329.549 240.059 319.333C232.113 317.038 223.887 315.86 215.617 315.834C215.387 316.038 215.106 316.192 214.876 316.396C171.101 350.543 133.455 493.235 134.323 561.58C135.192 629.925 160.604 664.021 224.505 692.013C288.406 720.004 407.448 709.533 473.98 688.514C478.143 687.194 482.221 685.616 486.188 683.789Z" fill="#08209F"/>
<path d="M325.184 290.14C325.184 290.14 258.652 282.248 214.876 316.395C171.101 350.542 133.455 493.234 134.323 561.579C135.192 629.924 160.604 664.02 224.505 692.012C288.406 720.004 407.448 709.532 473.98 688.513C540.511 667.494 562.399 594.015 561.531 554.581C560.663 515.148 516.887 469.661 501.997 460.083C487.107 450.506 445.094 430.329 424.1 398.787C403.106 367.245 372.433 298.9 325.184 290.14Z" stroke="#08209F" stroke-linecap="round" stroke-linejoin="round"/>
<path d="M298.98 320.993C298.98 320.993 255.562 329.293 247.9 336.955C240.238 344.617 208.312 464.655 208.312 464.655C217.188 462.494 226.499 462.937 235.13 465.932C247.9 471.04 249.177 484.449 250.454 490.834C251.479 498.459 252.118 506.13 252.369 513.82C252.369 513.82 381.423 502.301 408.878 495.942C436.334 489.582 478.117 486.62 478.117 486.62C478.117 486.62 407.525 327.403 396.67 321.657C385.816 315.91 340.482 315.272 334.097 316.549C327.712 317.826 298.98 320.993 298.98 320.993Z" fill="#08209F" stroke="#08209F" stroke-linecap="round" stroke-linejoin="round"/>
<path d="M256.199 468.486L267.054 379.734" stroke="white" stroke-linecap="round" stroke-linejoin="round"/>
<path d="M264.5 403.36L279.186 384.205" stroke="white" stroke-linecap="round" stroke-linejoin="round"/>
<path d="M308.557 414.852C308.557 414.852 350.059 401.443 377.515 401.443" stroke="white" stroke-linecap="round" stroke-linejoin="round"/>
<path d="M347.735 378.254L344.951 399.529C344.951 399.529 351.975 399.529 352.613 402.721C352.657 403.905 352.452 405.085 352.013 406.184C351.573 407.284 350.907 408.279 350.059 409.106C350.059 409.106 369.853 419.961 372.407 432.731" stroke="white" stroke-linecap="round" stroke-linejoin="round"/>
<path d="M322.808 297.19C322.808 297.19 298.979 304.852 295.556 310.803C292.134 316.754 294.714 358.486 294.714 363.594C294.714 368.702 297.702 360.606 300.256 354.655C302.81 348.704 311.749 339.74 314.711 340.608C317.674 341.477 319.411 344.848 319.411 350.39C319.411 355.932 326.204 363.594 332.181 367.834C338.157 372.073 343.674 376.364 343.674 376.364C343.674 376.364 356.01 358.486 358.998 353.787C361.986 349.087 361.552 339.331 361.96 335.909C362.369 332.486 370.057 345.282 371.768 341.885C373.479 338.488 367.937 335.5 361.96 326.127C355.984 316.754 357.721 306.972 348.782 300.153C339.843 293.334 329.627 295.453 322.808 297.19Z" fill="white"/>
<path d="M295.557 310.777C293.309 314.761 293.667 334.631 294.177 349.087C299.617 342.089 310.83 328.859 317.317 331.362C325.592 334.554 328.759 358.077 328.759 358.077L323.165 297.189H322.808C322.808 297.189 298.979 304.851 295.557 310.777Z" fill="#CCDFFB"/>
<path opacity="0.5" d="M295.557 310.777C293.309 314.761 293.667 334.631 294.177 349.087C299.617 342.089 310.83 328.859 317.317 331.362C325.592 334.554 328.759 358.077 328.759 358.077L323.165 297.189H322.808C322.808 297.189 298.979 304.851 295.557 310.777Z" fill="white"/>
<path d="M322.808 297.19C322.808 297.19 298.979 304.852 295.556 310.803C292.134 316.754 294.714 358.486 294.714 363.594C294.714 368.702 297.702 360.606 300.256 354.655C302.81 348.704 311.749 339.74 314.711 340.608C317.674 341.477 319.411 344.848 319.411 350.39C319.411 355.932 326.204 363.594 332.181 367.834C338.157 372.073 343.674 376.364 343.674 376.364C343.674 376.364 356.01 358.486 358.998 353.787C361.986 349.087 361.552 339.331 361.96 335.909C362.369 332.486 370.057 345.282 371.768 341.885C373.479 338.488 367.937 335.5 361.96 326.127C355.984 316.754 357.721 306.972 348.782 300.153C339.843 293.334 329.627 295.453 322.808 297.19Z" stroke="#08209F" stroke-linecap="round" stroke-linejoin="round"/>
<path d="M266.417 469.765C266.417 469.765 251.732 448.694 233.854 446.779C215.976 444.863 194.267 459.549 193.628 464.657C192.99 469.765 188.52 497.22 191.713 501.051C194.905 504.882 207.037 508.075 230.661 500.413C254.286 492.751 263.863 483.173 266.417 469.765Z" fill="white"/>
<path d="M206.679 500.387C206.679 500.387 201.571 485.778 204.125 480.696C206.679 475.613 216.895 467.926 223.203 460.264C229.512 452.602 208.314 464.58 207.292 460.264C206.5 456.79 218.504 449.843 223.229 447.264C208.365 450.124 194.139 460.468 193.628 464.58C192.99 469.688 188.52 497.143 191.713 500.974C193.347 502.941 197.408 504.754 204.176 504.984C205.708 502.353 206.679 500.387 206.679 500.387Z" fill="#CCDFFB"/>
<path opacity="0.5" d="M206.679 500.387C206.679 500.387 201.571 485.778 204.125 480.696C206.679 475.613 216.895 467.926 223.203 460.264C229.512 452.602 208.314 464.58 207.292 460.264C206.5 456.79 218.504 449.843 223.229 447.264C208.365 450.124 194.139 460.468 193.628 464.58C192.99 469.688 188.52 497.143 191.713 500.974C193.347 502.941 197.408 504.754 204.176 504.984C205.708 502.353 206.679 500.387 206.679 500.387Z" fill="white"/>
<path d="M266.417 469.765C266.417 469.765 251.732 448.694 233.854 446.779C215.976 444.863 194.267 459.549 193.628 464.657C192.99 469.765 188.52 497.22 191.713 501.051C194.905 504.882 207.037 508.075 230.661 500.413C254.286 492.751 263.863 483.173 266.417 469.765Z" stroke="#08209F" stroke-linecap="round" stroke-linejoin="round"/>
<path d="M216.613 475.51C216.613 475.51 192.656 485.011 191.711 503.604C191.175 513.82 208.312 518.29 226.19 518.29C244.068 518.29 269.608 495.942 286.209 486.365C302.81 476.787 341.12 454.44 345.59 452.524C350.059 450.609 365.383 455.717 371.768 457.632C377.854 458.936 384.062 459.578 390.285 459.548C390.285 459.548 399.224 473.595 403.693 473.595C408.163 473.595 394.116 452.524 392.2 448.055C390.285 443.585 358.998 433.369 355.167 433.369C351.336 433.369 261.946 455.717 248.538 460.825C235.129 465.933 216.613 475.51 216.613 475.51Z" fill="white"/>
<path d="M266.697 472.854C303.194 454.593 355.167 433.369 355.167 433.369C351.336 433.369 261.946 455.717 248.538 460.825C235.129 465.933 216.613 475.51 216.613 475.51C216.613 475.51 192.656 485.011 191.711 503.604C191.175 513.82 208.312 518.29 226.19 518.29C244.068 518.29 269.608 495.942 286.209 486.365L296.272 480.542C271.882 483.632 239.267 486.543 266.697 472.854Z" fill="#CCDFFB"/>
<path opacity="0.5" d="M266.697 472.854C303.194 454.593 355.167 433.369 355.167 433.369C351.336 433.369 261.946 455.717 248.538 460.825C235.129 465.933 216.613 475.51 216.613 475.51C216.613 475.51 192.656 485.011 191.711 503.604C191.175 513.82 208.312 518.29 226.19 518.29C244.068 518.29 269.608 495.942 286.209 486.365L296.272 480.542C271.882 483.632 239.267 486.543 266.697 472.854Z" fill="white"/>
<path d="M216.613 475.51C216.613 475.51 192.656 485.011 191.711 503.604C191.175 513.82 208.312 518.29 226.19 518.29C244.068 518.29 269.608 495.942 286.209 486.365C302.81 476.787 341.12 454.44 345.59 452.524C350.059 450.609 365.383 455.717 371.768 457.632C377.854 458.936 384.062 459.578 390.285 459.548C390.285 459.548 399.224 473.595 403.693 473.595C408.163 473.595 394.116 452.524 392.2 448.055C390.285 443.585 358.998 433.369 355.167 433.369C351.336 433.369 261.946 455.717 248.538 460.825C235.129 465.933 216.613 475.51 216.613 475.51Z" stroke="#08209F" stroke-linecap="round" stroke-linejoin="round"/>
<path d="M403.362 333.509L383.9 442.948L524.37 443.586L545.262 339.792C545.436 338.876 545.409 337.933 545.184 337.029C544.96 336.124 544.542 335.279 543.959 334.551C543.377 333.823 542.644 333.23 541.811 332.812C540.978 332.394 540.064 332.161 539.133 332.13L409.9 328.248C408.361 328.197 406.855 328.701 405.656 329.666C404.456 330.631 403.642 331.995 403.362 333.509Z" fill="white" stroke="#08209F" stroke-linecap="round" stroke-linejoin="round"/>
<path d="M383.9 442.947L315.504 491.32L471.936 486.851L524.37 443.586L383.9 442.947Z" fill="white"/>
<path d="M383.9 442.947L315.504 491.32L471.936 486.851L524.37 443.586L383.9 442.947Z" fill="#CCDFFB"/>
<path opacity="0.5" d="M383.9 442.947L315.504 491.32L471.936 486.851L524.37 443.586L383.9 442.947Z" fill="white"/>
<path d="M383.9 442.947L315.504 491.32L471.936 486.851L524.37 443.586L383.9 442.947Z" stroke="#08209F" stroke-linecap="round" stroke-linejoin="round"/>
<path d="M435.619 490.835C435.619 490.835 491.807 441.67 547.357 425.069C602.906 408.468 614.399 411.022 613.122 435.924C611.845 460.825 585.028 591.079 567.15 624.281C549.272 657.483 526.925 718.141 527.563 729.634C528.202 741.127 549.911 774.967 569.066 787.099C588.221 799.23 586.305 813.916 574.174 816.47C562.042 819.024 547.995 823.493 506.493 796.676C464.99 769.859 447.751 731.549 450.305 721.972C452.859 712.394 479.676 699.624 490.53 680.469C501.385 661.314 519.263 589.802 520.54 557.239C521.577 536.681 525.888 516.42 533.31 497.22C533.31 497.22 463.075 509.99 442.643 522.76L435.619 490.835Z" fill="white"/>
<path d="M435.619 490.835C435.619 490.835 491.807 441.67 547.357 425.069C602.906 408.468 614.399 411.022 613.122 435.924C611.845 460.825 585.028 591.079 567.15 624.281C549.272 657.483 526.925 718.141 527.563 729.634C528.202 741.127 549.911 774.967 569.066 787.099C588.221 799.23 586.305 813.916 574.174 816.47C562.042 819.024 547.995 823.493 506.493 796.676C464.99 769.859 447.751 731.549 450.305 721.972C452.859 712.394 479.676 699.624 490.53 680.469C501.385 661.314 519.263 589.802 520.54 557.239C521.577 536.681 525.888 516.42 533.31 497.22C533.31 497.22 463.075 509.99 442.643 522.76L435.619 490.835Z" fill="#CCDFFB"/>
<path opacity="0.5" d="M435.619 490.835C435.619 490.835 491.807 441.67 547.357 425.069C602.906 408.468 614.399 411.022 613.122 435.924C611.845 460.825 585.028 591.079 567.15 624.281C549.272 657.483 526.925 718.141 527.563 729.634C528.202 741.127 549.911 774.967 569.066 787.099C588.221 799.23 586.305 813.916 574.174 816.47C562.042 819.024 547.995 823.493 506.493 796.676C464.99 769.859 447.751 731.549 450.305 721.972C452.859 712.394 479.676 699.624 490.53 680.469C501.385 661.314 519.263 589.802 520.54 557.239C521.577 536.681 525.888 516.42 533.31 497.22C533.31 497.22 463.075 509.99 442.643 522.76L435.619 490.835Z" fill="white"/>
<path d="M435.619 490.835C435.619 490.835 491.807 441.67 547.357 425.069C602.906 408.468 614.399 411.022 613.122 435.924C611.845 460.825 585.028 591.079 567.15 624.281C549.272 657.483 526.925 718.141 527.563 729.634C528.202 741.127 549.911 774.967 569.066 787.099C588.221 799.23 586.305 813.916 574.174 816.47C562.042 819.024 547.995 823.493 506.493 796.676C464.99 769.859 447.751 731.549 450.305 721.972C452.859 712.394 479.676 699.624 490.53 680.469C501.385 661.314 519.263 589.802 520.54 557.239C521.577 536.681 525.888 516.42 533.31 497.22C533.31 497.22 463.075 509.99 442.643 522.76L435.619 490.835Z" stroke="#08209F" stroke-linecap="round" stroke-linejoin="round"/>
<path d="M490.53 680.469C489.713 681.9 488.793 683.279 487.823 684.658C501.03 685.902 513.551 691.12 523.732 699.624C526.793 702.283 529.709 705.105 532.467 708.078C541.737 679.252 553.336 651.227 567.15 624.281C585.028 591.079 611.845 460.825 613.122 435.924C614.399 411.022 602.906 408.468 547.357 425.069C491.807 441.67 435.619 490.835 435.619 490.835L442.643 522.76C463.075 509.99 533.31 497.22 533.31 497.22C525.888 516.42 521.577 536.681 520.54 557.239C519.263 589.802 501.385 661.314 490.53 680.469Z" fill="white" stroke="#08209F" stroke-linecap="round" stroke-linejoin="round"/>
<path d="M490.53 680.469C489.713 681.9 488.793 683.279 487.823 684.658C501.03 685.902 513.551 691.12 523.732 699.624C526.793 702.283 529.709 705.105 532.467 708.078C544.7 691.63 558.467 639.759 573.995 618.407C614.118 563.266 611.845 460.825 613.122 435.924C614.399 411.022 602.906 408.468 547.357 425.069C491.807 441.67 435.619 490.835 435.619 490.835L442.643 522.76C463.075 509.99 533.31 497.22 533.31 497.22C525.888 516.42 521.577 536.681 520.54 557.239C519.263 589.802 501.385 661.314 490.53 680.469Z" fill="#08209F"/>
<path opacity="0.53" d="M490.53 680.469C489.713 681.9 488.793 683.279 487.823 684.658C501.03 685.902 513.551 691.12 523.732 699.624C526.793 702.283 529.709 705.105 532.467 708.078C544.7 691.63 558.467 639.759 573.995 618.407C614.118 563.266 611.845 460.825 613.122 435.924C614.399 411.022 602.906 408.468 547.357 425.069C491.807 441.67 435.619 490.835 435.619 490.835L442.643 522.76C463.075 509.99 533.31 497.22 533.31 497.22C525.888 516.42 521.577 536.681 520.54 557.239C519.263 589.802 501.385 661.314 490.53 680.469Z" fill="white"/>
<path opacity="0.14" d="M586.126 432.552C585.13 423.485 486.367 465.294 444.711 483.325C438.939 487.923 435.619 490.834 435.619 490.834L442.643 522.759C463.075 509.989 533.31 497.219 533.31 497.219C525.888 516.419 521.577 536.68 520.54 557.238C519.263 589.802 501.385 661.314 490.53 680.469C489.713 681.899 488.793 683.278 487.823 684.657C494.855 685.411 501.739 687.192 508.255 689.944C523.553 657.304 540.027 619.326 547.816 589.623C561.863 535.989 587.403 444.045 586.126 432.552Z" fill="#08209F"/>
<path d="M533.311 497.22C533.311 497.22 552.466 458.271 569.067 442.309" stroke="#08209F" stroke-linecap="round" stroke-linejoin="round"/>
<path d="M490.53 680.469C489.713 681.9 488.793 683.279 487.823 684.658C501.03 685.902 513.551 691.12 523.732 699.624C526.793 702.283 529.709 705.105 532.467 708.078C544.7 691.63 558.467 639.759 573.995 618.407C614.118 563.266 611.845 460.825 613.122 435.924C614.399 411.022 602.906 408.468 547.357 425.069C491.807 441.67 435.619 490.835 435.619 490.835L442.643 522.76C463.075 509.99 533.31 497.22 533.31 497.22C525.888 516.42 521.577 536.681 520.54 557.239C519.263 589.802 501.385 661.314 490.53 680.469Z" stroke="#08209F" stroke-linecap="round" stroke-linejoin="round"/>
<path d="M351.438 542.374C372.006 541.436 392.339 537.61 411.84 531.009C440.726 520.487 388.19 501.229 368.065 511.752C362.441 514.479 357.813 518.899 354.831 524.392C351.849 529.884 350.663 536.173 351.438 542.374Z" fill="#08209F" stroke="#08209F" stroke-linecap="round" stroke-linejoin="round"/>
<path d="M268.331 501.05C268.331 501.05 247.899 512.543 240.875 525.313C233.852 538.083 264.065 559.357 295.99 558.08C327.915 556.803 386.453 522.12 386.453 522.12C386.453 522.12 387.092 578.308 397.946 598.74C408.801 619.172 458.604 668.975 478.397 681.745C498.191 694.515 564.595 742.403 574.811 750.065C585.027 757.727 604.182 771.774 608.651 772.412C613.121 773.051 659.731 716.224 670.586 697.069C681.44 677.914 691.018 637.689 687.187 628.75C683.356 619.811 675.694 627.473 668.032 633.858C660.37 640.243 590.135 686.853 583.75 690.046C580.263 691.836 576.632 693.332 572.895 694.515C572.895 694.515 515.43 639.604 484.782 597.463C454.134 555.322 451.58 501.05 440.087 480.618C428.594 460.186 411.993 451.247 387.092 453.801C362.19 456.355 310.472 469.763 268.331 501.05Z" fill="white"/>
<path d="M538.494 723.708C555.555 735.916 570.394 746.694 574.812 750.014C585.028 757.676 604.183 771.723 608.653 772.362C610.236 772.591 617.132 765.568 625.841 755.582L552.72 708.537L538.494 723.708Z" fill="#CCDFFB"/>
<path opacity="0.5" d="M538.494 723.708C555.555 735.916 570.394 746.694 574.812 750.014C585.028 757.676 604.183 771.723 608.653 772.362C610.236 772.591 617.132 765.568 625.841 755.582L552.72 708.537L538.494 723.708Z" fill="white"/>
<path d="M268.331 501.05C268.331 501.05 247.899 512.543 240.875 525.313C233.852 538.083 264.065 559.357 295.99 558.08C327.915 556.803 386.453 522.12 386.453 522.12C386.453 522.12 387.092 578.308 397.946 598.74C408.801 619.172 458.604 668.975 478.397 681.745C498.191 694.515 564.595 742.403 574.811 750.065C585.027 757.727 604.182 771.774 608.651 772.412C613.121 773.051 659.731 716.224 670.586 697.069C681.44 677.914 691.018 637.689 687.187 628.75C683.356 619.811 675.694 627.473 668.032 633.858C660.37 640.243 590.135 686.853 583.75 690.046C580.263 691.836 576.632 693.332 572.895 694.515C572.895 694.515 515.43 639.604 484.782 597.463C454.134 555.322 451.58 501.05 440.087 480.618C428.594 460.186 411.993 451.247 387.092 453.801C362.19 456.355 310.472 469.763 268.331 501.05Z" stroke="#08209F" stroke-linecap="round" stroke-linejoin="round"/>
<path d="M568.938 690.685C555.427 677.506 504.781 609.544 484.784 570.468C455.489 513.207 452.322 493.695 440.829 473.263C429.336 452.831 411.995 451.247 387.195 453.801C362.396 456.355 317.726 460.978 263.071 491.984C263.071 491.984 240.085 504.447 233.087 517.217C226.089 529.987 251.654 562.142 296.094 558.081C327.917 555.17 386.557 522.121 386.557 522.121C386.557 522.121 387.195 578.309 398.05 598.741C408.904 619.173 458.707 668.976 478.501 681.746C491.041 689.842 522.327 712.062 546.156 729.174C552.03 707.797 562.578 696.099 568.938 690.685Z" fill="#08209F"/>
<path opacity="0.53" d="M568.938 690.685C555.427 677.506 504.781 609.544 484.784 570.468C455.489 513.207 452.322 493.695 440.829 473.263C429.336 452.831 411.995 451.247 387.195 453.801C362.396 456.355 317.726 460.978 263.071 491.984C263.071 491.984 240.085 504.447 233.087 517.217C226.089 529.987 251.654 562.142 296.094 558.081C327.917 555.17 386.557 522.121 386.557 522.121C386.557 522.121 387.195 578.309 398.05 598.741C408.904 619.173 458.707 668.976 478.501 681.746C491.041 689.842 522.327 712.062 546.156 729.174C552.03 707.797 562.578 696.099 568.938 690.685Z" fill="white"/>
<path opacity="0.14" d="M440.549 599.84C421.394 551.314 432.887 454.262 379.253 467.032C340.176 476.328 268.537 509.377 232.551 526.616C236.816 541.276 260.313 561.351 295.992 558.082C327.815 555.17 386.455 522.121 386.455 522.121C386.455 522.121 387.093 578.309 397.948 598.741C408.802 619.173 458.605 668.976 478.399 681.746C490.939 689.843 522.225 712.062 546.054 729.174C548.106 721.699 551.101 714.515 554.968 707.797C507.412 672.629 451.25 626.938 440.549 599.84Z" fill="#08209F"/>
<path d="M386.455 522.12L384.539 488.918" stroke="#08209F" stroke-linecap="round" stroke-linejoin="round"/>
<path d="M568.938 690.685C555.427 677.506 504.781 609.544 484.784 570.468C455.489 513.207 452.322 493.695 440.829 473.263C429.336 452.831 411.995 451.247 387.195 453.801C362.396 456.355 317.726 460.978 263.071 491.984C263.071 491.984 240.085 504.447 233.087 517.217C226.089 529.987 251.654 562.142 296.094 558.081C327.917 555.17 386.557 522.121 386.557 522.121C386.557 522.121 387.195 578.309 398.05 598.741C408.904 619.173 458.707 668.976 478.501 681.746C491.041 689.842 522.327 712.062 546.156 729.174C552.03 707.797 562.578 696.099 568.938 690.685Z" stroke="#08209F" stroke-linecap="round" stroke-linejoin="round"/>
<path d="M574.811 750.066C585.027 757.728 604.182 771.775 608.652 772.413C613.121 773.052 659.732 716.225 670.586 697.07C681.441 677.915 691.018 637.69 687.187 628.751C683.356 619.812 675.694 627.474 668.032 633.859C660.37 640.244 590.135 686.854 583.75 690.047C582.065 690.889 580.532 691.579 579.179 692.166C577.34 695.665 575.092 701.08 576.625 704.732C579.179 710.479 590.033 718.141 590.033 718.141L570.699 747.103L574.811 750.066Z" fill="#08209F" stroke="#08209F" stroke-linecap="round" stroke-linejoin="round"/>
<path d="M670.586 697.07C681.44 677.915 691.018 637.69 687.187 628.751C684.965 623.643 681.466 623.975 677.405 626.478C680.087 638.405 677.405 661.416 664.201 686.216C652.427 708.333 616.058 747.512 597.797 766.462C601.124 768.965 604.797 770.97 608.702 772.413C613.121 773.052 659.731 716.225 670.586 697.07Z" fill="white"/>
<path d="M609.291 772.235L609.853 771.954L610.006 771.826C610.315 771.65 610.605 771.445 610.874 771.213L611.181 770.958L611.921 770.345L612.33 769.962L613.326 769.042L613.939 768.455L614.782 767.638L615.497 766.922L616.212 766.207L618.025 764.292L618.332 763.985L619.456 762.759L619.915 762.274C621.243 760.818 622.674 759.235 624.155 757.549V757.422L625.739 755.634L614.578 748.457C608.244 755.353 602.344 761.585 597.645 766.463L599.356 767.586L599.611 767.74L601.195 768.736L603.749 770.192L604.464 770.6L605.179 770.983L605.996 771.392L606.532 771.647C606.789 771.775 607.053 771.886 607.324 771.979L607.707 772.133C608.002 772.255 608.311 772.341 608.627 772.388C608.786 772.429 608.953 772.429 609.112 772.388L609.291 772.235Z" fill="#CCDFFB"/>
<path opacity="0.5" d="M609.291 772.235L609.853 771.954L610.006 771.826C610.315 771.65 610.605 771.445 610.874 771.213L611.181 770.958L611.921 770.345L612.33 769.962L613.326 769.042L613.939 768.455L614.782 767.638L615.497 766.922L616.212 766.207L618.025 764.292L618.332 763.985L619.456 762.759L619.915 762.274C621.243 760.818 622.674 759.235 624.155 757.549V757.422L625.739 755.634L614.578 748.457C608.244 755.353 602.344 761.585 597.645 766.463L599.356 767.586L599.611 767.74L601.195 768.736L603.749 770.192L604.464 770.6L605.179 770.983L605.996 771.392L606.532 771.647C606.789 771.775 607.053 771.886 607.324 771.979L607.707 772.133C608.002 772.255 608.311 772.341 608.627 772.388C608.786 772.429 608.953 772.429 609.112 772.388L609.291 772.235Z" fill="white"/>
<path d="M670.586 697.07C681.44 677.915 691.018 637.69 687.187 628.751C684.965 623.643 681.466 623.975 677.405 626.478C680.087 638.405 677.405 661.416 664.201 686.216C652.427 708.333 616.058 747.512 597.797 766.462C601.124 768.965 604.797 770.97 608.702 772.413C613.121 773.052 659.731 716.225 670.586 697.07Z" stroke="#08209F" stroke-linecap="round" stroke-linejoin="round"/>
<path d="M569.066 787.098C549.911 774.966 528.202 741.126 527.564 729.633C527.535 728.374 527.638 727.116 527.87 725.878C524.056 726 520.377 727.312 517.348 729.633C509.486 722.5 501.168 715.888 492.446 709.839C485.422 705.794 477.552 703.441 469.46 702.969C460.189 710.631 451.582 716.76 450.228 721.971C447.674 731.548 464.914 769.858 506.416 796.675C547.919 823.492 561.966 819.023 574.097 816.469C586.229 813.915 588.221 799.229 569.066 787.098Z" fill="#08209F" stroke="#08209F" stroke-linecap="round" stroke-linejoin="round"/>
<path d="M569.066 787.098C562.719 782.796 556.995 777.639 552.056 771.774C538.877 766.155 521.28 759.004 505.854 749.401C489.253 739.185 493.084 732.8 483.507 723.223C476.151 715.867 461.695 714.922 455.413 714.871C453.145 716.765 451.388 719.197 450.305 721.946C447.751 731.523 464.99 769.833 506.493 796.65C547.995 823.467 562.042 818.998 574.174 816.444C586.305 813.89 588.221 799.23 569.066 787.098Z" fill="white"/>
<path d="M569.066 787.098C562.719 782.796 556.995 777.639 552.056 771.774C538.877 766.155 521.28 759.004 505.854 749.401C489.253 739.185 493.084 732.8 483.507 723.223C476.151 715.867 461.695 714.922 455.413 714.871C453.145 716.765 451.388 719.197 450.305 721.946C447.751 731.523 464.99 769.833 506.493 796.65C547.995 823.467 562.042 818.998 574.174 816.444C586.305 813.89 588.221 799.23 569.066 787.098Z" fill="#CCDFFB"/>
<path opacity="0.5" d="M569.066 787.098C562.719 782.796 556.995 777.639 552.056 771.774C538.877 766.155 521.28 759.004 505.854 749.401C489.253 739.185 493.084 732.8 483.507 723.223C476.151 715.867 461.695 714.922 455.413 714.871C453.145 716.765 451.388 719.197 450.305 721.946C447.751 731.523 464.99 769.833 506.493 796.65C547.995 823.467 562.042 818.998 574.174 816.444C586.305 813.89 588.221 799.23 569.066 787.098Z" fill="white"/>
<path d="M569.066 787.098C562.719 782.796 556.995 777.64 552.056 771.774C538.877 766.155 521.28 759.004 505.854 749.401C489.253 739.185 493.084 732.8 483.507 723.223C476.151 715.867 461.695 714.922 455.413 714.871C453.145 716.765 451.388 719.197 450.305 721.946C447.751 731.523 464.99 769.833 506.493 796.65C547.995 823.467 562.042 818.998 574.174 816.444C586.305 813.89 588.221 799.23 569.066 787.098Z" stroke="#08209F" stroke-linecap="round" stroke-linejoin="round"/>
<path d="M572.258 791.567C555.657 781.99 521.816 775.605 500.107 760.919C478.398 746.234 484.145 733.464 468.182 723.248C465.632 721.341 462.576 720.228 459.397 720.046C456.218 719.864 453.055 720.623 450.304 722.226C448.082 732.187 465.373 770.063 506.492 796.675C547.612 823.288 562.042 819.023 574.173 816.469C582.244 814.758 585.743 807.709 581.58 799.613C578.975 796.399 575.818 793.674 572.258 791.567Z" fill="#08209F"/>
<path opacity="0.53" d="M572.258 791.567C555.657 781.99 521.816 775.605 500.107 760.919C478.398 746.234 484.145 733.464 468.182 723.248C465.632 721.341 462.576 720.228 459.397 720.046C456.218 719.864 453.055 720.623 450.304 722.226C448.082 732.187 465.373 770.063 506.492 796.675C547.612 823.288 562.042 819.023 574.173 816.469C582.244 814.758 585.743 807.709 581.58 799.613C578.975 796.399 575.818 793.674 572.258 791.567Z" fill="white"/>
<path d="M572.258 791.567C555.657 781.99 521.816 775.605 500.107 760.919C478.398 746.234 484.145 733.464 468.182 723.248C465.632 721.341 462.576 720.228 459.397 720.046C456.218 719.864 453.055 720.623 450.304 722.226C448.082 732.187 465.373 770.063 506.492 796.675C547.612 823.288 562.042 819.023 574.173 816.469C582.244 814.758 585.743 807.709 581.58 799.613C578.975 796.399 575.818 793.674 572.258 791.567V791.567Z" stroke="#08209F" stroke-linecap="round" stroke-linejoin="round"/>
<path d="M254.081 669.435C254.081 669.435 266.34 654.545 268.076 665.936C269.813 677.327 267.208 698.321 258.448 706.187C249.688 714.053 245.32 701.82 245.32 701.82L250.582 694.822C250.582 694.822 254.949 703.582 258.448 689.56C261.947 675.539 251.45 677.301 251.45 677.301L254.081 669.435Z" fill="white" stroke="#08209F" stroke-linecap="round" stroke-linejoin="round"/>
<path d="M244.707 725.47C237.454 730.833 213.804 730.833 206.576 725.47C191.252 714.104 193.806 659.193 193.806 659.193H257.299C257.299 659.193 260.057 714.104 244.707 725.47Z" fill="white" stroke="#08209F" stroke-linecap="round" stroke-linejoin="round"/>
<path d="M200.752 648.416C200.752 641.52 207.162 641.52 207.162 634.599C207.162 627.678 200.752 627.678 200.752 620.782C200.752 613.886 207.162 613.861 207.162 606.939C207.162 600.018 200.752 600.018 200.752 593.097C200.752 586.175 207.162 586.175 207.162 579.254" stroke="#08209F" stroke-linecap="round" stroke-linejoin="round"/>
<path d="M222.691 648.416C222.691 643.308 229.102 643.309 229.102 637.92C229.102 632.531 222.691 632.684 222.691 627.423C222.691 622.161 229.102 622.187 229.102 616.926C229.102 611.664 222.691 611.664 222.691 606.403C222.691 601.142 229.102 601.167 229.102 595.906" stroke="#08209F" stroke-linecap="round" stroke-linejoin="round"/>
<path d="M246.826 648.416C246.826 641.52 253.211 641.52 253.211 634.599C253.211 627.678 246.826 627.678 246.826 620.782C246.826 613.886 253.211 613.861 253.211 606.939C253.211 600.018 246.826 600.018 246.826 593.097C246.826 586.175 253.211 586.175 253.211 579.254" stroke="#08209F" stroke-linecap="round" stroke-linejoin="round"/>
<path d="M257.35 659.195C257.35 660.804 243.15 662.081 225.604 662.081C208.058 662.081 193.857 660.804 193.857 659.195C193.857 657.586 208.058 656.309 225.604 656.309C243.15 656.309 257.35 657.586 257.35 659.195Z" fill="white" stroke="#08209F" stroke-linecap="round" stroke-linejoin="round"/>
<path d="M315.963 263.989C315.963 263.989 318.951 296.246 320.203 306.436C321.454 316.626 324.289 345.895 327.226 355.575C330.163 365.255 346.177 382.085 347.658 378.203C349.139 374.321 357.108 347.99 353.941 332.231C350.774 316.473 349.803 303.014 351.77 299.029C353.737 295.045 360.811 290.576 360.811 290.576C352.571 286.355 344.565 281.691 336.829 276.605C325.54 269.097 317.546 260.592 315.963 263.989Z" fill="white"/>
<path d="M356.956 292.312L354.402 287.357C349.703 284.803 343.165 281.023 336.958 276.86C325.593 269.198 317.599 260.591 316.016 264.09C316.016 264.09 319.004 296.348 320.255 306.538C321.507 316.728 324.342 345.997 327.279 355.677C328.281 358.508 329.664 361.189 331.391 363.645C328.3 344.388 331.646 309.603 331.646 309.603L356.956 292.312Z" fill="#CCDFFB"/>
<path opacity="0.5" d="M356.956 292.312L354.402 287.357C349.703 284.803 343.165 281.023 336.958 276.86C325.593 269.198 317.599 260.591 316.016 264.09C316.016 264.09 319.004 296.348 320.255 306.538C321.507 316.728 324.342 345.997 327.279 355.677C328.281 358.508 329.664 361.189 331.391 363.645C328.3 344.388 331.646 309.603 331.646 309.603L356.956 292.312Z" fill="white"/>
<path d="M315.963 263.989C315.963 263.989 318.951 296.246 320.203 306.436C321.454 316.626 324.289 345.895 327.226 355.575C330.163 365.255 346.177 382.085 347.658 378.203C349.139 374.321 357.108 347.99 353.941 332.231C350.774 316.473 349.803 303.014 351.77 299.029C353.737 295.045 360.811 290.576 360.811 290.576C352.571 286.355 344.565 281.691 336.829 276.605C325.54 269.097 317.546 260.592 315.963 263.989Z" stroke="#08209F" stroke-linecap="round" stroke-linejoin="round"/>
<path d="M314.789 268.662C314.789 268.662 333.178 283.986 347.276 289.605C361.374 295.224 383.032 294.867 386.123 287.537C389.213 280.207 380.759 222.154 373.48 206.881C366.201 191.608 358.437 191.353 345.591 190.178C332.744 189.003 307.051 199.475 302.53 211.887C298.01 224.3 303.169 241.871 306.898 252.291C308.869 258.042 311.519 263.538 314.789 268.662Z" fill="white"/>
<path d="M347.811 267.971C341.298 248.663 339.664 218.27 339.664 210.174C339.664 203.917 355.958 197.047 363.391 194.237C358.512 191.224 352.843 190.841 345.513 190.176C332.743 189.027 306.973 199.473 302.452 211.885C297.932 224.298 303.091 241.869 306.819 252.29C308.791 258.041 311.441 263.536 314.711 268.661C314.711 268.661 333.1 283.985 347.198 289.604C356.969 293.301 367.551 294.315 377.846 292.541C367.758 288.735 352.153 280.869 347.811 267.971Z" fill="#CCDFFB"/>
<path opacity="0.5" d="M347.811 267.971C341.298 248.663 339.664 218.27 339.664 210.174C339.664 203.917 355.958 197.047 363.391 194.237C358.512 191.224 352.843 190.841 345.513 190.176C332.743 189.027 306.973 199.473 302.452 211.885C297.932 224.298 303.091 241.869 306.819 252.29C308.791 258.041 311.441 263.536 314.711 268.661C314.711 268.661 333.1 283.985 347.198 289.604C356.969 293.301 367.551 294.315 377.846 292.541C367.758 288.735 352.153 280.869 347.811 267.971Z" fill="white"/>
<path d="M314.789 268.662C314.789 268.662 333.178 283.986 347.276 289.605C361.374 295.224 383.032 294.867 386.123 287.537C389.213 280.207 380.759 222.154 373.48 206.881C366.201 191.608 358.437 191.353 345.591 190.178C332.744 189.003 307.051 199.475 302.53 211.887C298.01 224.3 303.169 241.871 306.898 252.291C308.869 258.042 311.519 263.538 314.789 268.662V268.662Z" stroke="#08209F" stroke-linecap="round" stroke-linejoin="round"/>
<path d="M374.859 230.786C375.165 238.142 370.543 244.297 364.643 244.527C358.743 244.757 353.584 239.01 353.303 231.757C353.022 224.503 357.619 218.246 363.519 217.991C369.419 217.735 374.578 223.354 374.859 230.786Z" stroke="#08209F" stroke-linecap="round" stroke-linejoin="round"/>
<path d="M389.315 227.926C389.622 235.282 387.247 241.335 384.028 241.463C380.81 241.59 377.95 235.742 377.669 228.386C377.388 221.031 379.763 214.952 382.981 214.824C386.199 214.697 389.034 220.571 389.315 227.926Z" stroke="#08209F" stroke-linecap="round" stroke-linejoin="round"/>
<path d="M375.625 228.078C375.625 228.078 396.721 232.088 394.678 237.17C392.635 242.253 378.383 247.744 378.383 247.744" fill="white"/>
<path d="M375.625 228.078C375.625 228.078 396.721 232.088 394.678 237.17C392.635 242.253 378.383 247.744 378.383 247.744" stroke="#08209F" stroke-linecap="round" stroke-linejoin="round"/>
<path d="M374.322 225.678C374.322 225.678 374.629 223.124 377.872 224.733" stroke="#08209F" stroke-linecap="round" stroke-linejoin="round"/>
<path d="M352.638 232.777L314.277 247.871" stroke="#08209F" stroke-linecap="round" stroke-linejoin="round"/>
<path d="M353.15 220.366C353.958 218.54 355.308 217.007 357.017 215.975C358.725 214.942 360.71 214.46 362.702 214.594" stroke="#08209F" stroke-width="2" stroke-linecap="round" stroke-linejoin="round"/>
<path d="M378.691 214.771L372.791 216.993" stroke="#08209F" stroke-width="2" stroke-linecap="round" stroke-linejoin="round"/>
<path d="M360.455 259.722C360.455 259.722 368.117 261.714 372.459 257.168" stroke="#08209F" stroke-linecap="round" stroke-linejoin="round"/>
<path d="M365.384 232.114C365.741 234.668 365.384 236.864 364.336 236.992C363.289 237.119 362.37 235.153 362.012 232.573C361.655 229.994 362.14 227.848 363.085 227.721C364.03 227.593 365.052 229.56 365.384 232.114Z" fill="#08209F"/>
<path d="M317.854 247.974C317.854 247.974 315.3 253.082 322.502 253.338C329.704 253.593 334.608 250.094 331.109 245.676C327.61 241.257 322.425 237.12 327.763 231.348C333.101 225.576 343.47 220.723 337.647 214.287C331.824 207.851 310.396 213.7 315.759 208.49C321.123 203.279 345.896 197.839 357.032 198.529C368.167 199.219 388.957 190.586 393.529 179.297C398.1 168.009 391.715 147.143 376.749 148.266C361.782 149.39 350.621 162.645 343.981 163.59C337.341 164.535 323.728 157.154 312.311 163.59C300.895 170.026 300.512 188.517 299.541 190.79C298.571 193.063 283.094 196.435 280.361 212.091C279.335 218.403 279.773 224.866 281.642 230.981C283.511 237.097 286.76 242.701 291.139 247.361C297.549 254.334 300.435 256.99 300.435 256.99L317.854 247.974Z" fill="#08209F" stroke="#08209F" stroke-linecap="round" stroke-linejoin="round"/>
<path d="M285.367 219.676C285.233 222.052 285.802 224.414 287.001 226.469" stroke="white" stroke-width="0.75" stroke-linecap="round" stroke-linejoin="round"/>
<path d="M350.468 179.247C350.468 179.247 344.9 167.064 359.1 167.064C373.3 167.064 375.344 184.942 360.633 191.43C345.922 197.917 313.92 199.551 296.655 207.188C293.267 208.514 290.252 210.644 287.869 213.394" stroke="white" stroke-width="0.75" stroke-linecap="round" stroke-linejoin="round"/>
<path d="M324.75 222.512C319.642 224.351 313.028 226.905 306.31 230.02C292.085 236.635 295.124 243.225 295.124 243.225" stroke="white" stroke-width="0.75" stroke-linecap="round" stroke-linejoin="round"/>
<path d="M334.225 219.369C334.225 219.369 332.973 219.727 330.854 220.416" stroke="white" stroke-width="0.75" stroke-linecap="round" stroke-linejoin="round"/>
<path d="M320.28 253.44C320.28 253.44 312.03 241.538 303.347 246.314C294.663 251.09 301.406 268.074 306.641 273.974C311.877 279.874 321.965 268.866 323.012 266.108" fill="white"/>
<path d="M320.28 253.44C320.28 253.44 312.03 241.538 303.347 246.314C294.663 251.09 301.406 268.074 306.641 273.974C311.877 279.874 321.965 268.866 323.012 266.108" fill="#CCDFFB"/>
<path opacity="0.5" d="M320.28 253.44C320.28 253.44 312.03 241.538 303.347 246.314C294.663 251.09 301.406 268.074 306.641 273.974C311.877 279.874 321.965 268.866 323.012 266.108" fill="white"/>
<path d="M320.28 253.44C320.28 253.44 312.03 241.538 303.347 246.314C294.663 251.09 301.406 268.074 306.641 273.974C311.877 279.874 321.965 268.866 323.012 266.108" stroke="#08209F" stroke-linecap="round" stroke-linejoin="round"/>
<path d="M216.102 242.586H33.0316C25.8096 242.586 19.9551 248.441 19.9551 255.662V389.492C19.9551 396.714 25.8096 402.569 33.0316 402.569H216.102C223.324 402.569 229.179 396.714 229.179 389.492V255.662C229.179 248.441 223.324 242.586 216.102 242.586Z" fill="white" stroke="#08209F" stroke-linecap="round" stroke-linejoin="round"/>
<path d="M225.195 357.668L347.787 389.593L225.195 329.574" fill="white"/>
<path d="M225.195 357.668L347.787 389.593L225.195 329.574" stroke="#08209F" stroke-linecap="round" stroke-linejoin="round"/>
<path d="M86.0789 257.961H36.8633V387.193H86.0789V257.961Z" fill="#CCDFFB" stroke="#08209F" stroke-linecap="round" stroke-linejoin="round"/>
<path d="M218.325 257.961H212.17V387.193H218.325V257.961Z" fill="#CCDFFB" stroke="#08209F" stroke-linecap="round" stroke-linejoin="round"/>
<path d="M218.325 317.035H212.17V328.068H218.325V317.035Z" fill="#08209F" stroke="#08209F" stroke-linecap="round" stroke-linejoin="round"/>
<path d="M101.479 261.025H198.403" stroke="#08209F" stroke-linecap="round" stroke-linejoin="round"/>
<path d="M101.479 274.867H198.403" stroke="#08209F" stroke-linecap="round" stroke-linejoin="round"/>
<path d="M101.479 288.736H198.403" stroke="#08209F" stroke-linecap="round" stroke-linejoin="round"/>
<path d="M101.479 302.578H198.403" stroke="#08209F" stroke-linecap="round" stroke-linejoin="round"/>
<path d="M101.479 336.42H198.403" stroke="#08209F" stroke-linecap="round" stroke-linejoin="round"/>
<path d="M101.479 348.73H198.403" stroke="#08209F" stroke-linecap="round" stroke-linejoin="round"/>
<path d="M101.479 361.039H198.403" stroke="#08209F" stroke-linecap="round" stroke-linejoin="round"/>
<path d="M101.479 386.58H198.403" stroke="#08209F" stroke-linecap="round" stroke-linejoin="round"/>
<path d="M36.8633 387.168L86.1044 257.961" stroke="#08209F" stroke-linecap="round" stroke-linejoin="round"/>
<path d="M728.639 442.205C733.21 444.197 744.397 443.941 744.397 443.941C744.397 443.941 741.996 436.611 741.843 436.279C739.289 431.171 731.627 422.667 725.319 423.509C724.282 423.697 723.296 424.097 722.421 424.683C721.546 425.269 720.802 426.029 720.234 426.916C719.666 427.803 719.286 428.797 719.12 429.837C718.953 430.876 719.003 431.939 719.266 432.959C720.211 437.25 724.731 440.494 728.639 442.205Z" fill="#08209F"/>
</g>
<defs>
<clipPath id="clip0_254_34193">
<rect width="719" height="818" fill="white"/>
</clipPath>
</defs>
</svg>
