<svg width="670" height="671" viewBox="0 0 670 671" fill="none" xmlns="http://www.w3.org/2000/svg">
<path d="M306.184 143.14C306.184 143.14 239.652 135.248 195.876 169.395C152.101 203.542 114.455 346.234 115.323 414.579C116.192 482.924 141.604 517.02 205.505 545.012C269.406 573.004 388.448 562.533 454.98 541.513C521.511 520.494 543.399 447.015 542.531 407.581C541.663 368.148 497.887 322.661 482.997 313.083C468.107 303.506 426.094 283.329 405.1 251.787C384.106 220.245 353.433 151.9 306.184 143.14Z" fill="#CCDFFB"/>
<path opacity="0.13" d="M467.188 536.789C442.031 533.392 412.2 526.573 389.623 512.858C341.94 483.921 330.038 429.419 313.003 408.987C295.968 388.555 265.32 390.266 251.707 368.123C238.094 345.979 260.212 182.549 221.059 172.333C213.113 170.038 204.887 168.86 196.617 168.834C196.387 169.038 196.106 169.192 195.876 169.396C152.101 203.543 114.455 346.235 115.323 414.58C116.192 482.925 141.604 517.021 205.505 545.013C269.406 573.004 388.448 562.533 454.98 541.514C459.143 540.194 463.221 538.616 467.188 536.789Z" fill="#0C2ACB"/>
<path d="M306.184 143.14C306.184 143.14 239.652 135.248 195.876 169.395C152.101 203.542 114.455 346.234 115.323 414.579C116.192 482.924 141.604 517.02 205.505 545.012C269.406 573.004 388.448 562.532 454.98 541.513C521.511 520.494 543.399 447.015 542.531 407.581C541.663 368.148 497.887 322.661 482.997 313.083C468.107 303.506 426.094 283.329 405.1 251.787C384.106 220.245 353.433 151.9 306.184 143.14Z" stroke="#0C2ACB" stroke-linecap="round" stroke-linejoin="round"/>
<path d="M279.98 173.993C279.98 173.993 236.562 182.293 228.9 189.955C221.238 197.617 189.312 317.655 189.312 317.655C198.188 315.494 207.499 315.937 216.13 318.932C228.9 324.04 230.177 337.449 231.454 343.834C232.479 351.459 233.118 359.13 233.369 366.82C233.369 366.82 362.423 355.301 389.878 348.942C417.334 342.582 459.117 339.62 459.117 339.62C459.117 339.62 388.525 180.403 377.67 174.657C366.816 168.91 321.482 168.272 315.097 169.549C308.712 170.826 279.98 173.993 279.98 173.993Z" fill="#0C2ACB" stroke="#0C2ACB" stroke-linecap="round" stroke-linejoin="round"/>
<path d="M237.199 321.486L248.054 232.734" stroke="white" stroke-linecap="round" stroke-linejoin="round"/>
<path d="M245.5 256.36L260.186 237.205" stroke="white" stroke-linecap="round" stroke-linejoin="round"/>
<path d="M289.557 267.852C289.557 267.852 331.059 254.443 358.515 254.443" stroke="white" stroke-linecap="round" stroke-linejoin="round"/>
<path d="M328.735 231.254L325.951 252.529C325.951 252.529 332.975 252.529 333.613 255.721C333.657 256.905 333.452 258.085 333.013 259.184C332.573 260.284 331.907 261.279 331.059 262.106C331.059 262.106 350.853 272.961 353.407 285.731" stroke="white" stroke-linecap="round" stroke-linejoin="round"/>
<path d="M303.808 150.19C303.808 150.19 279.979 157.852 276.556 163.803C273.134 169.754 275.714 211.486 275.714 216.594C275.714 221.702 278.702 213.606 281.256 207.655C283.81 201.704 292.749 192.74 295.711 193.608C298.674 194.477 300.411 197.848 300.411 203.39C300.411 208.932 307.204 216.594 313.181 220.834C319.157 225.073 324.674 229.364 324.674 229.364C324.674 229.364 337.01 211.486 339.998 206.787C342.986 202.087 342.552 192.331 342.96 188.909C343.369 185.486 351.057 198.282 352.768 194.885C354.479 191.488 348.937 188.5 342.96 179.127C336.984 169.754 338.721 159.972 329.782 153.153C320.843 146.334 310.627 148.453 303.808 150.19Z" fill="white"/>
<path d="M276.557 163.777C274.309 167.761 274.667 187.631 275.177 202.087C280.617 195.089 291.83 181.859 298.317 184.362C306.592 187.554 309.759 211.077 309.759 211.077L304.165 150.189H303.808C303.808 150.189 279.979 157.851 276.557 163.777Z" fill="#CCDFFB"/>
<path opacity="0.5" d="M276.557 163.777C274.309 167.761 274.667 187.631 275.177 202.087C280.617 195.089 291.83 181.859 298.317 184.362C306.592 187.554 309.759 211.077 309.759 211.077L304.165 150.189H303.808C303.808 150.189 279.979 157.851 276.557 163.777Z" fill="white"/>
<path d="M303.808 150.19C303.808 150.19 279.979 157.852 276.556 163.803C273.134 169.754 275.714 211.486 275.714 216.594C275.714 221.702 278.702 213.606 281.256 207.655C283.81 201.704 292.749 192.74 295.711 193.608C298.674 194.477 300.411 197.848 300.411 203.39C300.411 208.932 307.204 216.594 313.181 220.834C319.157 225.073 324.674 229.364 324.674 229.364C324.674 229.364 337.01 211.486 339.998 206.787C342.986 202.087 342.552 192.331 342.96 188.909C343.369 185.486 351.057 198.282 352.768 194.885C354.479 191.488 348.937 188.5 342.96 179.127C336.984 169.754 338.721 159.972 329.782 153.153C320.843 146.334 310.627 148.453 303.808 150.19Z" stroke="#0C2ACB" stroke-linecap="round" stroke-linejoin="round"/>
<path d="M247.417 322.765C247.417 322.765 232.732 301.694 214.854 299.779C196.976 297.863 175.267 312.549 174.628 317.657C173.99 322.765 169.52 350.22 172.713 354.051C175.905 357.882 188.037 361.075 211.661 353.413C235.286 345.751 244.863 336.173 247.417 322.765Z" fill="white"/>
<path d="M187.679 353.387C187.679 353.387 182.571 338.778 185.125 333.696C187.679 328.613 197.895 320.926 204.203 313.264C210.512 305.602 189.314 317.58 188.292 313.264C187.5 309.79 199.504 302.843 204.229 300.264C189.365 303.124 175.139 313.468 174.628 317.58C173.99 322.688 169.52 350.143 172.713 353.974C174.347 355.941 178.408 357.754 185.176 357.984C186.708 355.353 187.679 353.387 187.679 353.387Z" fill="#CCDFFB"/>
<path opacity="0.5" d="M187.679 353.387C187.679 353.387 182.571 338.778 185.125 333.696C187.679 328.613 197.895 320.926 204.203 313.264C210.512 305.602 189.314 317.58 188.292 313.264C187.5 309.79 199.504 302.843 204.229 300.264C189.365 303.124 175.139 313.468 174.628 317.58C173.99 322.688 169.52 350.143 172.713 353.974C174.347 355.941 178.408 357.754 185.176 357.984C186.708 355.353 187.679 353.387 187.679 353.387Z" fill="white"/>
<path d="M247.417 322.765C247.417 322.765 232.732 301.694 214.854 299.779C196.976 297.863 175.267 312.549 174.628 317.657C173.99 322.765 169.52 350.22 172.713 354.051C175.905 357.882 188.037 361.075 211.661 353.413C235.286 345.751 244.863 336.173 247.417 322.765Z" stroke="#0C2ACB" stroke-linecap="round" stroke-linejoin="round"/>
<path d="M197.613 328.51C197.613 328.51 173.656 338.011 172.711 356.604C172.175 366.82 189.312 371.29 207.19 371.29C225.068 371.29 250.608 348.942 267.209 339.365C283.81 329.787 322.12 307.44 326.59 305.524C331.059 303.609 346.383 308.717 352.768 310.632C358.854 311.936 365.062 312.578 371.285 312.548C371.285 312.548 380.224 326.595 384.693 326.595C389.163 326.595 375.116 305.524 373.2 301.055C371.285 296.585 339.998 286.369 336.167 286.369C332.336 286.369 242.946 308.717 229.538 313.825C216.129 318.933 197.613 328.51 197.613 328.51Z" fill="white"/>
<path d="M247.697 325.854C284.194 307.593 336.167 286.369 336.167 286.369C332.336 286.369 242.946 308.717 229.538 313.825C216.129 318.933 197.613 328.51 197.613 328.51C197.613 328.51 173.656 338.011 172.711 356.604C172.175 366.82 189.312 371.29 207.19 371.29C225.068 371.29 250.608 348.942 267.209 339.365L277.272 333.542C252.882 336.632 220.267 339.543 247.697 325.854Z" fill="#CCDFFB"/>
<path opacity="0.5" d="M247.697 325.854C284.194 307.593 336.167 286.369 336.167 286.369C332.336 286.369 242.946 308.717 229.538 313.825C216.129 318.933 197.613 328.51 197.613 328.51C197.613 328.51 173.656 338.011 172.711 356.604C172.175 366.82 189.312 371.29 207.19 371.29C225.068 371.29 250.608 348.942 267.209 339.365L277.272 333.542C252.882 336.632 220.267 339.543 247.697 325.854Z" fill="white"/>
<path d="M197.613 328.51C197.613 328.51 173.656 338.011 172.711 356.604C172.175 366.82 189.312 371.29 207.19 371.29C225.068 371.29 250.608 348.942 267.209 339.365C283.81 329.787 322.12 307.44 326.59 305.524C331.059 303.609 346.383 308.717 352.768 310.632C358.854 311.936 365.062 312.578 371.285 312.548C371.285 312.548 380.224 326.595 384.693 326.595C389.163 326.595 375.116 305.524 373.2 301.055C371.285 296.585 339.998 286.369 336.167 286.369C332.336 286.369 242.946 308.717 229.538 313.825C216.129 318.933 197.613 328.51 197.613 328.51Z" stroke="#0C2ACB" stroke-linecap="round" stroke-linejoin="round"/>
<path d="M384.362 186.509L364.9 295.948L505.37 296.586L526.262 192.792C526.436 191.876 526.409 190.933 526.184 190.029C525.96 189.124 525.542 188.279 524.959 187.551C524.377 186.823 523.644 186.23 522.811 185.812C521.978 185.394 521.064 185.161 520.133 185.13L390.9 181.248C389.361 181.197 387.855 181.701 386.656 182.666C385.456 183.631 384.642 184.995 384.362 186.509Z" fill="white" stroke="#0C2ACB" stroke-linecap="round" stroke-linejoin="round"/>
<path d="M364.9 295.947L296.504 344.32L452.936 339.851L505.37 296.586L364.9 295.947Z" fill="white"/>
<path d="M364.9 295.947L296.504 344.32L452.936 339.851L505.37 296.586L364.9 295.947Z" fill="#CCDFFB"/>
<path opacity="0.5" d="M364.9 295.947L296.504 344.32L452.936 339.851L505.37 296.586L364.9 295.947Z" fill="white"/>
<path d="M364.9 295.947L296.504 344.32L452.936 339.851L505.37 296.586L364.9 295.947Z" stroke="#0C2ACB" stroke-linecap="round" stroke-linejoin="round"/>
<path d="M416.619 343.835C416.619 343.835 472.807 294.67 528.357 278.069C583.906 261.468 595.399 264.022 594.122 288.924C592.845 313.825 566.028 444.079 548.15 477.281C530.272 510.483 507.925 571.141 508.563 582.634C509.202 594.127 530.911 627.967 550.066 640.099C569.221 652.23 567.305 666.916 555.174 669.47C543.042 672.024 528.995 676.493 487.493 649.676C445.99 622.859 428.751 584.549 431.305 574.972C433.859 565.394 460.676 552.624 471.53 533.469C482.385 514.314 500.263 442.802 501.54 410.239C502.577 389.681 506.888 369.42 514.31 350.22C514.31 350.22 444.075 362.99 423.643 375.76L416.619 343.835Z" fill="white"/>
<path d="M416.619 343.835C416.619 343.835 472.807 294.67 528.357 278.069C583.906 261.468 595.399 264.022 594.122 288.924C592.845 313.825 566.028 444.079 548.15 477.281C530.272 510.483 507.925 571.141 508.563 582.634C509.202 594.127 530.911 627.967 550.066 640.099C569.221 652.23 567.305 666.916 555.174 669.47C543.042 672.024 528.995 676.493 487.493 649.676C445.99 622.859 428.751 584.549 431.305 574.972C433.859 565.394 460.676 552.624 471.53 533.469C482.385 514.314 500.263 442.802 501.54 410.239C502.577 389.681 506.888 369.42 514.31 350.22C514.31 350.22 444.075 362.99 423.643 375.76L416.619 343.835Z" fill="#CCDFFB"/>
<path opacity="0.5" d="M416.619 343.835C416.619 343.835 472.807 294.67 528.357 278.069C583.906 261.468 595.399 264.022 594.122 288.924C592.845 313.825 566.028 444.079 548.15 477.281C530.272 510.483 507.925 571.141 508.563 582.634C509.202 594.127 530.911 627.967 550.066 640.099C569.221 652.23 567.305 666.916 555.174 669.47C543.042 672.024 528.995 676.493 487.493 649.676C445.99 622.859 428.751 584.549 431.305 574.972C433.859 565.394 460.676 552.624 471.53 533.469C482.385 514.314 500.263 442.802 501.54 410.239C502.577 389.681 506.888 369.42 514.31 350.22C514.31 350.22 444.075 362.99 423.643 375.76L416.619 343.835Z" fill="white"/>
<path d="M416.619 343.835C416.619 343.835 472.807 294.67 528.357 278.069C583.906 261.468 595.399 264.022 594.122 288.924C592.845 313.825 566.028 444.079 548.15 477.281C530.272 510.483 507.925 571.141 508.563 582.634C509.202 594.127 530.911 627.967 550.066 640.099C569.221 652.23 567.305 666.916 555.174 669.47C543.042 672.024 528.995 676.493 487.493 649.676C445.99 622.859 428.751 584.549 431.305 574.972C433.859 565.394 460.676 552.624 471.53 533.469C482.385 514.314 500.263 442.802 501.54 410.239C502.577 389.681 506.888 369.42 514.31 350.22C514.31 350.22 444.075 362.99 423.643 375.76L416.619 343.835Z" stroke="#0C2ACB" stroke-linecap="round" stroke-linejoin="round"/>
<path d="M471.53 533.469C470.713 534.9 469.793 536.279 468.823 537.658C482.03 538.902 494.551 544.12 504.732 552.624C507.793 555.283 510.709 558.105 513.467 561.078C522.737 532.252 534.336 504.227 548.15 477.281C566.028 444.079 592.845 313.825 594.122 288.924C595.399 264.022 583.906 261.468 528.357 278.069C472.807 294.67 416.619 343.835 416.619 343.835L423.643 375.76C444.075 362.99 514.31 350.22 514.31 350.22C506.888 369.42 502.577 389.681 501.54 410.239C500.263 442.802 482.385 514.314 471.53 533.469Z" fill="white" stroke="#0C2ACB" stroke-linecap="round" stroke-linejoin="round"/>
<path d="M471.53 533.469C470.713 534.9 469.793 536.279 468.823 537.658C482.03 538.902 494.551 544.12 504.732 552.624C507.793 555.283 510.709 558.105 513.467 561.078C525.7 544.63 539.467 492.759 554.995 471.407C595.118 416.266 592.845 313.825 594.122 288.924C595.399 264.022 583.906 261.468 528.357 278.069C472.807 294.67 416.619 343.835 416.619 343.835L423.643 375.76C444.075 362.99 514.31 350.22 514.31 350.22C506.888 369.42 502.577 389.681 501.54 410.239C500.263 442.802 482.385 514.314 471.53 533.469Z" fill="#0C2ACB"/>
<path opacity="0.53" d="M471.53 533.469C470.713 534.9 469.793 536.279 468.823 537.658C482.03 538.902 494.551 544.12 504.732 552.624C507.793 555.283 510.709 558.105 513.467 561.078C525.7 544.63 539.467 492.759 554.995 471.407C595.118 416.266 592.845 313.825 594.122 288.924C595.399 264.022 583.906 261.468 528.357 278.069C472.807 294.67 416.619 343.835 416.619 343.835L423.643 375.76C444.075 362.99 514.31 350.22 514.31 350.22C506.888 369.42 502.577 389.681 501.54 410.239C500.263 442.802 482.385 514.314 471.53 533.469Z" fill="white"/>
<path opacity="0.14" d="M567.126 285.552C566.13 276.485 467.367 318.294 425.711 336.325C419.939 340.923 416.619 343.834 416.619 343.834L423.643 375.759C444.075 362.989 514.31 350.219 514.31 350.219C506.888 369.419 502.577 389.68 501.54 410.238C500.263 442.802 482.385 514.314 471.53 533.469C470.713 534.899 469.793 536.278 468.823 537.657C475.855 538.411 482.739 540.192 489.255 542.944C504.553 510.304 521.027 472.326 528.816 442.623C542.863 388.989 568.403 297.045 567.126 285.552Z" fill="#0C2ACB"/>
<path d="M514.311 350.22C514.311 350.22 533.466 311.271 550.067 295.309" stroke="#0C2ACB" stroke-linecap="round" stroke-linejoin="round"/>
<path d="M471.53 533.469C470.713 534.9 469.793 536.279 468.823 537.658C482.03 538.902 494.551 544.12 504.732 552.624C507.793 555.283 510.709 558.105 513.467 561.078C525.7 544.63 539.467 492.759 554.995 471.407C595.118 416.266 592.845 313.825 594.122 288.924C595.399 264.022 583.906 261.468 528.357 278.069C472.807 294.67 416.619 343.835 416.619 343.835L423.643 375.76C444.075 362.99 514.31 350.22 514.31 350.22C506.888 369.42 502.577 389.681 501.54 410.239C500.263 442.802 482.385 514.314 471.53 533.469Z" stroke="#0C2ACB" stroke-linecap="round" stroke-linejoin="round"/>
<path d="M332.438 395.374C353.006 394.436 373.339 390.61 392.84 384.009C421.726 373.487 369.19 354.229 349.065 364.752C343.441 367.479 338.813 371.899 335.831 377.392C332.849 382.884 331.663 389.173 332.438 395.374Z" fill="#0C2ACB" stroke="#0C2ACB" stroke-linecap="round" stroke-linejoin="round"/>
<path d="M249.331 354.05C249.331 354.05 228.899 365.543 221.875 378.313C214.852 391.083 245.065 412.357 276.99 411.08C308.915 409.803 367.453 375.12 367.453 375.12C367.453 375.12 368.092 431.308 378.946 451.74C389.801 472.172 439.604 521.975 459.397 534.745C479.191 547.515 545.595 595.403 555.811 603.065C566.027 610.727 585.182 624.774 589.651 625.412C594.121 626.051 640.731 569.224 651.586 550.069C662.44 530.914 672.018 490.689 668.187 481.75C664.356 472.811 656.694 480.473 649.032 486.858C641.37 493.243 571.135 539.853 564.75 543.046C561.263 544.836 557.632 546.332 553.895 547.515C553.895 547.515 496.43 492.604 465.782 450.463C435.134 408.322 432.58 354.05 421.087 333.618C409.594 313.186 392.993 304.247 368.092 306.801C343.19 309.355 291.472 322.763 249.331 354.05Z" fill="white"/>
<path d="M519.494 576.708C536.555 588.916 551.394 599.694 555.812 603.014C566.028 610.676 585.183 624.723 589.653 625.362C591.236 625.591 598.132 618.568 606.841 608.582L533.72 561.537L519.494 576.708Z" fill="#CCDFFB"/>
<path opacity="0.5" d="M519.494 576.708C536.555 588.916 551.394 599.694 555.812 603.014C566.028 610.676 585.183 624.723 589.653 625.362C591.236 625.591 598.132 618.568 606.841 608.582L533.72 561.537L519.494 576.708Z" fill="white"/>
<path d="M249.331 354.05C249.331 354.05 228.899 365.543 221.875 378.313C214.852 391.083 245.065 412.357 276.99 411.08C308.915 409.803 367.453 375.12 367.453 375.12C367.453 375.12 368.092 431.308 378.946 451.74C389.801 472.172 439.604 521.975 459.397 534.745C479.191 547.515 545.595 595.403 555.811 603.065C566.027 610.727 585.182 624.774 589.651 625.412C594.121 626.051 640.731 569.224 651.586 550.069C662.44 530.914 672.018 490.689 668.187 481.75C664.356 472.811 656.694 480.473 649.032 486.858C641.37 493.243 571.135 539.853 564.75 543.046C561.263 544.836 557.632 546.332 553.895 547.515C553.895 547.515 496.43 492.604 465.782 450.463C435.134 408.322 432.58 354.05 421.087 333.618C409.594 313.186 392.993 304.247 368.092 306.801C343.19 309.355 291.472 322.763 249.331 354.05Z" stroke="#0C2ACB" stroke-linecap="round" stroke-linejoin="round"/>
<path d="M549.938 543.685C536.427 530.506 485.781 462.544 465.784 423.468C436.489 366.207 433.322 346.695 421.829 326.263C410.336 305.831 392.995 304.247 368.195 306.801C343.396 309.355 298.726 313.978 244.071 344.984C244.071 344.984 221.085 357.447 214.087 370.217C207.089 382.987 232.654 415.142 277.094 411.081C308.917 408.17 367.557 375.121 367.557 375.121C367.557 375.121 368.195 431.309 379.05 451.741C389.904 472.173 439.707 521.976 459.501 534.746C472.041 542.842 503.327 565.062 527.156 582.174C533.03 560.797 543.578 549.099 549.938 543.685Z" fill="#0C2ACB"/>
<path opacity="0.53" d="M549.938 543.685C536.427 530.506 485.781 462.544 465.784 423.468C436.489 366.207 433.322 346.695 421.829 326.263C410.336 305.831 392.995 304.247 368.195 306.801C343.396 309.355 298.726 313.978 244.071 344.984C244.071 344.984 221.085 357.447 214.087 370.217C207.089 382.987 232.654 415.142 277.094 411.081C308.917 408.17 367.557 375.121 367.557 375.121C367.557 375.121 368.195 431.309 379.05 451.741C389.904 472.173 439.707 521.976 459.501 534.746C472.041 542.842 503.327 565.062 527.156 582.174C533.03 560.797 543.578 549.099 549.938 543.685Z" fill="white"/>
<path opacity="0.14" d="M421.549 452.84C402.394 404.314 413.887 307.262 360.253 320.032C321.176 329.328 249.537 362.377 213.551 379.616C217.816 394.276 241.313 414.351 276.992 411.082C308.815 408.17 367.455 375.121 367.455 375.121C367.455 375.121 368.093 431.309 378.948 451.741C389.802 472.173 439.605 521.976 459.399 534.746C471.939 542.843 503.225 565.062 527.054 582.174C529.106 574.699 532.101 567.515 535.968 560.797C488.412 525.629 432.25 479.938 421.549 452.84Z" fill="#0C2ACB"/>
<path d="M367.455 375.12L365.539 341.918" stroke="#0C2ACB" stroke-linecap="round" stroke-linejoin="round"/>
<path d="M549.938 543.685C536.427 530.506 485.781 462.544 465.784 423.468C436.489 366.207 433.322 346.695 421.829 326.263C410.336 305.831 392.995 304.247 368.195 306.801C343.396 309.355 298.726 313.978 244.071 344.984C244.071 344.984 221.085 357.447 214.087 370.217C207.089 382.987 232.654 415.142 277.094 411.081C308.917 408.17 367.557 375.121 367.557 375.121C367.557 375.121 368.195 431.309 379.05 451.741C389.904 472.173 439.707 521.976 459.501 534.746C472.041 542.842 503.327 565.062 527.156 582.174C533.03 560.797 543.578 549.099 549.938 543.685Z" stroke="#0C2ACB" stroke-linecap="round" stroke-linejoin="round"/>
<path d="M555.811 603.066C566.027 610.728 585.182 624.775 589.652 625.413C594.121 626.052 640.732 569.225 651.586 550.07C662.441 530.915 672.018 490.69 668.187 481.751C664.356 472.812 656.694 480.474 649.032 486.859C641.37 493.244 571.135 539.854 564.75 543.047C563.065 543.889 561.532 544.579 560.179 545.166C558.34 548.665 556.092 554.08 557.625 557.732C560.179 563.479 571.033 571.141 571.033 571.141L551.699 600.103L555.811 603.066Z" fill="#0C2ACB" stroke="#0C2ACB" stroke-linecap="round" stroke-linejoin="round"/>
<path d="M651.586 550.07C662.44 530.915 672.018 490.69 668.187 481.751C665.965 476.643 662.466 476.975 658.405 479.478C661.087 491.405 658.405 514.416 645.201 539.216C633.427 561.333 597.058 600.512 578.797 619.462C582.124 621.965 585.797 623.97 589.702 625.413C594.121 626.052 640.731 569.225 651.586 550.07Z" fill="white"/>
<path d="M590.291 625.235L590.853 624.954L591.006 624.826C591.315 624.65 591.605 624.445 591.874 624.213L592.181 623.958L592.921 623.345L593.33 622.962L594.326 622.042L594.939 621.455L595.782 620.638L596.497 619.922L597.212 619.207L599.025 617.292L599.332 616.985L600.456 615.759L600.915 615.274C602.243 613.818 603.674 612.235 605.155 610.549V610.422L606.739 608.634L595.578 601.457C589.244 608.353 583.344 614.585 578.645 619.463L580.356 620.586L580.611 620.74L582.195 621.736L584.749 623.192L585.464 623.6L586.179 623.983L586.996 624.392L587.532 624.647C587.789 624.775 588.053 624.886 588.324 624.979L588.707 625.133C589.002 625.255 589.311 625.341 589.627 625.388C589.786 625.429 589.953 625.429 590.112 625.388L590.291 625.235Z" fill="#CCDFFB"/>
<path opacity="0.5" d="M590.291 625.235L590.853 624.954L591.006 624.826C591.315 624.65 591.605 624.445 591.874 624.213L592.181 623.958L592.921 623.345L593.33 622.962L594.326 622.042L594.939 621.455L595.782 620.638L596.497 619.922L597.212 619.207L599.025 617.292L599.332 616.985L600.456 615.759L600.915 615.274C602.243 613.818 603.674 612.235 605.155 610.549V610.422L606.739 608.634L595.578 601.457C589.244 608.353 583.344 614.585 578.645 619.463L580.356 620.586L580.611 620.74L582.195 621.736L584.749 623.192L585.464 623.6L586.179 623.983L586.996 624.392L587.532 624.647C587.789 624.775 588.053 624.886 588.324 624.979L588.707 625.133C589.002 625.255 589.311 625.341 589.627 625.388C589.786 625.429 589.953 625.429 590.112 625.388L590.291 625.235Z" fill="white"/>
<path d="M651.586 550.07C662.44 530.915 672.018 490.69 668.187 481.751C665.965 476.643 662.466 476.975 658.405 479.478C661.087 491.405 658.405 514.416 645.201 539.216C633.427 561.333 597.058 600.512 578.797 619.462C582.124 621.965 585.797 623.97 589.702 625.413C594.121 626.052 640.731 569.225 651.586 550.07Z" stroke="#0C2ACB" stroke-linecap="round" stroke-linejoin="round"/>
<path d="M550.066 640.098C530.911 627.966 509.202 594.126 508.564 582.633C508.535 581.374 508.638 580.116 508.87 578.878C505.056 579 501.377 580.312 498.348 582.633C490.486 575.5 482.168 568.888 473.446 562.839C466.422 558.794 458.552 556.441 450.46 555.969C441.189 563.631 432.582 569.76 431.228 574.971C428.674 584.548 445.914 622.858 487.416 649.675C528.919 676.492 542.966 672.023 555.097 669.469C567.229 666.915 569.221 652.229 550.066 640.098Z" fill="#0C2ACB" stroke="#0C2ACB" stroke-linecap="round" stroke-linejoin="round"/>
<path d="M550.066 640.098C543.719 635.796 537.995 630.639 533.056 624.774C519.877 619.155 502.28 612.004 486.854 602.401C470.253 592.185 474.084 585.8 464.507 576.223C457.151 568.867 442.695 567.922 436.413 567.871C434.145 569.765 432.388 572.197 431.305 574.946C428.751 584.523 445.99 622.833 487.493 649.65C528.995 676.467 543.042 671.998 555.174 669.444C567.305 666.89 569.221 652.23 550.066 640.098Z" fill="white"/>
<path d="M550.066 640.098C543.719 635.796 537.995 630.639 533.056 624.774C519.877 619.155 502.28 612.004 486.854 602.401C470.253 592.185 474.084 585.8 464.507 576.223C457.151 568.867 442.695 567.922 436.413 567.871C434.145 569.765 432.388 572.197 431.305 574.946C428.751 584.523 445.99 622.833 487.493 649.65C528.995 676.467 543.042 671.998 555.174 669.444C567.305 666.89 569.221 652.23 550.066 640.098Z" fill="#CCDFFB"/>
<path opacity="0.5" d="M550.066 640.098C543.719 635.796 537.995 630.639 533.056 624.774C519.877 619.155 502.28 612.004 486.854 602.401C470.253 592.185 474.084 585.8 464.507 576.223C457.151 568.867 442.695 567.922 436.413 567.871C434.145 569.765 432.388 572.197 431.305 574.946C428.751 584.523 445.99 622.833 487.493 649.65C528.995 676.467 543.042 671.998 555.174 669.444C567.305 666.89 569.221 652.23 550.066 640.098Z" fill="white"/>
<path d="M550.066 640.098C543.719 635.796 537.995 630.64 533.056 624.774C519.877 619.155 502.28 612.004 486.854 602.401C470.253 592.185 474.084 585.8 464.507 576.223C457.151 568.867 442.695 567.922 436.413 567.871C434.145 569.765 432.388 572.197 431.305 574.946C428.751 584.523 445.99 622.833 487.493 649.65C528.995 676.467 543.042 671.998 555.174 669.444C567.305 666.89 569.221 652.23 550.066 640.098Z" stroke="#0C2ACB" stroke-linecap="round" stroke-linejoin="round"/>
<path d="M553.258 644.567C536.657 634.99 502.816 628.605 481.107 613.919C459.398 599.234 465.145 586.464 449.182 576.248C446.632 574.341 443.576 573.228 440.397 573.046C437.218 572.864 434.055 573.623 431.304 575.226C429.082 585.187 446.373 623.063 487.492 649.675C528.612 676.288 543.042 672.023 555.173 669.469C563.244 667.758 566.743 660.709 562.58 652.613C559.975 649.399 556.818 646.674 553.258 644.567Z" fill="#0C2ACB"/>
<path opacity="0.53" d="M553.258 644.567C536.657 634.99 502.816 628.605 481.107 613.919C459.398 599.234 465.145 586.464 449.182 576.248C446.632 574.341 443.576 573.228 440.397 573.046C437.218 572.864 434.055 573.623 431.304 575.226C429.082 585.187 446.373 623.063 487.492 649.675C528.612 676.288 543.042 672.023 555.173 669.469C563.244 667.758 566.743 660.709 562.58 652.613C559.975 649.399 556.818 646.674 553.258 644.567Z" fill="white"/>
<path d="M553.258 644.567C536.657 634.99 502.816 628.605 481.107 613.919C459.398 599.234 465.145 586.464 449.182 576.248C446.632 574.341 443.576 573.228 440.397 573.046C437.218 572.864 434.055 573.623 431.304 575.226C429.082 585.187 446.373 623.063 487.492 649.675C528.612 676.288 543.042 672.023 555.173 669.469C563.244 667.758 566.743 660.709 562.58 652.613C559.975 649.399 556.818 646.674 553.258 644.567V644.567Z" stroke="#0C2ACB" stroke-linecap="round" stroke-linejoin="round"/>
<path d="M235.081 522.435C235.081 522.435 247.34 507.545 249.076 518.936C250.813 530.327 248.208 551.321 239.448 559.187C230.688 567.053 226.32 554.82 226.32 554.82L231.582 547.822C231.582 547.822 235.949 556.582 239.448 542.56C242.947 528.539 232.45 530.301 232.45 530.301L235.081 522.435Z" fill="white" stroke="#0C2ACB" stroke-linecap="round" stroke-linejoin="round"/>
<path d="M225.707 578.47C218.454 583.833 194.804 583.833 187.576 578.47C172.252 567.104 174.806 512.193 174.806 512.193H238.299C238.299 512.193 241.057 567.104 225.707 578.47Z" fill="white" stroke="#0C2ACB" stroke-linecap="round" stroke-linejoin="round"/>
<path d="M181.752 501.416C181.752 494.52 188.162 494.52 188.162 487.599C188.162 480.678 181.752 480.678 181.752 473.782C181.752 466.886 188.162 466.861 188.162 459.939C188.162 453.018 181.752 453.018 181.752 446.097C181.752 439.175 188.162 439.175 188.162 432.254" stroke="#0C2ACB" stroke-linecap="round" stroke-linejoin="round"/>
<path d="M203.691 501.416C203.691 496.308 210.102 496.309 210.102 490.92C210.102 485.531 203.691 485.684 203.691 480.423C203.691 475.161 210.102 475.187 210.102 469.926C210.102 464.664 203.691 464.664 203.691 459.403C203.691 454.142 210.102 454.167 210.102 448.906" stroke="#0C2ACB" stroke-linecap="round" stroke-linejoin="round"/>
<path d="M227.826 501.416C227.826 494.52 234.211 494.52 234.211 487.599C234.211 480.678 227.826 480.678 227.826 473.782C227.826 466.886 234.211 466.861 234.211 459.939C234.211 453.018 227.826 453.018 227.826 446.097C227.826 439.175 234.211 439.175 234.211 432.254" stroke="#0C2ACB" stroke-linecap="round" stroke-linejoin="round"/>
<path d="M238.35 512.195C238.35 513.804 224.15 515.081 206.604 515.081C189.058 515.081 174.857 513.804 174.857 512.195C174.857 510.586 189.058 509.309 206.604 509.309C224.15 509.309 238.35 510.586 238.35 512.195Z" fill="white" stroke="#0C2ACB" stroke-linecap="round" stroke-linejoin="round"/>
<path d="M296.963 116.989C296.963 116.989 299.951 149.246 301.203 159.436C302.454 169.626 305.289 198.895 308.226 208.575C311.163 218.255 327.177 235.085 328.658 231.203C330.139 227.321 338.108 200.99 334.941 185.231C331.774 169.473 330.803 156.014 332.77 152.029C334.737 148.045 341.811 143.576 341.811 143.576C333.571 139.355 325.565 134.691 317.829 129.605C306.54 122.097 298.546 113.592 296.963 116.989Z" fill="white"/>
<path d="M337.956 145.312L335.402 140.357C330.703 137.803 324.165 134.023 317.958 129.86C306.593 122.198 298.599 113.591 297.016 117.09C297.016 117.09 300.004 149.348 301.255 159.538C302.507 169.728 305.342 198.997 308.279 208.677C309.281 211.508 310.664 214.189 312.391 216.645C309.3 197.388 312.646 162.603 312.646 162.603L337.956 145.312Z" fill="#CCDFFB"/>
<path opacity="0.5" d="M337.956 145.312L335.402 140.357C330.703 137.803 324.165 134.023 317.958 129.86C306.593 122.198 298.599 113.591 297.016 117.09C297.016 117.09 300.004 149.348 301.255 159.538C302.507 169.728 305.342 198.997 308.279 208.677C309.281 211.508 310.664 214.189 312.391 216.645C309.3 197.388 312.646 162.603 312.646 162.603L337.956 145.312Z" fill="white"/>
<path d="M296.963 116.989C296.963 116.989 299.951 149.246 301.203 159.436C302.454 169.626 305.289 198.895 308.226 208.575C311.163 218.255 327.177 235.085 328.658 231.203C330.139 227.321 338.108 200.99 334.941 185.231C331.774 169.473 330.803 156.014 332.77 152.029C334.737 148.045 341.811 143.576 341.811 143.576C333.571 139.355 325.565 134.691 317.829 129.605C306.54 122.097 298.546 113.592 296.963 116.989Z" stroke="#0C2ACB" stroke-linecap="round" stroke-linejoin="round"/>
<path d="M295.789 121.662C295.789 121.662 314.178 136.986 328.276 142.605C342.374 148.224 364.032 147.867 367.123 140.537C370.213 133.207 361.759 75.1541 354.48 59.8812C347.201 44.6083 339.437 44.3529 326.591 43.1781C313.744 42.0032 288.051 52.4746 283.53 64.8871C279.01 77.2995 284.169 94.871 287.898 105.291C289.869 111.042 292.519 116.538 295.789 121.662Z" fill="white"/>
<path d="M328.811 120.971C322.298 101.663 320.664 71.2705 320.664 63.1743C320.664 56.917 336.958 50.0467 344.391 47.2373C339.512 44.2236 333.843 43.8405 326.513 43.1765C313.743 42.0272 287.973 52.473 283.452 64.8855C278.932 77.2979 284.091 94.8694 287.819 105.29C289.791 111.041 292.441 116.536 295.711 121.661C295.711 121.661 314.1 136.985 328.198 142.604C337.969 146.301 348.551 147.315 358.846 145.541C348.758 141.735 333.153 133.869 328.811 120.971Z" fill="#CCDFFB"/>
<path opacity="0.5" d="M328.811 120.971C322.298 101.663 320.664 71.2705 320.664 63.1743C320.664 56.917 336.958 50.0467 344.391 47.2373C339.512 44.2236 333.843 43.8405 326.513 43.1765C313.743 42.0272 287.973 52.473 283.452 64.8855C278.932 77.2979 284.091 94.8694 287.819 105.29C289.791 111.041 292.441 116.536 295.711 121.661C295.711 121.661 314.1 136.985 328.198 142.604C337.969 146.301 348.551 147.315 358.846 145.541C348.758 141.735 333.153 133.869 328.811 120.971Z" fill="white"/>
<path d="M295.789 121.662C295.789 121.662 314.178 136.986 328.276 142.605C342.374 148.224 364.032 147.867 367.123 140.537C370.213 133.207 361.759 75.1541 354.48 59.8812C347.201 44.6083 339.437 44.3529 326.591 43.1781C313.744 42.0032 288.051 52.4746 283.53 64.8871C279.01 77.2995 284.169 94.871 287.898 105.291C289.869 111.042 292.519 116.538 295.789 121.662V121.662Z" stroke="#0C2ACB" stroke-linecap="round" stroke-linejoin="round"/>
<path d="M355.859 83.7863C356.165 91.1418 351.543 97.297 345.643 97.5269C339.743 97.7567 334.584 92.0102 334.303 84.7569C334.022 77.5035 338.619 71.2462 344.519 70.9908C350.419 70.7354 355.578 76.3542 355.859 83.7863Z" stroke="#0C2ACB" stroke-linecap="round" stroke-linejoin="round"/>
<path d="M370.315 80.9263C370.622 88.2819 368.247 94.3348 365.028 94.4625C361.81 94.5902 358.95 88.7416 358.669 81.386C358.388 74.0305 360.763 67.952 363.981 67.8243C367.199 67.6966 370.034 73.5708 370.315 80.9263Z" stroke="#0C2ACB" stroke-linecap="round" stroke-linejoin="round"/>
<path d="M356.625 81.0781C356.625 81.0781 377.721 85.0879 375.678 90.1704C373.635 95.2528 359.383 100.744 359.383 100.744" fill="white"/>
<path d="M356.625 81.0781C356.625 81.0781 377.721 85.0879 375.678 90.1704C373.635 95.2528 359.383 100.744 359.383 100.744" stroke="#0C2ACB" stroke-linecap="round" stroke-linejoin="round"/>
<path d="M355.322 78.6781C355.322 78.6781 355.629 76.1241 358.872 77.7332" stroke="#0C2ACB" stroke-linecap="round" stroke-linejoin="round"/>
<path d="M333.638 85.7773L295.277 100.871" stroke="#0C2ACB" stroke-linecap="round" stroke-linejoin="round"/>
<path d="M334.15 73.3662C334.958 71.5404 336.308 70.0073 338.017 68.9747C339.725 67.9422 341.71 67.4602 343.702 67.5942" stroke="#0C2ACB" stroke-width="2" stroke-linecap="round" stroke-linejoin="round"/>
<path d="M359.691 67.7715L353.791 69.9935" stroke="#0C2ACB" stroke-width="2" stroke-linecap="round" stroke-linejoin="round"/>
<path d="M341.455 112.722C341.455 112.722 349.117 114.714 353.459 110.168" stroke="#0C2ACB" stroke-linecap="round" stroke-linejoin="round"/>
<path d="M346.384 85.1136C346.741 87.6676 346.384 89.864 345.336 89.9917C344.289 90.1194 343.37 88.1529 343.012 85.5733C342.655 82.9938 343.14 80.8484 344.085 80.7207C345.03 80.593 346.052 82.5596 346.384 85.1136Z" fill="#0C2ACB"/>
<path d="M298.854 100.974C298.854 100.974 296.3 106.082 303.502 106.338C310.704 106.593 315.608 103.094 312.109 98.6758C308.61 94.2574 303.425 90.1199 308.763 84.3479C314.101 78.5758 324.47 73.7232 318.647 67.2871C312.824 60.8511 291.396 66.6998 296.759 61.4896C302.123 56.2794 326.896 50.8394 338.032 51.529C349.167 52.2185 369.957 43.586 374.529 32.2974C379.1 21.0087 372.715 0.142509 357.749 1.26627C342.782 2.39003 331.621 15.6453 324.981 16.5903C318.341 17.5352 304.728 10.1542 293.311 16.5903C281.895 23.0263 281.512 41.5173 280.541 43.7904C279.571 46.0634 264.094 49.4347 261.361 65.0907C260.335 71.4026 260.773 77.8658 262.642 83.9813C264.511 90.0968 267.76 95.7011 272.139 100.361C278.549 107.334 281.435 109.99 281.435 109.99L298.854 100.974Z" fill="#0C2ACB" stroke="#0C2ACB" stroke-linecap="round" stroke-linejoin="round"/>
<path d="M266.367 72.6758C266.233 75.0516 266.802 77.4142 268.001 79.4694" stroke="white" stroke-width="0.75" stroke-linecap="round" stroke-linejoin="round"/>
<path d="M331.468 32.247C331.468 32.247 325.9 20.0645 340.1 20.0645C354.3 20.0645 356.344 37.9424 341.633 44.4296C326.922 50.9168 294.92 52.5513 277.655 60.1878C274.267 61.514 271.252 63.6439 268.869 66.394" stroke="white" stroke-width="0.75" stroke-linecap="round" stroke-linejoin="round"/>
<path d="M305.75 75.5117C300.642 77.3506 294.028 79.9046 287.31 83.0205C273.085 89.6353 276.124 96.2247 276.124 96.2247" stroke="white" stroke-width="0.75" stroke-linecap="round" stroke-linejoin="round"/>
<path d="M315.225 72.3691C315.225 72.3691 313.973 72.7267 311.854 73.4163" stroke="white" stroke-width="0.75" stroke-linecap="round" stroke-linejoin="round"/>
<path d="M301.28 106.44C301.28 106.44 293.03 94.5381 284.347 99.3141C275.663 104.09 282.406 121.074 287.641 126.974C292.877 132.874 302.965 121.866 304.012 119.108" fill="white"/>
<path d="M301.28 106.44C301.28 106.44 293.03 94.5381 284.347 99.3141C275.663 104.09 282.406 121.074 287.641 126.974C292.877 132.874 302.965 121.866 304.012 119.108" fill="#CCDFFB"/>
<path opacity="0.5" d="M301.28 106.44C301.28 106.44 293.03 94.5381 284.347 99.3141C275.663 104.09 282.406 121.074 287.641 126.974C292.877 132.874 302.965 121.866 304.012 119.108" fill="white"/>
<path d="M301.28 106.44C301.28 106.44 293.03 94.5381 284.347 99.3141C275.663 104.09 282.406 121.074 287.641 126.974C292.877 132.874 302.965 121.866 304.012 119.108" stroke="#0C2ACB" stroke-linecap="round" stroke-linejoin="round"/>
<path d="M197.102 95.5859H14.0316C6.80962 95.5859 0.955078 101.441 0.955078 108.662V242.492C0.955078 249.714 6.80962 255.569 14.0316 255.569H197.102C204.324 255.569 210.179 249.714 210.179 242.492V108.662C210.179 101.441 204.324 95.5859 197.102 95.5859Z" fill="white" stroke="#0C2ACB" stroke-linecap="round" stroke-linejoin="round"/>
<path d="M206.195 210.668L328.787 242.593L206.195 182.574" fill="white"/>
<path d="M206.195 210.668L328.787 242.593L206.195 182.574" stroke="#0C2ACB" stroke-linecap="round" stroke-linejoin="round"/>
<path d="M67.0789 110.961H17.8633V240.193H67.0789V110.961Z" fill="#CCDFFB" stroke="#0C2ACB" stroke-linecap="round" stroke-linejoin="round"/>
<path d="M199.325 110.961H193.17V240.193H199.325V110.961Z" fill="#CCDFFB" stroke="#0C2ACB" stroke-linecap="round" stroke-linejoin="round"/>
<path d="M199.325 170.035H193.17V181.068H199.325V170.035Z" fill="#0C2ACB" stroke="#0C2ACB" stroke-linecap="round" stroke-linejoin="round"/>
<path d="M82.4785 114.025H179.403" stroke="#0C2ACB" stroke-linecap="round" stroke-linejoin="round"/>
<path d="M82.4785 127.867H179.403" stroke="#0C2ACB" stroke-linecap="round" stroke-linejoin="round"/>
<path d="M82.4785 141.736H179.403" stroke="#0C2ACB" stroke-linecap="round" stroke-linejoin="round"/>
<path d="M82.4785 155.578H179.403" stroke="#0C2ACB" stroke-linecap="round" stroke-linejoin="round"/>
<path d="M82.4785 189.42H179.403" stroke="#0C2ACB" stroke-linecap="round" stroke-linejoin="round"/>
<path d="M82.4785 201.73H179.403" stroke="#0C2ACB" stroke-linecap="round" stroke-linejoin="round"/>
<path d="M82.4785 214.039H179.403" stroke="#0C2ACB" stroke-linecap="round" stroke-linejoin="round"/>
<path d="M82.4785 239.58H179.403" stroke="#0C2ACB" stroke-linecap="round" stroke-linejoin="round"/>
<path d="M17.8633 240.168L67.1044 110.961" stroke="#0C2ACB" stroke-linecap="round" stroke-linejoin="round"/>
</svg>
