<svg width="551" height="523" viewBox="0 0 551 523" fill="none" xmlns="http://www.w3.org/2000/svg">
<path d="M193.412 418.178C199.815 419.445 199.506 429.969 199.242 430.035C198.845 431.082 198.426 432.129 197.974 433.165C198.062 431.655 196.2 428.47 192.332 425.451C188.464 422.431 187.34 416.756 193.412 418.178Z" fill="white"/>
<path d="M211.718 422.718C217.944 424.184 212.963 431.468 207.805 431.391C202.747 431.501 199.177 432.25 198.053 433.242C198.582 432.239 199.067 431.225 199.54 430.2C199.717 430.333 205.756 421.506 211.718 422.718Z" fill="white"/>
<path d="M194.912 408.612C201.436 408.799 202.924 419.125 202.626 419.213C202.417 420.315 202.185 421.417 201.921 422.464C201.745 420.987 199.364 418.188 195.033 415.852C190.703 413.516 188.697 408.226 194.912 408.612Z" fill="white"/>
<path d="M237.305 423.103C243.465 427.743 234.429 433.352 228.776 430.817C223.156 428.47 218.858 427.567 217.139 428.118C218.241 427.269 219.232 426.387 220.246 425.484C220.401 425.715 231.31 418.927 237.305 423.103Z" fill="white"/>
<path d="M478.797 275.381C480.928 275.426 483.029 274.881 484.869 273.805C486.709 272.729 488.216 271.166 489.222 269.287C493.156 262.609 496.693 251.203 496.693 251.203H472.306C472.306 251.203 466.014 263.788 467.986 269.287C469.959 274.786 478.797 275.381 478.797 275.381Z" fill="#0C2ACB"/>
<path d="M479.247 275.954C478.983 275.954 478.807 275.954 478.751 275.954C478.3 275.954 469.517 275.249 467.467 269.496C465.417 263.744 471.555 251.5 471.82 250.971C471.864 250.881 471.933 250.805 472.019 250.752C472.105 250.699 472.204 250.672 472.305 250.674H496.692C496.778 250.672 496.863 250.691 496.94 250.73C497.016 250.768 497.083 250.825 497.133 250.894C497.184 250.963 497.219 251.042 497.234 251.126C497.249 251.211 497.245 251.297 497.221 251.379C497.221 251.5 493.617 262.928 489.694 269.595C488.673 271.486 487.167 273.071 485.331 274.189C483.496 275.306 481.396 275.915 479.247 275.954ZM472.635 251.71C471.699 253.649 466.784 264.306 468.481 269.055C470.299 274.158 478.729 274.786 478.807 274.786C480.837 274.833 482.841 274.314 484.592 273.286C486.344 272.258 487.775 270.763 488.725 268.967C492.031 263.369 495.072 254.3 495.921 251.71H472.635Z" fill="#0C2ACB"/>
<path d="M480.978 152.993C480.978 152.993 497.861 150.634 497.321 175.694C496.781 200.753 475.821 254.884 473.86 263.942C471.887 273.221 478.763 275.381 478.763 275.381H422.143C422.143 275.381 418.33 208.919 427.047 187.133C435.763 165.346 457.55 154.8 480.978 152.993Z" fill="#CCDFFB"/>
<path d="M478.796 275.931H422.142C422.002 275.931 421.866 275.878 421.764 275.782C421.661 275.685 421.6 275.554 421.591 275.413C421.591 274.752 417.866 208.577 426.528 186.923C434.474 167.087 454.299 154.502 480.923 152.441C482.846 152.266 484.785 152.485 486.62 153.084C488.456 153.683 490.151 154.649 491.601 155.923C496.009 159.802 498.07 166.459 497.872 175.704C497.475 194.031 486.168 227.95 479.413 248.216C476.923 255.709 474.95 261.627 474.432 264.052C472.592 272.713 478.697 274.774 478.961 274.851C479.088 274.892 479.195 274.977 479.264 275.09C479.333 275.203 479.358 275.338 479.336 275.468C479.317 275.598 479.252 275.716 479.153 275.801C479.054 275.886 478.927 275.933 478.796 275.931ZM422.66 274.829H476.658C474.653 273.364 472.008 270.146 473.352 263.809C473.881 261.308 475.766 255.665 478.366 247.852C485.1 227.642 496.373 193.854 496.77 175.66C496.957 166.756 494.984 160.398 490.885 156.739C489.543 155.575 487.983 154.69 486.295 154.136C484.607 153.581 482.826 153.369 481.055 153.51C454.861 155.538 435.366 167.836 427.586 187.308C419.387 207.75 422.33 268.559 422.66 274.829Z" fill="#0C2ACB"/>
<path d="M480.979 152.992C465.705 154.171 451.126 159.064 440.414 168.364H496.903C494.324 151.14 480.979 152.992 480.979 152.992Z" fill="#0C2ACB"/>
<path d="M496.901 168.917H440.413C440.301 168.918 440.191 168.884 440.099 168.821C440.006 168.758 439.935 168.669 439.895 168.564C439.855 168.458 439.849 168.342 439.876 168.232C439.904 168.121 439.964 168.022 440.049 167.947C450.265 159.131 464.392 153.72 480.922 152.442C481.55 152.365 494.874 151.053 497.452 168.289C497.464 168.367 497.458 168.448 497.435 168.524C497.413 168.6 497.373 168.67 497.32 168.729C497.269 168.79 497.204 168.838 497.132 168.871C497.059 168.903 496.981 168.919 496.901 168.917ZM441.922 167.815H496.251C493.573 151.99 481.572 153.489 481.054 153.489C465.34 154.745 451.818 159.682 441.9 167.815H441.922Z" fill="#0C2ACB"/>
<path d="M480.977 152.992H307.368C307.368 152.992 283.895 158.998 276.799 187.926C269.702 216.853 276.799 304.738 276.248 338.062C275.697 371.387 254.957 409.031 238.581 425.958C222.206 442.884 180.175 459.8 167.612 464.164C155.05 468.528 121.549 472.308 121.549 472.308H351.591C367.1 471.757 382.332 468.045 396.355 461.398C418.736 450.477 435.762 430.322 441.669 386.605C445.283 359.893 432.93 270.322 432.93 242.475C432.93 214.627 431.828 190.063 446.584 170.955C459.852 153.83 480.977 152.992 480.977 152.992Z" fill="white"/>
<path d="M351.593 472.902H121.55C121.409 472.905 121.272 472.852 121.169 472.755C121.066 472.659 121.005 472.525 120.999 472.384C120.99 472.244 121.035 472.106 121.126 471.999C121.216 471.892 121.345 471.825 121.484 471.811C121.815 471.811 155.073 467.943 167.426 463.645C180.65 459.039 222.152 442.145 238.186 425.571C253.427 409.823 275.136 372.256 275.654 338.05C275.83 327.449 275.246 311.602 274.552 293.298C273.13 255.113 271.356 207.584 276.205 187.792C283.302 158.876 306.94 152.528 307.182 152.451H480.979C481.123 152.451 481.261 152.508 481.364 152.609C481.467 152.71 481.527 152.847 481.53 152.991C481.53 153.135 481.475 153.273 481.377 153.377C481.278 153.482 481.144 153.545 481.001 153.553C480.791 153.553 459.974 154.589 447.015 171.35C433.35 189.038 433.405 211.298 433.471 237.063C433.471 238.87 433.471 240.688 433.471 242.573C433.471 253.593 435.433 274.531 437.505 296.714C440.734 331.317 444.392 370.548 442.199 386.769C436.899 425.99 422.837 449.187 396.587 461.992C382.479 468.629 367.174 472.34 351.593 472.902ZM130.333 471.8H351.593C367.014 471.227 382.159 467.535 396.114 460.945C422 448.316 435.874 425.384 441.119 386.571C443.323 370.471 439.643 331.306 436.414 296.758C434.342 274.531 432.38 253.538 432.38 242.518C432.38 240.688 432.38 238.859 432.38 237.008C432.314 211.045 432.259 188.608 446.155 170.623C454.674 159.603 466.509 155.195 473.948 153.498H307.458C306.102 153.873 284.095 160.485 277.34 188.013C272.524 207.65 274.298 255.091 275.72 293.21C276.403 311.558 276.987 327.372 276.822 338.017C276.26 372.532 254.363 410.418 239.001 426.287C222.813 443.016 181.135 460.008 167.812 464.648C159.316 467.634 141.188 470.356 130.333 471.8Z" fill="#0C2ACB"/>
<path d="M285.506 412.051C287.326 412.118 289.11 412.573 290.739 413.387C292.368 414.2 293.804 415.353 294.95 416.767C298.488 421.484 298.884 432.89 298.884 432.89H248.545C248.545 432.89 269.78 412.051 285.506 412.051Z" fill="#0C2ACB"/>
<path d="M298.873 433.441H248.544C248.434 433.442 248.325 433.411 248.233 433.35C248.14 433.289 248.068 433.202 248.026 433.099C247.986 432.996 247.978 432.884 248.001 432.776C248.025 432.668 248.079 432.57 248.159 432.493C249.029 431.634 269.736 411.5 285.505 411.5C287.417 411.557 289.294 412.027 291.006 412.88C292.719 413.732 294.226 414.946 295.423 416.437C299.016 421.242 299.446 432.394 299.457 432.868C299.462 432.943 299.451 433.018 299.424 433.089C299.398 433.159 299.356 433.223 299.302 433.275C299.246 433.332 299.179 433.376 299.105 433.404C299.031 433.433 298.952 433.445 298.873 433.441ZM249.922 432.339H298.3C298.167 429.992 297.451 421.032 294.509 417.098C293.413 415.753 292.044 414.656 290.491 413.88C288.939 413.105 287.239 412.669 285.505 412.602C272.094 412.602 254.297 428.283 249.922 432.339Z" fill="#0C2ACB"/>
<path d="M296.128 472.22C296.128 472.22 268.754 468.825 263.068 449.011C258.351 432.481 266.605 421.88 274.088 417.164C281.57 412.447 285.493 412.05 285.493 412.05C285.493 412.05 219.428 416.767 176.561 415.973C133.693 415.18 110.948 404.953 99.1451 415.973C87.3427 426.993 90.0977 444.295 97.1836 457.662C104.269 471.029 121.549 472.308 121.549 472.308L296.128 472.22Z" fill="white"/>
<path d="M121.55 472.903C121.329 472.903 103.84 471.405 96.7106 457.927C93.3495 451.58 83.5747 429.771 98.7823 415.577C106.353 408.513 118.343 409.968 136.493 412.194C149.788 413.997 163.171 415.075 176.584 415.423C218.933 416.216 284.811 411.544 285.472 411.5C285.543 411.494 285.615 411.502 285.682 411.524C285.75 411.545 285.813 411.58 285.867 411.626C285.922 411.672 285.966 411.729 285.999 411.792C286.031 411.856 286.051 411.925 286.056 411.996C286.066 412.14 286.019 412.282 285.927 412.392C285.835 412.503 285.704 412.574 285.56 412.591C285.56 412.591 281.637 413.054 274.397 417.627C270.485 420.095 258.132 429.661 263.619 448.858C269.107 468.054 295.919 471.636 296.195 471.669C296.341 471.678 296.477 471.744 296.575 471.854C296.672 471.963 296.721 472.107 296.713 472.253C296.704 472.399 296.637 472.536 296.528 472.633C296.418 472.73 296.275 472.78 296.128 472.771L121.55 472.903ZM115.764 411.467C108.811 411.467 103.477 412.701 99.5317 416.382C84.8971 430.046 94.4074 451.238 97.6803 457.409C104.535 470.347 121.417 471.735 121.583 471.812L290.729 471.669C282.365 469.531 266.694 463.646 262.562 449.166C256.864 429.22 269.725 419.269 273.813 416.69C276.065 415.242 278.431 413.978 280.888 412.91C265.063 413.957 212.41 417.197 176.561 416.525C163.112 416.174 149.692 415.093 136.361 413.285C129.535 412.292 122.658 411.685 115.764 411.467Z" fill="#0C2ACB"/>
<path d="M351.537 129.894L358.226 98.3984H362.458L369.191 129.894H365.026L363.582 121.959H357.168L355.659 129.894H351.537ZM357.752 118.818H363.009L360.353 104.625L357.752 118.818Z" fill="#0C2ACB"/>
<path d="M312.482 187.991L322.478 131.789L336.44 134.269C339.284 134.637 341.971 135.781 344.209 137.575C346.017 139.164 347.239 141.314 347.68 143.68C348.197 146.543 348.163 149.479 347.581 152.33C347.175 154.998 346.173 157.541 344.65 159.769C343.291 161.709 341.367 163.183 339.14 163.99C336.572 164.833 333.826 164.977 331.183 164.408L325.001 163.306L320.351 189.512L312.482 187.991ZM325.982 157.543L329.596 158.193C331.407 158.586 333.274 158.646 335.106 158.369C335.78 158.252 336.422 157.995 336.992 157.615C337.561 157.236 338.045 156.742 338.412 156.165C339.35 154.557 339.957 152.777 340.198 150.931C340.631 148.863 340.801 146.749 340.705 144.638C340.669 143.956 340.475 143.291 340.139 142.696C339.802 142.101 339.332 141.593 338.765 141.211C337.008 140.226 335.077 139.589 333.079 139.338L329.398 138.688L325.982 157.543Z" fill="#0C2ACB"/>
<path d="M392.191 248.304L384.73 208.191L392.158 206.803L393.26 212.5C393.915 210.317 395.104 208.332 396.72 206.726C397.919 205.681 399.37 204.967 400.93 204.654L401.448 204.555C401.602 204.555 401.834 204.555 402.12 204.555L403.641 212.743C402.976 212.613 402.301 212.536 401.624 212.511C400.886 212.492 400.147 212.547 399.42 212.676C398.315 212.873 397.279 213.351 396.412 214.065C395.388 215.068 394.631 216.31 394.208 217.68L399.663 246.96L392.191 248.304Z" fill="#0C2ACB"/>
<path d="M390.108 343.02C387.287 343.659 384.342 343.46 381.633 342.447C379.215 341.449 377.142 339.763 375.671 337.598C374.001 335.114 372.806 332.341 372.145 329.421L378.757 326.259C379.251 328.179 379.922 330.05 380.763 331.846C381.478 333.464 382.593 334.875 384.003 335.945C384.723 336.436 385.539 336.77 386.397 336.926C387.255 337.082 388.136 337.055 388.984 336.849C389.84 336.752 390.666 336.473 391.407 336.033C392.148 335.592 392.787 334.999 393.281 334.292C394.147 332.707 394.379 330.852 393.932 329.102C393.632 326.901 392.622 324.857 391.055 323.283C389.439 321.823 387.682 320.528 385.81 319.415L374.79 312.803C372.794 311.662 371.062 310.111 369.71 308.252C368.349 306.178 367.447 303.837 367.065 301.386C366.33 297.265 366.914 293.852 368.817 291.149C370.72 288.445 373.725 286.711 377.831 285.947C379.815 285.546 381.851 285.471 383.859 285.727C385.566 285.956 387.19 286.603 388.587 287.611C390.038 288.701 391.25 290.078 392.146 291.656C393.258 293.594 394.113 295.669 394.692 297.827L388.366 300.868C387.927 299.167 387.329 297.511 386.581 295.921C385.962 294.564 384.963 293.415 383.705 292.615C382.252 291.83 380.557 291.618 378.955 292.019C377.265 292.229 375.727 293.101 374.68 294.444C374.219 295.166 373.913 295.975 373.781 296.821C373.648 297.666 373.691 298.531 373.908 299.359C374.126 300.83 374.692 302.229 375.561 303.436C376.532 304.591 377.7 305.565 379.01 306.312L390.03 312.869C392.577 314.381 394.886 316.26 396.885 318.445C399.063 320.882 400.497 323.892 401.017 327.118C401.551 329.614 401.415 332.208 400.621 334.634C399.878 336.808 398.524 338.721 396.72 340.144C394.784 341.628 392.513 342.616 390.108 343.02Z" fill="#0C2ACB"/>
<path d="M412.236 342.272C413.071 342.752 413.681 343.545 413.933 344.476C414.011 344.783 414.022 345.103 413.965 345.415C413.908 345.727 413.784 346.023 413.602 346.283C413.263 346.746 412.757 347.058 412.192 347.153C411.931 347.212 411.662 347.219 411.399 347.174C411.136 347.128 410.885 347.032 410.66 346.889C410.446 346.759 410.262 346.584 410.122 346.377C409.981 346.17 409.886 345.935 409.844 345.688C409.771 345.228 409.82 344.756 409.988 344.321C410.114 344.013 410.185 343.685 410.197 343.352C410.158 343.205 410.082 343.071 409.976 342.962C409.87 342.854 409.737 342.776 409.591 342.734C409.078 342.598 408.539 342.598 408.026 342.734C405.557 343.197 403.673 345.005 402.373 348.156C401.086 351.101 400.703 354.361 401.271 357.523C401.448 358.986 402.103 360.349 403.133 361.402C403.615 361.83 404.195 362.133 404.821 362.284C405.447 362.436 406.101 362.432 406.726 362.273C407.965 362.041 409.112 361.46 410.032 360.598C411.047 359.669 411.919 358.596 412.621 357.413L412.743 357.193L413.514 357.578C412.837 358.93 411.985 360.186 410.979 361.314C409.517 362.887 407.583 363.943 405.469 364.323C404.535 364.532 403.567 364.54 402.628 364.349C401.69 364.157 400.803 363.769 400.025 363.21C399.232 362.606 398.565 361.851 398.064 360.988C397.563 360.126 397.237 359.173 397.105 358.184C396.803 356.368 396.867 354.509 397.293 352.717C397.719 350.925 398.498 349.236 399.585 347.749C401.855 344.31 404.624 342.283 407.894 341.666C408.621 341.471 409.38 341.425 410.126 341.529C410.872 341.633 411.589 341.885 412.236 342.272Z" fill="#0C2ACB"/>
<path d="M375.22 110.51C377.441 109.267 379.772 108.234 382.185 107.424V105.805C382.245 104.888 382.114 103.968 381.799 103.105C381.524 102.658 381.126 102.301 380.653 102.076C380.18 101.851 379.652 101.768 379.132 101.837C378.482 101.837 377.844 102.008 377.281 102.333C377.021 102.463 376.802 102.663 376.648 102.91C376.494 103.157 376.412 103.442 376.41 103.733C376.423 103.992 376.456 104.25 376.509 104.504C376.509 104.868 376.597 105.099 376.597 105.198C376.628 105.485 376.579 105.773 376.456 106.034C376.334 106.294 376.143 106.516 375.903 106.675C375.618 106.848 375.289 106.935 374.955 106.929C374.708 106.945 374.46 106.902 374.233 106.804C374.005 106.707 373.803 106.557 373.644 106.367C373.346 106.02 373.182 105.578 373.181 105.121C373.245 104.569 373.424 104.037 373.707 103.558C373.99 103.08 374.37 102.666 374.823 102.344C376.202 101.301 377.915 100.799 379.639 100.934C382.1 100.934 383.764 101.731 384.631 103.325C385.168 104.521 385.41 105.829 385.336 107.138V114.753C385.306 115.265 385.358 115.778 385.491 116.274C385.549 116.497 385.683 116.692 385.87 116.827C386.057 116.962 386.285 117.027 386.515 117.012C386.761 117.02 387.005 116.975 387.232 116.88C387.578 116.688 387.909 116.47 388.224 116.229V117.221C387.848 117.687 387.406 118.096 386.912 118.433C386.271 118.9 385.501 119.154 384.708 119.161C384.352 119.192 383.994 119.131 383.668 118.984C383.342 118.838 383.059 118.61 382.846 118.323C382.451 117.731 382.23 117.04 382.207 116.329C381.439 117.02 380.613 117.643 379.738 118.191C378.75 118.827 377.607 119.181 376.432 119.216C375.379 119.238 374.361 118.842 373.6 118.114C373.209 117.737 372.902 117.282 372.697 116.779C372.492 116.276 372.394 115.736 372.41 115.194C372.421 114.234 372.687 113.294 373.181 112.471C373.674 111.648 374.378 110.971 375.22 110.51ZM382.185 108.372C380.927 108.764 379.719 109.296 378.581 109.959C376.752 111.098 375.837 112.376 375.837 113.794C375.794 114.277 375.873 114.762 376.065 115.207C376.258 115.651 376.558 116.041 376.939 116.34C377.42 116.687 377.999 116.873 378.592 116.869C379.442 116.864 380.273 116.624 380.994 116.174C381.32 116.001 381.593 115.744 381.787 115.431C381.98 115.117 382.087 114.758 382.096 114.389L382.185 108.372Z" fill="#0C2ACB"/>
<path d="M354.337 239.136C356.558 237.89 358.889 236.853 361.301 236.039V234.43C361.365 233.514 361.238 232.594 360.927 231.73C360.653 231.28 360.254 230.919 359.778 230.692C359.303 230.465 358.771 230.382 358.249 230.452C357.602 230.452 356.967 230.623 356.409 230.948C356.146 231.078 355.925 231.279 355.771 231.528C355.617 231.778 355.536 232.065 355.538 232.358C355.546 232.617 355.575 232.875 355.626 233.13C355.675 233.355 355.708 233.583 355.725 233.813C355.758 234.102 355.709 234.394 355.584 234.657C355.46 234.92 355.264 235.143 355.02 235.301C354.733 235.469 354.405 235.553 354.072 235.543C353.825 235.557 353.578 235.514 353.35 235.417C353.123 235.319 352.921 235.17 352.761 234.981C352.47 234.636 352.31 234.199 352.309 233.747C352.37 233.192 352.547 232.657 352.83 232.176C353.113 231.695 353.495 231.28 353.951 230.959C355.319 229.899 357.03 229.381 358.756 229.504C361.213 229.504 362.877 230.309 363.759 231.895C364.286 233.098 364.524 234.408 364.453 235.719V243.334C364.429 243.842 364.481 244.351 364.607 244.844C364.664 245.069 364.797 245.267 364.984 245.404C365.172 245.541 365.401 245.608 365.632 245.593C365.883 245.602 366.132 245.553 366.36 245.45C366.704 245.265 367.032 245.051 367.34 244.811V245.803C366.962 246.266 366.52 246.674 366.029 247.015C365.385 247.474 364.616 247.724 363.825 247.731C363.467 247.763 363.107 247.703 362.779 247.556C362.451 247.41 362.167 247.182 361.952 246.894C361.556 246.306 361.334 245.618 361.312 244.91C360.548 245.601 359.721 246.221 358.844 246.761C357.857 247.399 356.713 247.754 355.538 247.786C355.018 247.799 354.501 247.709 354.016 247.519C353.532 247.33 353.09 247.046 352.717 246.684C352.322 246.312 352.01 245.861 351.803 245.359C351.596 244.857 351.498 244.317 351.516 243.775C351.535 242.822 351.807 241.891 352.302 241.076C352.798 240.261 353.499 239.592 354.337 239.136ZM361.301 236.987C360.044 237.381 358.835 237.917 357.698 238.585C355.88 239.687 354.965 240.987 354.965 242.42C354.924 242.902 355.003 243.387 355.196 243.831C355.388 244.275 355.687 244.665 356.067 244.965C356.548 245.313 357.127 245.498 357.72 245.494C358.572 245.492 359.405 245.248 360.122 244.789C360.451 244.619 360.726 244.363 360.921 244.049C361.115 243.734 361.22 243.373 361.224 243.004L361.301 236.987Z" fill="#0C2ACB"/>
<path d="M333.233 91.0708C333.655 91.4883 333.976 91.9973 334.17 92.5585L334.291 92.9222L334.875 90.9827C334.918 90.8298 334.977 90.682 335.051 90.5419C335.051 90.4647 335.228 90.4206 335.426 90.3986L338.379 90.068C338.534 90.068 338.622 90.068 338.644 90.1562C338.677 90.2601 338.677 90.3718 338.644 90.4757C338.578 90.7072 338.523 90.8725 338.479 91.0047C338.435 91.1369 338.39 91.3133 338.313 91.5557L335.779 100.735C335.228 102.73 334.754 104.46 334.368 105.915C333.966 107.394 333.65 108.895 333.42 110.411C333.412 110.507 333.426 110.603 333.461 110.693C333.495 110.782 333.549 110.863 333.619 110.929C333.751 111.041 333.92 111.1 334.093 111.094C334.273 111.09 334.448 111.036 334.6 110.94C334.843 110.804 335.075 110.649 335.294 110.477L335.746 110.124L336.242 109.706L336.881 109.1L338.556 107.458L339.173 107.998C337.887 109.705 336.407 111.258 334.765 112.626C333.864 113.352 332.758 113.776 331.602 113.838C331.318 113.854 331.034 113.802 330.774 113.687C330.513 113.572 330.283 113.397 330.103 113.177C329.74 112.7 329.553 112.112 329.574 111.513C329.606 110.623 329.72 109.737 329.916 108.868C330.148 107.766 330.379 106.752 330.599 105.959C330.291 106.473 329.773 107.208 329.046 108.163C328.265 109.213 327.37 110.174 326.379 111.028C325.325 112.014 324.11 112.812 322.786 113.386C321.966 113.684 321.102 113.841 320.229 113.849C319.518 113.836 318.817 113.677 318.169 113.383C317.521 113.09 316.94 112.667 316.461 112.141C315.872 111.487 315.42 110.723 315.13 109.892C314.841 109.061 314.72 108.181 314.775 107.303C314.775 103.711 316.398 99.964 319.645 96.0629C323.003 92.0075 326.478 89.9798 330.07 89.9798C331.227 89.9137 332.363 90.3057 333.233 91.0708ZM332.396 92.0406C332.129 91.7602 331.807 91.5381 331.451 91.3883C331.094 91.2384 330.711 91.1641 330.324 91.17C327.51 91.17 324.895 93.3116 322.478 97.5947C320.351 101.352 319.293 104.603 319.293 107.325C319.194 108.397 319.51 109.466 320.174 110.312C320.452 110.618 320.793 110.861 321.173 111.022C321.554 111.184 321.965 111.261 322.378 111.248C324.957 111.248 327.44 109.169 329.828 105.011C332.135 101.228 333.285 97.8114 333.277 94.7625C333.353 93.7746 333.036 92.7967 332.396 92.0406Z" fill="#0C2ACB"/>
<path d="M381.171 247.399C381.593 247.816 381.913 248.325 382.107 248.887L382.229 249.25L382.813 247.311C382.855 247.158 382.914 247.01 382.989 246.87C382.989 246.793 383.165 246.749 383.364 246.727L386.317 246.396C386.471 246.396 386.559 246.396 386.581 246.484C386.615 246.592 386.615 246.707 386.581 246.815C386.515 247.035 386.46 247.212 386.416 247.333C386.372 247.454 386.328 247.641 386.251 247.884L383.716 257.064C383.165 259.058 382.691 260.788 382.306 262.243C381.904 263.722 381.587 265.223 381.358 266.739C381.35 266.835 381.364 266.931 381.398 267.021C381.432 267.11 381.486 267.191 381.556 267.257C381.688 267.369 381.857 267.428 382.03 267.422C382.21 267.418 382.385 267.365 382.537 267.268C382.778 267.132 383.01 266.982 383.231 266.816L383.683 266.453L384.179 266.034L384.818 265.428L386.493 263.786L387.11 264.326C385.824 266.033 384.345 267.586 382.702 268.954C381.806 269.688 380.697 270.113 379.54 270.166C379.255 270.182 378.972 270.13 378.711 270.015C378.451 269.9 378.221 269.726 378.041 269.505C377.676 269.029 377.488 268.441 377.512 267.841C377.543 266.951 377.658 266.065 377.854 265.196C378.085 264.039 378.316 263.08 378.537 262.287C378.228 262.801 377.71 263.536 376.983 264.491C376.202 265.541 375.308 266.502 374.316 267.356C373.262 268.342 372.047 269.14 370.724 269.715C369.904 270.012 369.039 270.169 368.167 270.177C367.456 270.164 366.755 270.005 366.107 269.712C365.459 269.418 364.877 268.995 364.398 268.469C363.809 267.816 363.357 267.051 363.068 266.22C362.778 265.39 362.657 264.509 362.712 263.631C362.712 260.039 364.336 256.292 367.583 252.391C370.948 248.394 374.415 246.396 377.986 246.396C379.138 246.3 380.282 246.66 381.171 247.399ZM380.333 248.38C380.068 248.096 379.747 247.871 379.391 247.72C379.034 247.568 378.649 247.492 378.261 247.498C375.448 247.498 372.832 249.64 370.415 253.923C368.292 257.692 367.23 260.935 367.23 263.654C367.132 264.725 367.447 265.794 368.112 266.64C368.39 266.946 368.73 267.189 369.111 267.351C369.491 267.512 369.903 267.589 370.316 267.577C372.895 267.577 375.378 265.498 377.765 261.339C380.072 257.556 381.222 254.14 381.215 251.091C381.292 250.106 380.975 249.131 380.333 248.38Z" fill="#0C2ACB"/>
<path d="M348.44 172.078C349.495 173.463 350.05 175.164 350.016 176.905C350.016 180.133 348.583 183.285 345.751 186.393C342.919 189.5 339.679 191.219 336.351 191.219C335.433 191.264 334.515 191.127 333.651 190.815C332.786 190.502 331.992 190.022 331.315 189.401C330.659 188.724 330.152 187.918 329.826 187.033C329.499 186.149 329.361 185.207 329.419 184.266C329.419 180.938 330.834 177.753 333.662 174.712C336.49 171.67 339.613 170.113 343.029 170.039C345.586 170.039 347.382 170.722 348.44 172.078ZM334.312 188.96C334.642 189.372 335.064 189.698 335.546 189.913C336.027 190.128 336.552 190.224 337.078 190.195C339.558 190.195 341.762 188.332 343.69 184.585C345.186 181.879 346.024 178.859 346.137 175.769C346.167 174.83 346.025 173.892 345.718 173.003C345.518 172.397 345.123 171.874 344.595 171.516C344.067 171.157 343.435 170.983 342.798 171.02C340.483 171.02 338.29 172.761 336.263 176.243C334.455 179.124 333.461 182.441 333.387 185.842C333.344 186.955 333.669 188.051 334.312 188.96Z" fill="#0C2ACB"/>
<path d="M365.444 349.202C365.502 349.008 365.539 348.809 365.554 348.607C365.554 348.409 365.554 348.254 365.554 348.133C365.583 347.926 365.535 347.715 365.419 347.54C365.303 347.366 365.128 347.24 364.926 347.185C364.111 347.042 363.283 346.994 362.457 347.042V346.282L364.827 345.962C365.719 345.841 366.303 345.764 366.579 345.709C367.438 345.565 368.474 345.334 369.698 345.025C369.766 345.034 369.831 345.059 369.887 345.1C369.943 345.14 369.988 345.194 370.017 345.257L362.435 372.664C362.259 373.325 362.16 373.71 362.138 373.854C362.103 373.987 362.085 374.124 362.083 374.261C362.075 374.518 362.132 374.772 362.248 375C362.305 375.105 362.392 375.191 362.498 375.246C362.604 375.301 362.724 375.323 362.843 375.308C363.383 375.308 364.099 374.823 364.981 373.854C365.786 372.966 366.523 372.02 367.185 371.022L367.802 371.462C366.886 372.877 365.862 374.218 364.739 375.474C364.258 376.026 363.673 376.477 363.016 376.801C362.36 377.124 361.645 377.314 360.915 377.358C360.4 377.368 359.894 377.227 359.46 376.95C359.119 376.726 358.846 376.412 358.673 376.042C358.5 375.673 358.433 375.262 358.479 374.857C358.492 374.342 358.551 373.829 358.655 373.325C358.744 372.95 358.843 372.509 358.975 372.002L365.444 349.202Z" fill="#0C2ACB"/>
<path d="M359.416 166.348C364.926 160.566 370.623 157.671 376.508 157.664C378.357 157.565 380.186 158.093 381.698 159.163C382.341 159.696 382.85 160.372 383.183 161.138C383.516 161.904 383.664 162.737 383.616 163.571C383.616 167.582 381.268 171.013 376.574 173.863C372.069 176.671 367.015 178.483 361.752 179.175L359.372 179.462C359.072 180.362 358.822 181.278 358.622 182.206C358.466 183.052 358.396 183.912 358.413 184.773C358.352 185.848 358.537 186.923 358.954 187.915C359.37 188.908 360.006 189.793 360.815 190.504C362.402 191.865 364.434 192.595 366.524 192.553C368.875 192.456 371.157 191.733 373.136 190.46C375.166 189.139 377.106 187.685 378.943 186.107L380.045 187.076C378.482 188.948 376.664 190.591 374.645 191.958C371.063 194.743 366.684 196.31 362.149 196.432C359.244 196.455 356.448 195.33 354.369 193.303C352.165 191.216 351.063 188.222 351.063 184.321C351.055 178.135 353.84 172.144 359.416 166.348ZM372.959 171.946C376.302 169.007 377.973 166.069 377.973 163.13C378.019 162.228 377.755 161.337 377.224 160.606C376.955 160.29 376.615 160.04 376.233 159.878C375.85 159.715 375.435 159.644 375.02 159.67C373.015 159.747 371.112 160.573 369.686 161.984C367.927 163.547 366.348 165.303 364.981 167.218C363.616 169.289 362.443 171.48 361.476 173.764C361.003 174.866 360.496 176.145 359.967 177.555C364.757 177.011 369.278 175.059 372.959 171.946Z" fill="#0C2ACB"/>
<path d="M404.753 137.663C405.74 136.606 406.913 135.739 408.214 135.106C407.926 134.928 407.663 134.713 407.431 134.467C407.225 134.221 407.119 133.906 407.134 133.585C407.188 133.229 407.314 132.887 407.503 132.581C407.693 132.274 407.942 132.008 408.236 131.8C408.857 131.254 409.516 130.754 410.208 130.301C409.433 130.019 408.724 129.58 408.125 129.012C407.758 128.624 407.472 128.167 407.283 127.668C407.094 127.168 407.005 126.636 407.023 126.103C407.007 125.194 407.196 124.294 407.578 123.469C407.96 122.644 408.524 121.917 409.227 121.342C410.775 120.065 412.732 119.392 414.737 119.447C415.742 119.416 416.741 119.6 417.669 119.987C418.205 120.163 418.687 120.474 419.068 120.89H421.636V122.411H419.696C419.774 122.697 419.829 122.94 419.873 123.171C419.913 123.493 419.932 123.817 419.928 124.141C419.962 125.083 419.762 126.018 419.344 126.862C418.927 127.707 418.305 128.434 417.537 128.979C416.064 130.112 414.26 130.732 412.401 130.742C412.225 130.754 412.048 130.754 411.872 130.742L411.266 130.643C411.079 130.643 410.814 130.819 410.495 131.194C410.203 131.443 410.018 131.794 409.977 132.175C409.977 132.604 411.365 133.343 414.153 134.379C416.941 135.415 418.308 136.968 418.308 138.996C418.291 139.776 418.094 140.542 417.732 141.234C417.371 141.926 416.855 142.525 416.225 142.985C414.826 144.087 412.732 144.704 409.922 144.704C408.283 144.79 406.658 144.354 405.282 143.459C404.768 143.128 404.343 142.675 404.045 142.141C403.747 141.607 403.585 141.007 403.574 140.396C403.607 139.368 404.028 138.391 404.753 137.663ZM414.506 142.754C414.949 142.481 415.316 142.103 415.576 141.653C415.836 141.203 415.979 140.695 415.994 140.175C416.003 139.82 415.939 139.466 415.807 139.137C415.674 138.807 415.475 138.508 415.222 138.258C414.815 137.897 414.359 137.597 413.867 137.365C413.349 137.112 412.478 136.748 411.244 136.263C410.555 135.96 409.839 135.72 409.106 135.547C408.776 135.547 408.136 135.988 407.189 136.869C406.752 137.236 406.399 137.693 406.154 138.208C405.909 138.723 405.777 139.285 405.767 139.856C405.716 140.595 405.902 141.331 406.299 141.958C406.695 142.584 407.281 143.068 407.971 143.338C408.867 143.684 409.822 143.848 410.781 143.823C412.099 143.891 413.405 143.536 414.506 142.809V142.754ZM410.451 128.78C410.667 129.163 410.992 129.472 411.384 129.668C411.777 129.865 412.219 129.939 412.655 129.882C413.757 129.882 414.859 129.166 415.707 127.679C416.597 126.239 417.06 124.577 417.041 122.885C417.085 122.187 416.891 121.495 416.49 120.923C416.292 120.68 416.039 120.488 415.751 120.363C415.463 120.238 415.149 120.185 414.837 120.207C414.112 120.228 413.407 120.45 412.802 120.849C412.197 121.248 411.714 121.808 411.409 122.466C410.603 123.778 410.155 125.279 410.109 126.819C410.059 127.491 410.176 128.165 410.451 128.78Z" fill="#0C2ACB"/>
<path d="M342.887 302.666C344.567 300.882 346.557 299.418 348.761 298.346C348.272 298.039 347.828 297.669 347.438 297.244C347.08 296.829 346.894 296.293 346.92 295.745C347.012 295.145 347.222 294.569 347.538 294.051C347.854 293.533 348.27 293.082 348.761 292.726C349.8 291.799 350.905 290.948 352.067 290.18C350.752 289.689 349.549 288.939 348.529 287.976C347.302 286.636 346.656 284.865 346.733 283.05C346.707 281.504 347.035 279.972 347.692 278.572C348.349 277.172 349.318 275.94 350.524 274.972C353.159 272.795 356.496 271.651 359.913 271.754C361.613 271.705 363.304 272.02 364.872 272.68C365.78 272.979 366.599 273.502 367.252 274.201H371.594V276.791H368.288C368.409 277.215 368.508 277.645 368.586 278.08C368.652 278.625 368.682 279.173 368.674 279.722C368.731 281.314 368.392 282.895 367.689 284.324C366.985 285.753 365.937 286.985 364.64 287.91C362.146 289.836 359.086 290.885 355.935 290.896C355.637 290.914 355.339 290.914 355.042 290.896C354.755 290.896 354.414 290.808 354.006 290.72C353.598 290.632 353.246 291.028 352.695 291.657C352.207 292.083 351.897 292.677 351.824 293.321C351.824 294.059 354.182 295.293 358.899 297.056C363.616 298.82 365.941 301.464 365.941 304.87C365.914 306.196 365.581 307.497 364.967 308.673C364.353 309.849 363.476 310.867 362.403 311.647C360.045 313.586 356.486 314.556 351.725 314.556C348.949 314.708 346.198 313.962 343.879 312.429C343.005 311.873 342.283 311.109 341.777 310.205C341.271 309.301 340.997 308.286 340.98 307.25C341.033 305.54 341.712 303.909 342.887 302.666ZM359.417 311.305C360.172 310.84 360.799 310.192 361.24 309.422C361.681 308.652 361.921 307.784 361.94 306.897C361.956 306.294 361.847 305.695 361.622 305.136C361.396 304.577 361.058 304.07 360.629 303.646C359.944 303.033 359.171 302.524 358.337 302.137C357.466 301.707 355.979 301.09 353.929 300.285C352.764 299.773 351.554 299.37 350.314 299.084C349.752 299.084 348.672 299.822 347.008 301.288C346.267 301.909 345.668 302.682 345.251 303.555C344.835 304.427 344.611 305.379 344.595 306.346C344.505 307.594 344.816 308.837 345.482 309.895C346.148 310.954 347.135 311.772 348.298 312.231C349.81 312.833 351.431 313.118 353.058 313.068C355.312 313.179 357.542 312.561 359.417 311.305ZM352.551 287.634C352.91 288.287 353.451 288.821 354.109 289.169C354.767 289.518 355.513 289.666 356.254 289.596C358.186 289.596 359.905 288.365 361.412 285.904C362.92 283.466 363.707 280.65 363.682 277.782C363.746 276.607 363.416 275.443 362.745 274.476C362.409 274.066 361.979 273.743 361.492 273.534C361.005 273.325 360.475 273.236 359.946 273.275C357.555 273.275 355.615 274.554 354.149 277.099C352.775 279.318 352.014 281.862 351.945 284.472C351.9 285.558 352.108 286.641 352.551 287.634Z" fill="#0C2ACB"/>
<path d="M376.234 204.081C376.258 203.85 376.302 203.621 376.366 203.398L382.581 180.961H377.688C377.657 180.588 377.702 180.213 377.821 179.859C377.991 179.65 378.216 179.494 378.471 179.407C380.246 178.694 381.941 177.796 383.529 176.729C385.34 175.26 386.981 173.593 388.422 171.759L388.94 171.153C389.001 171.063 389.085 170.991 389.182 170.944C389.276 170.888 389.382 170.858 389.491 170.855C389.646 170.883 389.797 170.927 389.943 170.988C389.994 171.115 390.031 171.248 390.053 171.384C390.069 171.509 390.069 171.635 390.053 171.759L388.168 178.768H393.414L393.028 180.972H387.518L381.601 202.571C381.488 202.937 381.524 203.333 381.7 203.673C381.77 203.84 381.891 203.98 382.045 204.075C382.199 204.17 382.379 204.214 382.559 204.202C383.121 204.202 383.904 203.651 384.907 202.538C385.491 201.932 386.471 200.742 387.838 198.967L388.675 199.452L388.224 200.125C386.904 202.286 385.257 204.231 383.342 205.888C382.228 206.864 380.82 207.439 379.341 207.519C378.944 207.57 378.539 207.534 378.157 207.414C377.774 207.294 377.422 207.093 377.124 206.824C376.827 206.555 376.591 206.224 376.434 205.855C376.276 205.486 376.201 205.088 376.212 204.687C376.204 204.518 376.212 204.316 376.234 204.081Z" fill="#0C2ACB"/>
<path d="M397.503 87.114H398.605C398.887 89.08 399.451 90.9951 400.28 92.8003C400.74 93.8069 401.486 94.6564 402.424 95.2439C403.362 95.8315 404.452 96.1313 405.558 96.1063C406.175 96.1208 406.788 96.0057 407.357 95.7684C407.927 95.5312 408.44 95.177 408.864 94.7288C409.32 94.2365 409.674 93.6587 409.904 93.0287C410.135 92.3988 410.239 91.7294 410.209 91.0591C410.231 90.2737 410.115 89.4906 409.867 88.7449C409.653 88.1646 409.368 87.613 409.019 87.103L406.352 83.1468C405.262 81.5932 404.25 79.9859 403.321 78.331C402.727 77.1982 402.41 75.9406 402.396 74.6614C402.39 72.8163 403.111 71.0432 404.401 69.7244C405.149 68.9869 406.044 68.4153 407.027 68.0469C408.011 67.6785 409.061 67.5216 410.11 67.5865C411.333 67.6147 412.546 67.815 413.713 68.1816C414.605 68.4864 415.53 68.6861 416.468 68.7767C416.89 68.8148 417.312 68.7015 417.658 68.4571C417.949 68.2137 418.192 67.9185 418.375 67.5865H419.3L417.923 76.6891H416.821C416.672 75.0641 416.247 73.4764 415.564 71.9945C415.129 71.0809 414.433 70.3162 413.565 69.7967C412.696 69.2771 411.694 69.0258 410.683 69.0742C409.764 69.0608 408.87 69.3731 408.159 69.9558C407.785 70.2709 407.491 70.6695 407.299 71.1193C407.108 71.5692 407.025 72.0577 407.057 72.5455C407.04 73.3463 407.213 74.1396 407.564 74.8597C408.246 76.0828 409 77.264 409.823 78.3972L412.104 81.7032C413.053 83.0137 413.893 84.3995 414.617 85.8467C415.113 86.9361 415.365 88.1209 415.355 89.318C415.358 90.4569 415.092 91.5804 414.578 92.5971C414.065 93.6139 413.32 94.4953 412.402 95.1696C410.406 96.7645 407.914 97.6071 405.36 97.5499C404.092 97.4996 402.833 97.3187 401.602 97.0099C400.669 96.773 399.724 96.5891 398.77 96.4589C398.429 96.4315 398.091 96.5339 397.822 96.7455C397.578 96.9946 397.387 97.2908 397.26 97.616H396.158L397.503 87.114Z" fill="#0C2ACB"/>
<path d="M402.428 246.519C402.648 246.291 402.914 246.112 403.209 245.996C403.503 245.88 403.82 245.829 404.136 245.847C404.585 245.835 405.031 245.929 405.436 246.122C405.86 246.343 406.256 246.613 406.616 246.926L407.023 247.224C407.14 247.322 407.275 247.397 407.42 247.444C407.58 247.498 407.747 247.525 407.916 247.522C408.871 247.522 410.417 246.251 412.555 243.709C414.693 241.167 415.759 239.33 415.751 238.199C415.578 236.014 415.209 233.849 414.649 231.73C413.914 228.527 413.206 225.665 412.522 223.145C411.949 220.651 411.06 218.241 409.878 215.971C409.516 215.369 408.999 214.876 408.38 214.544C407.761 214.212 407.064 214.054 406.362 214.087H405.756L404.301 214.252V213.338L412.335 211.773H412.952C413.448 211.718 414.385 213.922 415.784 218.385C416.746 221.272 417.526 224.216 418.12 227.201L419.311 234.231C421.382 230.771 422.896 228.115 423.851 226.264C425.746 222.627 426.683 220.082 426.683 218.627C426.684 218.289 426.624 217.953 426.507 217.635C426.349 217.261 426.053 216.961 425.68 216.798L425.184 216.533C424.771 216.297 424.399 215.996 424.082 215.641C423.863 215.411 423.694 215.139 423.584 214.842C423.474 214.544 423.426 214.227 423.443 213.911C423.434 213.339 423.647 212.785 424.038 212.368C424.274 212.149 424.552 211.981 424.855 211.875C425.159 211.769 425.481 211.727 425.801 211.751C426.238 211.731 426.674 211.797 427.084 211.947C427.495 212.096 427.871 212.325 428.193 212.621C428.534 213.03 428.789 213.503 428.944 214.012C429.099 214.521 429.151 215.056 429.096 215.586C429.096 217.694 427.95 221.074 425.658 225.724C423.884 229.275 421.905 232.719 419.729 236.039C417.601 239.397 415.252 242.611 412.699 245.659C409.569 249.222 406.976 251 404.919 250.993C404.142 250.999 403.387 250.739 402.781 250.255C402.258 249.817 401.929 249.191 401.865 248.512C401.801 247.833 402.007 247.157 402.439 246.629L402.428 246.519Z" fill="#0C2ACB"/>
<path d="M182.798 236.181C182.798 236.181 206.535 238.286 222.371 234.594C238.206 230.902 254.02 209.248 254.02 209.248L263.519 214.527C263.519 214.527 252.962 233.514 234.504 241.426C216.045 249.339 189.134 251.984 178.048 246.705C166.962 241.426 182.798 236.181 182.798 236.181Z" fill="#0C2ACB"/>
<path d="M194.7 250.002C187.769 250.002 181.763 249.109 177.818 247.224C174.897 245.836 173.41 244.26 173.575 242.541C173.806 238.706 181.73 235.929 182.622 235.653C182.699 235.637 182.777 235.637 182.854 235.653C183.085 235.653 206.69 237.714 222.239 234.078C237.788 230.441 253.459 209.161 253.58 208.93C253.656 208.82 253.771 208.742 253.901 208.712C254.031 208.681 254.168 208.7 254.285 208.765L263.785 214.043C263.913 214.115 264.007 214.233 264.049 214.374C264.104 214.508 264.104 214.658 264.049 214.793C263.939 214.991 253.183 234.045 234.758 241.935C222.034 247.128 208.442 249.865 194.7 250.002ZM182.865 236.778C180.54 237.582 174.831 240.084 174.666 242.651C174.578 244.183 176.583 245.461 178.291 246.277C189.113 251.434 215.759 248.911 234.284 240.998C250.748 233.934 260.975 217.779 262.76 214.804L254.175 210.032C251.883 213.073 237.348 231.708 222.493 235.18C207.329 238.684 184.694 236.888 182.865 236.733V236.778Z" fill="#0C2ACB"/>
<path d="M333.233 305.31C333.233 305.31 339.591 297.761 339.195 282.267C338.798 266.773 330.841 253.615 330.841 253.615L325.331 262.354C325.331 262.354 328.902 249.24 322.94 237.317C316.978 225.393 313.805 219.431 313.805 219.431C313.805 219.431 312.207 225.393 310.62 230.165C309.033 234.936 310.223 213.48 306.653 202.747C303.082 192.013 287.125 175.351 274.397 165.025C265.967 158.373 256.765 152.764 246.99 148.319C246.99 148.319 248.974 158.237 248.577 161.036C248.18 163.835 244.599 160.639 241.822 156.265C239.045 151.89 233.083 137.586 233.083 137.586C222.421 131.706 211.072 127.168 199.296 124.075C181.41 119.667 142.862 122.885 142.862 122.885C148.006 127.838 152.793 133.148 157.188 138.776C160.277 143.043 163.728 147.036 167.503 150.71C167.503 150.71 154.621 144.242 147.458 137.883C140.295 131.525 128.724 122.367 119.235 120.383C109.747 118.4 81.2605 126.07 75.2987 130.841C69.3369 135.613 51.0547 149.575 51.0547 149.575C51.0547 149.575 74.1085 190.856 92.3907 196.807C110.673 202.758 119.015 201.59 119.015 201.59L131.335 196.807L122.971 203.915C122.971 203.915 136.195 207.937 159.778 211.508C183.361 215.078 187.769 214.296 199.296 217.866C210.823 221.437 239.442 217.073 239.442 217.073L230.692 222.583C230.692 222.583 236.202 227.751 248.577 231.322C256.605 233.765 264.337 237.092 271.631 241.24L264.479 243.311C264.479 243.311 274.397 254.838 281.163 257.637C287.93 260.437 297.462 264.789 297.462 264.789L289.12 266.376C289.12 266.376 303.82 278.697 308.956 285.452C314.091 292.207 325.684 306.908 333.233 305.31Z" fill="white"/>
<path d="M210.822 150.071C210.707 150.072 210.595 150.036 210.502 149.969C210.409 149.901 210.34 149.806 210.304 149.697C205.632 135.679 194.248 124.196 194.138 124.075C194.037 123.972 193.98 123.834 193.98 123.689C193.98 123.545 194.037 123.407 194.138 123.304C194.189 123.252 194.25 123.211 194.317 123.183C194.384 123.155 194.456 123.141 194.529 123.141C194.602 123.141 194.674 123.155 194.741 123.183C194.808 123.211 194.869 123.252 194.92 123.304C195.031 123.414 206.591 135.084 211.34 149.344C211.365 149.413 211.375 149.485 211.371 149.558C211.367 149.631 211.348 149.702 211.317 149.768C211.285 149.833 211.24 149.892 211.186 149.94C211.131 149.989 211.068 150.026 210.999 150.049L210.822 150.071Z" fill="#0C2ACB"/>
<path d="M219.164 156.429C219.04 156.429 218.92 156.386 218.823 156.308C218.727 156.23 218.661 156.121 218.635 155.999C215.913 143.976 210.459 137.629 210.403 137.563C210.307 137.452 210.259 137.307 210.269 137.16C210.279 137.013 210.347 136.877 210.459 136.78C210.57 136.684 210.714 136.636 210.861 136.646C211.008 136.656 211.145 136.724 211.241 136.835C211.472 137.1 216.927 143.447 219.704 155.757C219.721 155.828 219.723 155.901 219.71 155.973C219.698 156.045 219.672 156.113 219.633 156.175C219.594 156.236 219.543 156.289 219.483 156.331C219.424 156.373 219.357 156.402 219.286 156.418L219.164 156.429Z" fill="#0C2ACB"/>
<path d="M285.539 209.689C285.406 209.69 285.278 209.642 285.179 209.555C285.079 209.468 285.015 209.347 284.999 209.215C281.087 180.696 270.496 166.292 270.397 166.149C270.354 166.091 270.322 166.025 270.304 165.955C270.286 165.885 270.282 165.812 270.293 165.741C270.303 165.669 270.327 165.6 270.364 165.538C270.401 165.476 270.45 165.421 270.508 165.378C270.565 165.334 270.631 165.303 270.701 165.285C270.771 165.267 270.844 165.263 270.916 165.273C270.988 165.283 271.057 165.308 271.119 165.344C271.181 165.381 271.235 165.43 271.279 165.488C271.389 165.631 282.134 180.244 286.09 209.061C286.109 209.206 286.069 209.352 285.98 209.468C285.892 209.583 285.76 209.659 285.616 209.678L285.539 209.689Z" fill="#0C2ACB"/>
<path d="M271.632 184.256C271.498 184.255 271.37 184.207 271.269 184.12C271.168 184.034 271.101 183.914 271.081 183.782C269.959 177.188 267.837 170.804 264.788 164.85C264.718 164.721 264.702 164.57 264.743 164.43C264.784 164.289 264.88 164.171 265.009 164.101C265.137 164.031 265.288 164.014 265.429 164.056C265.569 164.097 265.688 164.192 265.758 164.321C268.866 170.379 271.036 176.874 272.194 183.584C272.205 183.656 272.201 183.729 272.184 183.799C272.167 183.869 272.135 183.936 272.092 183.994C272.049 184.052 271.995 184.102 271.933 184.139C271.871 184.177 271.802 184.201 271.731 184.212L271.632 184.256Z" fill="#0C2ACB"/>
<path d="M286.332 244.26C286.274 244.27 286.214 244.27 286.156 244.26C282.934 243.355 279.648 242.699 276.326 242.298C276.18 242.279 276.047 242.203 275.957 242.086C275.867 241.969 275.827 241.822 275.846 241.675C275.865 241.529 275.942 241.397 276.058 241.307C276.175 241.217 276.323 241.177 276.469 241.196C279.862 241.61 283.218 242.285 286.508 243.213C286.654 243.236 286.785 243.317 286.872 243.436C286.959 243.556 286.995 243.706 286.971 243.852C286.948 243.998 286.867 244.129 286.747 244.216C286.628 244.302 286.478 244.338 286.332 244.315V244.26Z" fill="#0C2ACB"/>
<path d="M105.505 196.575C105.359 196.589 105.214 196.543 105.101 196.449C104.988 196.355 104.918 196.22 104.905 196.074C104.891 195.928 104.937 195.782 105.031 195.67C105.125 195.557 105.26 195.487 105.406 195.473C105.615 195.473 126.994 191.418 143.436 183.98C143.503 183.944 143.576 183.923 143.651 183.918C143.726 183.912 143.801 183.921 143.872 183.946C143.943 183.97 144.009 184.009 144.064 184.06C144.12 184.111 144.164 184.172 144.195 184.241C144.226 184.309 144.243 184.383 144.244 184.459C144.245 184.534 144.231 184.609 144.202 184.678C144.173 184.747 144.13 184.81 144.076 184.863C144.022 184.915 143.958 184.956 143.888 184.982C127.358 192.476 105.825 196.509 105.604 196.553L105.505 196.575Z" fill="#0C2ACB"/>
<path d="M117.825 189.821C117.706 189.821 117.59 189.783 117.495 189.711C117.399 189.64 117.33 189.539 117.296 189.425C117.274 189.355 117.267 189.282 117.274 189.21C117.281 189.137 117.303 189.067 117.338 189.003C117.373 188.939 117.421 188.883 117.478 188.838C117.535 188.793 117.601 188.76 117.671 188.741C117.814 188.741 132.537 184.333 138.609 181.226C138.739 181.158 138.89 181.146 139.03 181.19C139.169 181.235 139.286 181.333 139.353 181.463C139.42 181.593 139.433 181.744 139.388 181.884C139.344 182.023 139.246 182.139 139.116 182.206C132.934 185.391 118.564 189.612 117.958 189.799L117.825 189.821Z" fill="#0C2ACB"/>
<path d="M180.219 173.918C180.101 173.916 179.985 173.877 179.89 173.806C179.795 173.735 179.725 173.635 179.69 173.521C176.197 161.873 170.356 155.889 170.29 155.889C170.189 155.786 170.133 155.648 170.133 155.504C170.133 155.36 170.189 155.221 170.29 155.118C170.342 155.066 170.402 155.025 170.47 154.997C170.537 154.969 170.609 154.955 170.682 154.955C170.754 154.955 170.826 154.969 170.893 154.997C170.961 155.025 171.022 155.066 171.073 155.118C171.315 155.361 177.178 161.311 180.748 173.235C180.769 173.304 180.775 173.377 180.767 173.449C180.759 173.521 180.737 173.591 180.702 173.654C180.668 173.718 180.621 173.774 180.564 173.819C180.508 173.864 180.443 173.898 180.374 173.918H180.219Z" fill="#0C2ACB"/>
<path d="M222.867 193.667C210.216 189.722 187.878 184.245 187.878 184.245C169.795 181.159 81.6016 156.904 81.6016 156.904C81.6016 156.904 97.9112 165.291 145.099 178.515C192.286 191.739 217.61 196.257 236.477 204.07C261.889 214.583 307.82 254.365 317.088 275.535C325.331 294.39 348.352 363.221 353.278 378.021C353.291 378.069 353.323 378.11 353.366 378.135C353.409 378.159 353.461 378.166 353.509 378.153C353.557 378.14 353.598 378.108 353.623 378.064C353.648 378.021 353.654 377.97 353.641 377.921C352.198 370.67 348.131 351.33 343.624 336.233C337.894 317.267 328.108 290.081 325.022 282.147C320.597 271 314.495 260.595 306.927 251.291L300.767 244.679C300.767 244.679 273.868 216.027 253.139 204.544" fill="white"/>
<path d="M353.455 378.704C353.3 378.704 353.15 378.655 353.025 378.564C352.9 378.473 352.807 378.345 352.76 378.197C348.165 364.4 324.847 294.644 316.582 275.711C307.678 255.357 262.639 215.443 236.268 204.533C224.796 199.783 210.68 196.191 191.086 191.232C178.722 188.08 163.327 184.168 144.912 179C98.2536 165.952 81.5473 157.489 81.349 157.401C81.2279 157.337 81.1343 157.231 81.0856 157.103C81.037 156.976 81.0365 156.834 81.0845 156.706C81.1341 156.579 81.2292 156.475 81.3514 156.414C81.4736 156.353 81.6141 156.339 81.7457 156.376C82.6273 156.618 170.126 180.62 187.967 183.705C188.232 183.771 210.503 189.215 223.022 193.138C223.168 193.181 223.292 193.279 223.365 193.413C223.438 193.546 223.456 193.703 223.413 193.849C223.371 193.995 223.272 194.119 223.139 194.192C223.006 194.265 222.849 194.283 222.702 194.24C210.206 190.361 187.967 184.895 187.747 184.84C172.925 182.306 110.089 165.313 88.6552 159.494C97.328 163.054 114.971 169.589 145.254 178.074C163.657 183.231 179.041 187.144 191.406 190.295C210.988 195.276 225.149 198.869 236.687 203.64C263.245 214.66 308.603 254.872 317.585 275.403C325.045 292.451 344.705 350.713 351.901 372.247C349.972 363.012 346.711 348.432 343.085 336.476C337.211 316.926 327.293 289.497 324.505 282.345C320.092 271.259 314.021 260.907 306.499 251.644L300.36 245.032C300.096 244.745 273.284 216.302 252.875 205.007C252.749 204.935 252.655 204.817 252.614 204.677C252.572 204.537 252.587 204.387 252.655 204.258C252.727 204.131 252.846 204.037 252.986 203.998C253.127 203.959 253.277 203.977 253.404 204.048C273.968 215.421 300.9 243.985 301.165 244.282L307.325 250.894C314.935 260.253 321.073 270.718 325.53 281.927C328.318 289.09 338.258 316.573 344.154 336.046C348.694 351.099 352.683 370.208 354.182 377.79C354.22 377.975 354.186 378.167 354.088 378.329C353.99 378.49 353.835 378.608 353.653 378.66L353.455 378.704Z" fill="#CCDFFB"/>
<path d="M248.192 203.321C248.127 203.336 248.059 203.336 247.993 203.321L228.686 195.838C228.618 195.812 228.556 195.773 228.503 195.723C228.45 195.673 228.408 195.613 228.378 195.546C228.349 195.48 228.332 195.408 228.33 195.335C228.328 195.262 228.341 195.19 228.367 195.122C228.393 195.054 228.432 194.992 228.482 194.939C228.532 194.886 228.592 194.843 228.659 194.814C228.725 194.784 228.797 194.768 228.87 194.766C228.943 194.764 229.015 194.776 229.083 194.802L248.39 202.296C248.458 202.322 248.521 202.361 248.574 202.411C248.627 202.461 248.67 202.521 248.7 202.587C248.729 202.654 248.746 202.726 248.747 202.799C248.749 202.872 248.736 202.944 248.71 203.012C248.661 203.107 248.586 203.186 248.495 203.24C248.403 203.295 248.298 203.323 248.192 203.321Z" fill="#CCDFFB"/>
<path d="M167.965 191.662C167.965 191.662 173.222 191.078 175.558 193.116C177.894 195.155 180.958 199.838 182.567 200.423C184.176 201.007 188.264 200.125 188.407 201.591C188.312 203.145 187.97 204.674 187.394 206.12C187.394 206.12 190.457 213.129 190.7 215.608C190.869 216.531 190.781 217.482 190.447 218.358C190.113 219.235 189.545 220.003 188.804 220.578C187.636 221.46 183.404 221.89 183.404 221.89L183.548 229.604L166.312 230.331L164.703 223.906L157.838 221.702C157.838 221.702 159.447 219.807 159.733 211.476C160.02 203.144 160.901 195.552 163.822 192.742C166.742 189.932 167.965 191.662 167.965 191.662Z" fill="white"/>
<path d="M166.4 230.969C166.276 230.97 166.155 230.929 166.057 230.853C165.959 230.777 165.89 230.67 165.86 230.55L164.284 224.357L157.672 222.263C157.585 222.236 157.506 222.188 157.442 222.122C157.378 222.057 157.333 221.976 157.309 221.888C157.282 221.801 157.278 221.709 157.297 221.62C157.317 221.531 157.358 221.449 157.419 221.381C157.419 221.381 158.906 219.387 159.182 211.463C159.568 200.708 160.879 194.823 163.447 192.377C164.78 191.109 165.992 190.514 167.028 190.602C167.431 190.635 167.815 190.789 168.13 191.043C169.232 190.944 173.64 190.724 175.844 192.652C177.028 193.779 178.133 194.987 179.15 196.267C180.44 197.82 181.905 199.573 182.688 199.859C183.488 200.052 184.311 200.138 185.134 200.113C186.93 200.113 188.782 200.113 188.925 201.534C188.863 203.1 188.532 204.644 187.944 206.096C188.473 207.298 190.986 213.226 191.25 215.552C191.442 216.576 191.346 217.633 190.972 218.606C190.598 219.579 189.962 220.429 189.134 221.062C188.098 221.844 185.178 222.274 183.966 222.428L184.098 229.668C184.098 229.812 184.044 229.95 183.945 230.054C183.847 230.159 183.712 230.222 183.569 230.23L166.4 230.969ZM158.686 221.48L164.901 223.464C164.991 223.493 165.071 223.545 165.135 223.615C165.199 223.684 165.243 223.769 165.265 223.861L166.764 229.856L183.018 229.161L182.886 221.954C182.883 221.816 182.932 221.683 183.024 221.58C183.117 221.478 183.245 221.414 183.382 221.403C184.958 221.238 187.79 220.764 188.506 220.191C189.16 219.678 189.663 218.997 189.96 218.221C190.257 217.444 190.337 216.602 190.192 215.783C189.906 213.414 186.886 206.515 186.886 206.449C186.856 206.383 186.841 206.312 186.841 206.24C186.841 206.167 186.856 206.096 186.886 206.03C187.439 204.666 187.773 203.223 187.878 201.755C187.878 201.347 186.093 201.336 185.167 201.325C184.233 201.372 183.297 201.28 182.39 201.049C181.288 200.664 179.966 199.022 178.379 197.126C177.414 195.842 176.357 194.631 175.216 193.501C173.089 191.638 168.097 192.167 168.042 192.167C167.948 192.18 167.853 192.167 167.765 192.13C167.678 192.093 167.602 192.034 167.546 191.958C167.391 191.804 167.181 191.717 166.962 191.715C166.554 191.715 165.684 191.848 164.273 193.192C161.232 196.079 160.581 205.027 160.35 211.507C160.119 217.568 159.237 220.301 158.686 221.425V221.48Z" fill="#0C2ACB"/>
<path d="M175.999 204.621C175.87 204.623 175.745 204.581 175.644 204.5C175.543 204.42 175.474 204.306 175.448 204.18C175.422 204.035 175.454 203.887 175.536 203.765C175.619 203.644 175.745 203.559 175.889 203.53C178.501 203.034 178.798 201.326 178.809 201.216C178.83 201.069 178.908 200.937 179.025 200.849C179.143 200.76 179.291 200.721 179.438 200.742C179.584 200.762 179.716 200.84 179.805 200.958C179.893 201.075 179.932 201.224 179.911 201.37C179.911 201.48 179.526 203.96 176.11 204.61L175.999 204.621Z" fill="#0C2ACB"/>
<path d="M173.079 199.363C173.006 199.38 172.931 199.38 172.859 199.363C172.726 199.305 172.622 199.198 172.566 199.065C172.511 198.931 172.509 198.782 172.561 198.647C172.718 198.214 172.964 197.819 173.283 197.487C173.602 197.155 173.987 196.893 174.412 196.718C175.308 196.44 176.275 196.506 177.123 196.906C177.253 196.972 177.351 197.087 177.397 197.225C177.442 197.363 177.431 197.514 177.366 197.644C177.334 197.709 177.29 197.768 177.235 197.816C177.181 197.863 177.117 197.9 177.048 197.922C176.979 197.945 176.906 197.953 176.834 197.947C176.762 197.941 176.692 197.92 176.627 197.887C176.051 197.619 175.396 197.572 174.787 197.754C174.507 197.878 174.255 198.058 174.048 198.284C173.842 198.509 173.684 198.776 173.586 199.066C173.539 199.159 173.466 199.237 173.376 199.29C173.287 199.342 173.183 199.368 173.079 199.363Z" fill="#0C2ACB"/>
<path d="M184.033 211.132C183.032 211.129 182.054 210.83 181.223 210.273C181.101 210.194 181.014 210.069 180.983 209.927C180.952 209.784 180.979 209.635 181.058 209.512C181.139 209.389 181.265 209.302 181.41 209.271C181.554 209.241 181.705 209.268 181.829 209.347C182.569 209.821 183.439 210.051 184.316 210.005C185.194 209.96 186.035 209.641 186.722 209.093C186.835 209.002 186.979 208.959 187.124 208.973C187.268 208.988 187.401 209.059 187.493 209.171C187.541 209.225 187.577 209.289 187.599 209.357C187.621 209.426 187.63 209.498 187.623 209.57C187.617 209.642 187.597 209.712 187.563 209.776C187.529 209.84 187.483 209.896 187.427 209.942C186.458 210.702 185.265 211.12 184.033 211.132Z" fill="#0C2ACB"/>
<path d="M183.449 221.888L177.598 221.018L183.295 226.715L183.449 221.888Z" fill="#0C2ACB"/>
<path d="M183.296 227.266C183.223 227.266 183.152 227.251 183.086 227.223C183.02 227.194 182.96 227.153 182.91 227.101L177.212 221.404C177.131 221.321 177.077 221.215 177.059 221.1C177.041 220.985 177.06 220.868 177.113 220.765C177.168 220.663 177.252 220.58 177.354 220.527C177.456 220.474 177.572 220.453 177.686 220.467L183.527 221.349C183.659 221.372 183.779 221.441 183.866 221.544C183.952 221.646 184 221.776 184.001 221.911L183.847 226.726C183.845 226.834 183.812 226.938 183.751 227.026C183.69 227.115 183.605 227.183 183.505 227.222C183.44 227.253 183.368 227.269 183.296 227.266ZM179.174 221.811L182.789 225.426L182.877 222.362L179.174 221.811Z" fill="#0C2ACB"/>
<path d="M169.134 211.233C169.134 211.233 170.732 209.184 169.862 208.456C168.991 207.729 165.619 205.536 165.454 203.784C165.288 202.032 167.063 200.566 166.919 197.359C166.776 194.152 166.479 191.849 168.528 190.637C170.578 189.425 174.369 191.507 175.68 189.469C176.992 187.43 175.824 180.851 170.865 177.931C165.906 175.01 156.836 178.217 155.966 182.339C155.095 186.46 157.718 186.581 156.693 187.452C155.668 188.323 151.282 188.763 149.971 190.956C149.371 191.889 148.973 192.936 148.803 194.031C148.516 194.615 142.521 197.976 141.089 203.376C139.656 208.776 141.518 217.988 148.968 221.923C156.417 225.857 163.867 226.893 167.812 223.686C171.757 220.479 170.016 216.964 170.016 216.964C170.016 216.964 163.404 219.586 162.423 214.33C161.442 209.073 169.134 211.233 169.134 211.233Z" fill="#0C2ACB"/>
<path d="M161.508 226.098C157.028 225.882 152.663 224.609 148.769 222.384C140.801 218.163 139.192 208.444 140.603 203.198C141.782 198.79 145.716 195.815 147.6 194.382C147.885 194.177 148.157 193.957 148.416 193.721C148.447 193.621 148.465 193.517 148.471 193.412C148.615 192.423 148.993 191.483 149.573 190.668C150.532 189.081 152.736 188.365 154.51 187.792C155.173 187.62 155.811 187.361 156.405 187.021L156.24 186.789C155.766 186.139 154.896 184.938 155.48 182.227C155.865 180.431 157.607 178.723 160.262 177.555C163.183 176.276 167.8 175.483 171.194 177.477C173.875 179.149 175.781 181.817 176.495 184.894C177.005 186.509 176.899 188.256 176.197 189.798C175.283 191.219 173.486 191.054 171.9 190.9C170.881 190.694 169.826 190.77 168.847 191.12C167.326 191.991 167.337 193.6 167.492 196.63V197.358C167.543 198.881 167.221 200.394 166.555 201.766C166.223 202.391 166.042 203.085 166.026 203.793C166.125 204.994 168.439 206.736 169.552 207.573C169.828 207.782 170.059 207.959 170.214 208.091C171.437 209.105 169.883 211.21 169.563 211.628C169.495 211.713 169.403 211.776 169.299 211.809C169.195 211.842 169.084 211.844 168.979 211.816C167.877 211.496 164.637 210.923 163.403 212.058C163.137 212.351 162.954 212.71 162.875 213.098C162.795 213.486 162.822 213.888 162.951 214.262C163.011 214.753 163.184 215.223 163.455 215.636C163.726 216.049 164.09 216.393 164.516 216.643C166.544 217.745 169.773 216.488 169.806 216.477C169.934 216.429 170.075 216.43 170.203 216.478C170.331 216.527 170.436 216.621 170.5 216.742C170.5 216.742 172.395 220.687 168.164 224.136C166.237 225.536 163.886 226.228 161.508 226.098ZM166.246 177.345C164.33 177.363 162.437 177.768 160.681 178.535C158.378 179.538 156.824 180.993 156.516 182.425C156.303 183.04 156.245 183.697 156.347 184.339C156.449 184.981 156.708 185.588 157.1 186.106C157.386 186.503 157.86 187.208 157.1 187.836C156.405 188.291 155.637 188.623 154.83 188.817C153.232 189.335 151.237 189.974 150.499 191.208C149.996 191.895 149.668 192.693 149.54 193.534C149.523 193.778 149.459 194.018 149.353 194.239C149.231 194.47 148.989 194.669 148.251 195.231C146.454 196.608 142.741 199.473 141.639 203.485C140.316 208.389 141.815 217.469 149.253 221.403C156.879 225.459 163.866 226.153 167.503 223.255C170.28 220.995 169.993 218.626 169.707 217.656C168.605 218.009 165.971 218.637 164.02 217.579C163.453 217.25 162.967 216.796 162.601 216.252C162.234 215.708 161.996 215.088 161.904 214.439C161.736 213.883 161.719 213.292 161.857 212.728C161.994 212.164 162.281 211.647 162.687 211.232C164.329 209.711 167.789 210.361 168.935 210.637C169.42 209.931 169.762 209.094 169.541 208.906C169.321 208.719 169.178 208.631 168.924 208.433C167.073 207.044 165.089 205.424 164.957 203.859C164.955 202.973 165.167 202.1 165.574 201.314C166.167 200.101 166.458 198.762 166.423 197.413V196.685C166.268 193.754 166.158 191.429 168.34 190.184C169.508 189.703 170.792 189.576 172.032 189.82C173.718 189.974 174.787 190.007 175.338 189.203C175.864 187.91 175.915 186.474 175.481 185.147C175.169 183.767 174.586 182.463 173.765 181.311C172.944 180.158 171.901 179.181 170.698 178.436C169.342 177.672 167.802 177.294 166.246 177.345Z" fill="#0C2ACB"/>
<path d="M140.79 209.767C140.79 209.767 133.34 202.902 122.971 203.927C112.601 204.951 112.744 214.594 108.512 217.514C104.281 220.435 97.9883 217.657 100.798 213.712C103.608 209.767 101.966 206.56 99.7735 205.998C97.5805 205.436 89.1172 203.662 86.4834 218.264C83.8496 232.865 93.4921 246.916 105.768 243.246C118.045 239.576 123.004 224.512 126.508 217.239C130.012 209.966 138.63 213.294 141.121 214.616C143.611 215.938 142.873 214.616 142.718 214.175C142.564 213.734 140.79 209.767 140.79 209.767Z" fill="#0C2ACB"/>
<path d="M101.834 244.358C98.3921 244.319 95.0879 242.999 92.5665 240.655C86.9794 235.641 84.3677 226.814 85.9545 218.141C87.0565 212.311 89.0952 208.366 92.1698 206.405C93.3161 205.712 94.595 205.268 95.9238 205.101C97.2527 204.934 98.6018 205.047 99.8838 205.435C100.487 205.615 101.037 205.937 101.49 206.375C101.942 206.812 102.284 207.351 102.485 207.947C102.87 208.994 103.212 211.176 101.206 214.03C100.817 214.428 100.599 214.962 100.599 215.518C100.599 216.074 100.817 216.608 101.206 217.006C102.551 218.361 105.735 218.725 108.149 217.006C109.493 216.069 110.353 214.383 111.4 212.422C113.35 208.675 115.808 204.024 122.872 203.319C129.509 202.819 136.073 204.975 141.121 209.314C141.177 209.363 141.222 209.423 141.253 209.49C141.429 209.898 143.016 213.468 143.17 213.898V214.03C143.303 214.372 143.556 215.022 143.104 215.43C142.652 215.838 141.804 215.562 140.735 215C140.184 214.703 135.225 212.168 131.037 213.535C130.116 213.853 129.271 214.359 128.556 215.021C127.841 215.683 127.271 216.487 126.883 217.381C126.409 218.383 125.891 219.529 125.351 220.764C121.88 228.599 116.623 240.445 105.802 243.674C104.517 244.085 103.182 244.315 101.834 244.358ZM96.9745 206.14C95.4745 206.126 94.0019 206.543 92.7318 207.341C89.9217 209.127 87.9932 212.851 87.0014 218.361C85.5137 226.659 87.9822 235.09 93.2939 239.85C94.9055 241.372 96.8919 242.439 99.0506 242.942C101.209 243.446 103.463 243.367 105.581 242.716C115.929 239.641 121.009 228.07 124.436 220.422C124.998 219.166 125.538 218.009 125.99 217.006C126.44 215.977 127.099 215.053 127.927 214.294C128.754 213.535 129.731 212.957 130.795 212.598C135.39 211.088 140.713 213.81 141.352 214.119C141.638 214.282 141.936 214.422 142.245 214.537L142.179 214.361C142.079 214.064 141.077 211.661 140.349 210.129C139.512 209.413 132.47 203.584 123.037 204.509C116.535 205.148 114.353 209.325 112.436 213.017C111.334 215.022 110.408 216.918 108.832 217.998C105.923 220.003 102.22 219.518 100.479 217.821C99.9014 217.242 99.5645 216.465 99.5358 215.648C99.5072 214.83 99.789 214.032 100.325 213.413C102.044 210.978 101.779 209.193 101.427 208.344C101.286 207.913 101.043 207.523 100.719 207.206C100.394 206.89 99.9983 206.656 99.5642 206.526C98.7212 206.286 97.8508 206.157 96.9745 206.14Z" fill="#0C2ACB"/>
<path d="M165.188 238.838C165.188 238.838 162.114 229.339 163.866 228.325C165.618 227.311 184.804 226.716 185.906 227.587C186.357 227.948 186.704 228.424 186.909 228.965C187.115 229.506 187.171 230.091 187.074 230.661C187.074 231.83 186.788 239.566 186.788 239.566L165.188 238.838Z" fill="white"/>
<path d="M186.81 240.116L165.189 239.389C165.075 239.385 164.965 239.346 164.874 239.277C164.783 239.208 164.716 239.112 164.682 239.003C163.723 236.028 161.684 228.975 163.58 227.851C165.475 226.727 184.848 226.099 186.248 227.146C186.769 227.557 187.173 228.099 187.416 228.716C187.66 229.334 187.736 230.005 187.637 230.661C187.637 231.829 187.361 239.279 187.339 239.587C187.334 239.726 187.276 239.857 187.178 239.955C187.08 240.053 186.949 240.111 186.81 240.116ZM165.597 238.298L186.27 239.003C186.336 237.218 186.546 231.62 186.546 230.661C186.546 229.702 186.546 228.744 185.598 228.027C184.11 227.278 165.652 227.917 164.153 228.799C163.437 229.218 164.109 233.603 165.597 238.298Z" fill="#0C2ACB"/>
<path d="M140.801 312.451C140.801 312.451 135.908 321.267 131.246 330.391C126.585 339.516 122.43 346.227 122.43 346.227C122.43 346.227 115.444 334.105 111.245 328.992C107.046 323.878 96.9741 311.756 96.7758 310.313C96.5774 308.869 97.0072 310.313 96.5333 308.913C96.0595 307.514 99.5638 299.833 99.3324 297.739C99.101 295.645 93.9767 292.372 90.2519 290.741C86.5272 289.11 76.0361 284.03 71.6281 282.642C67.2201 281.253 65.7985 282.873 66.7352 284.273C67.6719 285.672 79.7829 300.571 83.0338 305.001C86.2847 309.431 101.195 337.863 103.586 343.439C105.977 349.015 118.728 368.366 121.053 369.292C123.378 370.218 126.409 367.892 127.577 367.429C128.745 366.967 146.211 352.057 151.567 347.164C156.923 342.271 159.953 339.714 159.953 339.714C159.953 339.714 166.477 356.487 172.77 369.523C179.062 382.56 182.269 388.632 182.93 395.167C183.591 401.702 179.437 411.697 182.467 422.419C185.498 433.142 191.085 446.663 192.242 450.135C193.399 453.606 193.179 460.857 193.179 460.857C193.179 460.857 188.771 465.75 187.592 469.673C186.412 473.596 193.873 474.081 195.306 474.081C196.738 474.081 202.061 478.732 204.628 479.9C207.196 481.068 211.384 483.856 216.045 483.393C220.707 482.93 215.34 479.668 214.183 477.806C213.026 475.943 211.582 472.307 208.353 464.593C205.124 456.879 203.945 452.713 203.692 450.851C203.438 448.989 200.198 419.168 199.736 406.584C199.273 393.999 198.358 393.525 198.358 383.508C198.358 373.491 195.052 353.225 191.834 338.777C188.616 324.33 184.616 317.575 184.616 317.575L140.801 312.451Z" fill="white"/>
<path d="M214.988 484.044C211.472 484.044 208.321 482.424 205.962 481.223C205.389 480.925 204.86 480.661 204.397 480.451C202.777 479.567 201.226 478.561 199.758 477.443C198.127 476.275 195.901 474.677 195.35 474.677C195.35 474.677 189.41 474.677 187.548 472.164C187.27 471.794 187.087 471.361 187.016 470.904C186.945 470.447 186.988 469.979 187.14 469.542C188.242 465.861 191.934 461.508 192.716 460.626C192.716 459.447 192.815 453.342 191.802 450.301C191.471 449.32 190.777 447.491 189.895 445.176C187.614 439.226 184.176 430.233 182.016 422.552C180.087 415.742 181.013 409.328 181.828 403.73C182.367 400.925 182.578 398.066 182.457 395.212C181.851 389.536 179.151 384.015 174.313 374.009L172.219 369.822C166.709 358.438 160.99 344.046 159.667 340.685C158.565 341.654 155.843 343.991 151.887 347.627C146.895 352.19 129.054 367.463 127.72 367.992C127.5 368.091 127.158 368.279 126.762 368.499C125.208 369.37 122.849 370.703 120.789 369.866C118.1 368.764 105.206 348.928 103.013 343.704C100.82 338.481 85.8773 309.862 82.5823 305.388C80.8081 302.974 76.4332 297.486 72.5762 292.649C69.2702 288.527 66.7025 285.276 66.2617 284.626C66.0396 284.322 65.9199 283.955 65.9199 283.579C65.9199 283.203 66.0396 282.836 66.2617 282.532C67.0882 281.43 69.1049 281.309 71.7717 282.168C74.9895 283.182 81.3591 286.147 86.0096 288.307C87.8389 289.155 89.4147 289.883 90.4176 290.345C93.8999 291.866 99.5421 295.238 99.8286 297.773C99.9609 298.941 99.1564 301.332 98.3189 303.856C97.7238 305.641 96.8312 308.319 97.0075 308.837C97.261 309.619 97.3161 309.763 97.2059 309.939C97.0957 310.115 97.2059 310.137 97.2059 310.325C97.5144 311.603 106.485 322.546 110.32 327.218L111.532 328.706C115.124 333.114 120.656 342.404 122.298 345.236C123.522 343.197 126.96 337.412 130.652 330.216C135.258 321.234 140.162 312.352 140.206 312.264C140.257 312.166 140.338 312.087 140.437 312.038C140.536 311.988 140.648 311.971 140.757 311.989L184.55 317.113C184.634 317.124 184.713 317.154 184.784 317.2C184.854 317.246 184.914 317.306 184.958 317.377C185.123 317.653 189.002 324.375 192.242 338.734C195.416 352.763 198.777 373.249 198.777 383.586C198.752 387.267 198.944 390.947 199.35 394.606C199.637 397.449 199.956 400.667 200.177 406.606C200.64 419.246 203.913 449.088 204.133 450.808C204.276 451.965 205.015 455.601 208.75 464.406C209.676 466.61 210.447 468.451 211.12 470.049C212.089 472.642 213.23 475.167 214.536 477.608C214.995 478.221 215.516 478.786 216.09 479.294C217.412 480.573 218.668 481.785 218.294 482.876C217.996 483.746 216.839 483.978 216.001 484.044C215.726 484.022 215.351 484.044 214.988 484.044ZM159.888 339.164H160.031C160.115 339.186 160.192 339.228 160.257 339.285C160.322 339.343 160.373 339.414 160.406 339.495C160.472 339.671 167.018 356.399 173.2 369.249L175.25 373.48C180.164 383.608 182.875 389.184 183.503 395.046C183.637 398 183.422 400.959 182.864 403.862C182.06 409.372 181.156 415.643 183.019 422.233C185.168 429.87 188.595 438.829 190.865 444.758C191.757 447.083 192.452 448.923 192.793 449.926C193.972 453.474 193.763 460.538 193.752 460.836C193.75 460.967 193.699 461.093 193.609 461.188C193.609 461.244 189.256 466.037 188.099 469.828C187.999 470.102 187.97 470.397 188.012 470.685C188.054 470.974 188.167 471.247 188.341 471.481C189.598 473.167 193.851 473.553 195.251 473.553C196.154 473.553 197.774 474.655 200.353 476.517C201.745 477.6 203.219 478.572 204.761 479.427C205.235 479.636 205.775 479.911 206.37 480.22C208.849 481.487 212.255 483.217 215.891 482.865C216.883 482.766 217.225 482.545 217.258 482.435C217.401 482.016 216.057 480.716 215.34 480.011C214.694 479.446 214.113 478.81 213.61 478.115C212.271 475.625 211.1 473.048 210.106 470.401C209.445 468.814 208.673 466.952 207.747 464.77C204.089 456.163 203.24 452.372 203.053 450.885C202.833 449.155 199.56 419.257 199.086 406.573C198.865 400.678 198.546 397.471 198.27 394.65C197.854 390.947 197.659 387.223 197.686 383.497C197.686 373.249 194.38 352.862 191.173 338.888C188.308 326.182 184.859 319.394 184.154 318.083L141.054 313.047C140.14 314.722 135.798 322.634 131.698 330.679C127.081 339.682 122.882 346.492 122.816 346.558C122.764 346.636 122.694 346.7 122.611 346.744C122.528 346.788 122.436 346.812 122.342 346.812C122.247 346.814 122.153 346.789 122.071 346.741C121.99 346.692 121.923 346.621 121.88 346.536C121.803 346.426 114.86 334.414 110.738 329.378L109.526 327.891C101.228 317.763 96.3794 311.669 96.181 310.479C96.131 310.195 96.131 309.904 96.181 309.619C96.181 309.531 96.0928 309.377 96.0267 309.168C95.7512 308.341 96.3463 306.468 97.3381 303.492C98.0654 301.288 98.903 298.798 98.7928 297.872C98.6164 296.197 94.0321 293.078 90.0429 291.326C88.9409 290.874 87.4091 290.136 85.5688 289.276C80.9404 287.128 74.5487 284.185 71.4631 283.193C68.6751 282.323 67.4188 282.764 67.0551 283.193C66.9837 283.323 66.9528 283.471 66.9666 283.618C66.9803 283.766 67.0381 283.906 67.1323 284.02C67.54 284.626 70.3832 288.196 73.3916 291.965C77.2597 296.803 81.6346 302.302 83.4309 304.726C86.7369 309.234 101.779 337.985 103.994 343.296C106.441 349.159 119.114 368.025 121.163 368.852C122.728 369.469 124.8 368.312 126.177 367.551C126.532 367.34 126.9 367.153 127.279 366.989C128.47 366.427 145.396 352.046 151.116 346.823C156.416 341.985 159.48 339.384 159.513 339.351C159.614 339.243 159.751 339.176 159.899 339.164H159.888Z" fill="#0C2ACB"/>
<path d="M199.736 406.562C199.273 393.988 198.336 393.525 198.336 383.508C198.336 373.491 195.03 353.225 191.812 338.778C188.595 324.331 184.594 317.575 184.594 317.575L140.801 312.451C140.801 312.451 135.908 321.267 131.246 330.392C126.585 339.516 122.43 346.227 122.43 346.227C122.43 346.227 115.444 334.105 111.245 328.992C109.361 326.689 106.297 322.964 103.531 319.438C100.171 321.072 97.31 323.576 95.2441 326.689C99.1011 334.028 102.583 341.015 103.619 343.439C105.945 349.027 118.761 368.367 121.086 369.292C123.411 370.218 126.442 367.893 127.61 367.43C128.778 366.967 146.245 352.057 151.6 347.164C156.956 342.271 159.987 339.715 159.987 339.715C159.987 339.715 166.51 356.487 172.803 369.524C179.095 382.56 182.269 388.632 182.93 395.167C183.591 401.702 179.437 411.697 182.467 422.42C184.286 428.855 187.019 436.283 189.179 441.958C193.675 442.141 198.178 441.845 202.612 441.077C201.576 430.74 200.044 414.882 199.736 406.562Z" fill="#CCDFFB"/>
<path d="M191.748 442.554C190.877 442.554 190.007 442.554 189.147 442.499C189.039 442.495 188.934 442.46 188.846 442.397C188.758 442.335 188.69 442.247 188.651 442.146C186.447 436.416 183.747 429.01 181.929 422.553C180 415.742 180.926 409.329 181.742 403.731C182.281 400.925 182.491 398.066 182.37 395.212C181.764 389.537 179.064 384.016 174.226 374.01L172.22 369.822C166.71 358.438 160.991 344.046 159.669 340.685C158.567 341.655 155.845 343.991 151.888 347.628C146.896 352.19 129.055 367.464 127.722 367.993C127.501 368.092 127.16 368.279 126.763 368.5C125.198 369.37 122.851 370.704 120.79 369.866C118.101 368.764 105.208 348.928 103.015 343.705C102.056 341.39 98.7721 334.833 94.6726 326.998C94.621 326.914 94.5938 326.816 94.5938 326.717C94.5938 326.618 94.621 326.521 94.6726 326.436C96.7961 323.251 99.7284 320.687 103.169 319.009C103.282 318.952 103.412 318.935 103.536 318.961C103.66 318.987 103.771 319.055 103.852 319.152C106.144 322.017 108.602 325.015 110.464 327.274L111.643 328.706C115.236 333.114 120.768 342.404 122.41 345.236C123.633 343.198 127.071 337.412 130.763 330.216C135.369 321.235 140.273 312.353 140.317 312.265C140.369 312.167 140.45 312.088 140.549 312.038C140.648 311.989 140.759 311.972 140.868 311.989L184.662 317.113C184.745 317.125 184.825 317.154 184.895 317.2C184.966 317.246 185.025 317.307 185.07 317.378C185.235 317.653 189.114 324.376 192.354 338.735C195.517 352.763 198.889 373.249 198.889 383.586C198.864 387.267 199.055 390.947 199.462 394.606C199.748 397.449 200.068 400.667 200.288 406.607C200.608 415.268 202.25 431.953 203.198 441.066C203.208 441.206 203.167 441.346 203.082 441.457C202.996 441.569 202.873 441.646 202.735 441.672C199.104 442.28 195.429 442.575 191.748 442.554ZM189.544 441.452C193.707 441.595 197.875 441.326 201.985 440.648C201.038 431.38 199.451 415.158 199.131 406.618C198.911 400.722 198.591 397.515 198.316 394.694C197.899 390.992 197.704 387.268 197.732 383.542C197.732 373.293 194.426 352.906 191.219 338.933C188.354 326.227 184.904 319.439 184.199 318.127L141.056 313.047C140.141 314.722 135.799 322.634 131.7 330.679C127.082 339.682 122.884 346.493 122.818 346.559C122.765 346.637 122.695 346.7 122.612 346.744C122.53 346.789 122.438 346.812 122.344 346.812C122.249 346.814 122.155 346.79 122.073 346.741C121.991 346.692 121.924 346.621 121.881 346.537C121.804 346.427 114.861 334.415 110.74 329.379L109.616 327.946C107.842 325.742 105.505 322.932 103.29 320.177C100.282 321.724 97.7062 323.996 95.7967 326.789C99.852 334.503 103.07 340.972 104.04 343.319C106.486 349.182 119.159 368.048 121.209 368.874C122.774 369.502 124.845 368.334 126.223 367.574C126.578 367.363 126.946 367.175 127.325 367.012C128.515 366.45 145.442 352.069 151.161 346.845C156.462 342.007 159.525 339.407 159.558 339.374C159.627 339.318 159.707 339.279 159.793 339.259C159.879 339.24 159.969 339.242 160.054 339.264C160.138 339.286 160.215 339.328 160.28 339.385C160.345 339.442 160.396 339.514 160.429 339.594C160.495 339.77 167.041 356.499 173.223 369.348L175.273 373.58C180.188 383.707 182.899 389.283 183.527 395.146C183.66 398.1 183.445 401.058 182.888 403.962C182.083 409.472 181.18 415.742 183.042 422.332C184.805 428.548 187.45 435.755 189.599 441.452H189.544Z" fill="#0C2ACB"/>
<path d="M214.987 484.044C211.472 484.044 208.32 482.424 205.962 481.223C205.389 480.926 204.86 480.661 204.397 480.452C202.777 479.567 201.226 478.562 199.758 477.443C198.127 476.275 195.901 474.677 195.35 474.677C195.35 474.677 189.41 474.677 187.548 472.165C187.27 471.795 187.087 471.362 187.016 470.904C186.945 470.447 186.987 469.979 187.14 469.542C187.977 466.677 190.446 463.382 191.834 461.674C191.91 461.576 192.017 461.508 192.138 461.48C192.258 461.451 192.384 461.466 192.495 461.519C197.51 463.878 200.143 464.616 200.794 464.627C201.73 463.371 205.719 461.431 206.535 461.045C206.604 461.029 206.676 461.029 206.744 461.045H207.119C207.233 461.039 207.347 461.069 207.444 461.13C207.54 461.191 207.616 461.281 207.659 461.387C208.034 462.335 208.441 463.338 208.904 464.418C209.83 466.622 210.601 468.462 211.274 470.06C212.243 472.653 213.384 475.179 214.69 477.62C215.149 478.233 215.67 478.798 216.244 479.306C217.566 480.584 218.822 481.796 218.448 482.887C218.15 483.758 216.993 483.989 216.155 484.055C215.726 484.022 215.351 484.044 214.987 484.044ZM215.99 482.942L216.045 483.493L215.99 482.942C216.982 482.843 217.324 482.623 217.357 482.512C217.5 482.094 216.155 480.793 215.439 480.088C214.792 479.524 214.212 478.888 213.709 478.193C212.369 475.703 211.199 473.125 210.205 470.479C209.543 468.892 208.772 467.029 207.846 464.847C207.45 463.922 207.082 463.04 206.744 462.203C204.772 463.161 202.006 464.704 201.598 465.387C201.356 465.784 200.805 466.71 192.363 462.765C190.562 464.893 189.135 467.311 188.143 469.917C188.04 470.19 188.009 470.485 188.051 470.774C188.093 471.063 188.208 471.337 188.385 471.57C189.641 473.256 193.895 473.641 195.295 473.641C196.198 473.641 197.818 474.743 200.397 476.606C201.789 477.688 203.262 478.661 204.805 479.515C205.279 479.724 205.819 480 206.414 480.308C208.948 481.51 212.354 483.24 215.99 482.887V482.942Z" fill="#0C2ACB"/>
<path d="M86.0533 299.645C86.0533 299.645 93.6461 303.051 97.3378 305.155C98.2194 302.412 99.4757 299.028 99.3324 297.75C99.101 295.645 93.9767 292.383 90.2519 290.752C86.5272 289.121 76.0361 284.03 71.6281 282.642C67.2201 281.253 65.7985 282.873 66.7352 284.273C67.6719 285.672 77.5679 297.849 81.8767 303.469L86.0533 299.645Z" fill="white"/>
<path d="M97.3381 305.741C97.2421 305.743 97.1473 305.72 97.0626 305.675C93.8778 303.823 87.6515 300.969 86.1638 300.297L82.2407 303.878C82.1231 303.975 81.9743 304.026 81.8219 304.022C81.7462 304.012 81.6731 303.988 81.6069 303.95C81.5406 303.912 81.4826 303.862 81.4363 303.801C79.2323 300.991 75.7058 296.517 72.5541 292.572C69.4024 288.627 66.7025 285.221 66.2617 284.571C66.0396 284.267 65.9199 283.901 65.9199 283.524C65.9199 283.148 66.0396 282.781 66.2617 282.477C67.0882 281.375 69.1049 281.254 71.7717 282.114C74.9895 283.128 81.3591 286.092 86.0096 288.252C87.8389 289.101 89.4147 289.828 90.4176 290.291C93.8999 291.811 99.5421 295.184 99.8286 297.718C99.9609 298.886 99.1564 301.278 98.3189 303.801L97.801 305.366C97.7782 305.444 97.7374 305.516 97.6819 305.575C97.6264 305.634 97.5577 305.68 97.4814 305.708L97.3381 305.741ZM86.0536 299.129C86.13 299.113 86.2087 299.113 86.2851 299.129C86.3512 299.129 93.1946 302.236 97.0185 304.374C97.1177 304.066 97.2279 303.757 97.3271 303.449C98.0544 301.245 98.8919 298.754 98.7817 297.828C98.6054 296.153 94.0211 293.035 90.0318 291.282C88.9298 290.831 87.3981 290.092 85.5577 289.233C80.9293 287.084 74.5377 284.142 71.4521 283.15C68.6641 282.279 67.4078 282.72 67.0441 283.15C66.9727 283.279 66.9418 283.427 66.9556 283.575C66.9693 283.722 67.027 283.862 67.1213 283.976C67.529 284.582 70.3611 288.142 73.3586 291.9C76.356 295.657 79.6951 299.845 81.8881 302.666L85.6349 299.25C85.6883 299.194 85.7538 299.151 85.8264 299.124C85.8989 299.097 85.9767 299.088 86.0536 299.096V299.129Z" fill="#0C2ACB"/>
<path d="M141.969 307.801L139.17 314.556C139.17 314.556 151.049 322.006 164.791 324.331C178.533 326.656 188.319 325.73 188.551 324.331C188.782 322.931 188.319 315.945 188.319 315.945C188.319 315.945 183.911 318.049 164.56 312.925C145.209 307.801 141.969 307.801 141.969 307.801Z" fill="white"/>
<path d="M180.088 326.304C174.915 326.255 169.755 325.779 164.66 324.882C150.962 322.557 138.95 315.097 138.829 314.964C138.718 314.894 138.637 314.787 138.598 314.661C138.56 314.536 138.568 314.401 138.619 314.281L141.408 307.526C141.452 307.426 141.525 307.342 141.617 307.284C141.709 307.225 141.816 307.194 141.925 307.195C142.058 307.195 145.474 307.195 164.66 312.331C183.581 317.356 188 315.416 188.044 315.394C188.123 315.354 188.209 315.332 188.298 315.332C188.386 315.332 188.473 315.354 188.551 315.394C188.63 315.439 188.696 315.503 188.744 315.58C188.792 315.657 188.821 315.745 188.827 315.835C189.051 318.669 189.129 321.512 189.058 324.353C189.027 324.498 188.967 324.635 188.882 324.757C188.797 324.878 188.688 324.981 188.562 325.059C187.658 325.808 184.617 326.304 180.088 326.304ZM139.854 314.325C142.058 315.615 152.802 321.742 164.88 323.791C178.391 326.084 187.35 325.092 188.022 324.177C188.074 321.67 188.001 319.161 187.802 316.662C185.884 317.069 179.823 317.543 164.406 313.455C148.526 309.245 143.567 308.507 142.366 308.374L139.854 314.325Z" fill="#0C2ACB"/>
<path d="M144.361 316.683H144.217C144.147 316.664 144.081 316.631 144.023 316.587C143.966 316.542 143.918 316.486 143.882 316.422C143.846 316.359 143.823 316.289 143.814 316.216C143.806 316.144 143.812 316.07 143.832 316L144.934 311.746C144.972 311.6 145.066 311.475 145.196 311.399C145.327 311.322 145.482 311.301 145.628 311.339C145.774 311.377 145.899 311.471 145.976 311.601C146.052 311.732 146.074 311.887 146.036 312.033L144.934 316.287C144.901 316.41 144.825 316.517 144.72 316.59C144.615 316.662 144.488 316.696 144.361 316.683Z" fill="#0C2ACB"/>
<path d="M154.058 319.129C154.003 319.14 153.947 319.14 153.892 319.129C153.754 319.086 153.639 318.99 153.57 318.862C153.502 318.734 153.487 318.585 153.529 318.446L154.631 314.92C154.653 314.847 154.688 314.78 154.736 314.721C154.784 314.663 154.843 314.614 154.909 314.579C154.976 314.543 155.049 314.52 155.124 314.513C155.199 314.505 155.275 314.512 155.347 314.534C155.419 314.556 155.487 314.591 155.545 314.639C155.604 314.687 155.652 314.746 155.688 314.812C155.724 314.879 155.746 314.952 155.754 315.027C155.762 315.102 155.755 315.178 155.733 315.25L154.631 318.766C154.59 318.882 154.511 318.98 154.407 319.046C154.303 319.112 154.18 319.141 154.058 319.129Z" fill="#0C2ACB"/>
<path d="M168.935 323.45C168.851 323.453 168.767 323.434 168.693 323.394C168.627 323.363 168.569 323.318 168.521 323.264C168.473 323.21 168.436 323.146 168.413 323.078C168.389 323.009 168.379 322.937 168.384 322.864C168.388 322.792 168.407 322.721 168.439 322.656L169.795 319.945C169.86 319.814 169.976 319.714 170.115 319.667C170.255 319.621 170.407 319.631 170.539 319.697C170.67 319.763 170.77 319.878 170.817 320.018C170.863 320.157 170.852 320.31 170.786 320.441L169.431 323.152C169.383 323.242 169.312 323.317 169.224 323.369C169.137 323.422 169.037 323.45 168.935 323.45Z" fill="#0C2ACB"/>
<path d="M192.353 240.888C192.353 240.888 183.736 235.19 175.416 236.215C167.095 237.24 164.307 237.813 161.53 244.535C158.753 251.257 159.635 272.879 158.61 276.493C157.585 280.108 142.984 298.699 141.232 303.514C139.479 308.33 139.028 309.796 145.463 311.845C151.899 313.895 171.173 320.463 179.504 321.19C187.835 321.918 189.576 319.152 189.874 316.661C190.171 314.171 187.824 313.454 190.017 306.148C192.21 298.842 197.467 280.438 199.219 275.292C200.971 270.146 202.877 265.374 202.58 260.834C202.282 256.294 197.764 248.998 196.298 246.805C194.833 244.612 192.353 240.888 192.353 240.888Z" fill="white"/>
<path d="M182.061 321.895C181.256 321.895 180.386 321.895 179.449 321.774C172.165 321.135 156.748 316.121 148.472 313.432L145.298 312.407C141.992 311.36 140.493 310.457 139.865 309.189C139.138 307.702 139.799 305.883 140.714 303.36C141.628 300.836 145.838 294.841 149.915 289.034C153.695 283.645 157.629 278.08 158.081 276.372C158.518 273.136 158.724 269.873 158.698 266.608C158.941 258.597 159.249 248.623 161.023 244.315C163.889 237.372 166.743 236.711 175.349 235.653C183.956 234.595 192.309 240.171 192.673 240.414C192.73 240.459 192.781 240.511 192.827 240.568C192.827 240.568 195.307 244.37 196.772 246.552C197.389 247.488 202.811 255.753 203.142 260.878C203.406 265.043 201.908 269.363 200.31 273.936L199.759 275.556C198.569 279.028 195.692 288.868 193.378 296.781C192.276 300.572 191.251 304.032 190.557 306.357C189.135 311.118 189.675 312.969 190.105 314.402C190.383 315.163 190.496 315.974 190.436 316.782C190.017 320.231 187.273 321.895 182.061 321.895ZM177.421 236.634C176.762 236.635 176.103 236.676 175.449 236.755C167.162 237.769 164.649 238.353 162.015 244.744C160.307 248.866 159.999 259.148 159.811 266.652C159.668 271.457 159.558 275.248 159.15 276.68C158.621 278.565 154.841 283.965 150.83 289.673C146.819 295.381 142.62 301.365 141.76 303.734C140.901 306.104 140.372 307.68 140.868 308.704C141.364 309.729 142.763 310.435 145.64 311.349L148.824 312.385C157.056 315.063 172.396 320.044 179.559 320.672C188.772 321.488 189.191 317.829 189.334 316.639C189.387 315.975 189.289 315.309 189.047 314.688C188.595 313.168 187.945 311.096 189.499 306.027C190.204 303.69 191.207 300.241 192.32 296.45C194.756 288.119 197.511 278.675 198.712 275.182L199.274 273.551C200.828 269.088 202.293 264.867 202.04 260.933C201.731 256.128 196.453 248.083 195.858 247.18C194.535 245.196 192.364 241.89 191.968 241.284C191.097 240.733 184.375 236.634 177.421 236.634Z" fill="#0C2ACB"/>
<path d="M255.311 216.93C255.311 216.93 257.515 211.233 258.528 210.208C260.287 208.455 261.677 206.368 262.617 204.07C263.344 201.734 263.642 200.125 264.226 201.59C264.81 203.056 265.691 204.367 264.81 207.288L263.939 210.208C263.939 210.208 274.011 205.976 276.061 204.808C278.111 203.64 279.422 203.199 279.566 204.224C279.709 205.249 279.125 205.976 277.229 207.288C275.334 208.599 270.617 211.09 270.21 212.104C269.802 213.117 272.414 213.569 273.284 213.128C274.155 212.688 279.709 210.208 280.59 209.922C281.472 209.635 283.213 209.624 282.486 210.935C281.759 212.247 278.982 214.44 276.491 215.465C275.173 215.985 273.904 216.623 272.7 217.371C274.59 217.609 276.498 217.657 278.397 217.514C280.734 217.217 282.927 216.346 282.805 217.074C282.684 217.801 281.208 219.123 278.287 220.137C276.577 220.743 274.813 221.186 273.02 221.459C273.02 221.459 277.99 223.212 279.455 223.212C280.921 223.212 280.91 224.237 278.287 224.523C275.219 224.765 272.134 224.717 269.075 224.38C266.154 224.082 262.066 226.275 262.066 226.275L255.311 216.93Z" fill="white"/>
<path d="M262.033 226.825C261.946 226.825 261.86 226.804 261.783 226.764C261.707 226.724 261.641 226.665 261.592 226.593L254.87 217.248C254.816 217.175 254.782 217.088 254.77 216.998C254.758 216.907 254.77 216.815 254.804 216.73C255.024 216.135 257.063 210.89 258.11 209.821C259.805 208.128 261.15 206.117 262.066 203.903C262.176 203.55 262.275 203.209 262.363 202.889C262.859 201.258 263.08 200.509 263.741 200.476C264.402 200.443 264.589 201.104 264.7 201.379L264.931 201.919C265.367 202.764 265.624 203.688 265.689 204.636C265.753 205.583 265.623 206.534 265.306 207.429L264.766 209.237C267.422 208.135 274.155 205.225 275.786 204.311C277.758 203.209 278.805 202.878 279.488 203.209C279.663 203.294 279.811 203.423 279.92 203.583C280.028 203.744 280.092 203.93 280.106 204.123C280.304 205.534 279.4 206.438 277.538 207.727C276.921 208.157 276.028 208.697 275.092 209.27C273.538 210.206 270.948 211.771 270.684 212.311C270.968 212.527 271.308 212.657 271.664 212.686C272.11 212.784 272.574 212.761 273.009 212.62C273.89 212.179 279.466 209.689 280.381 209.38C280.877 209.215 282.31 208.95 282.938 209.7C283.099 209.916 283.186 210.179 283.186 210.449C283.186 210.719 283.099 210.982 282.938 211.198C282.089 212.708 279.169 214.934 276.678 215.959C275.786 216.334 275.047 216.675 274.474 216.973C275.75 217.088 277.034 217.088 278.309 216.973C279.125 216.874 279.918 216.697 280.624 216.543C281.99 216.245 282.684 216.091 283.092 216.488C283.184 216.578 283.25 216.69 283.285 216.814C283.32 216.938 283.322 217.068 283.29 217.193C283.07 218.295 281.086 219.728 278.409 220.675C277.324 221.047 276.221 221.36 275.103 221.612C276.48 222.122 277.905 222.491 279.356 222.714C280.458 222.714 280.855 223.188 280.888 223.64C280.921 224.092 280.602 224.863 278.243 225.128C275.138 225.371 272.017 225.323 268.92 224.984C266.198 224.698 262.308 226.792 262.231 226.814C262.166 226.829 262.099 226.832 262.033 226.825ZM255.939 216.852L262.209 225.568C263.366 225.006 266.617 223.574 269.097 223.827C272.116 224.166 275.16 224.214 278.188 223.97C278.561 223.934 278.93 223.864 279.29 223.761C277.071 223.358 274.892 222.761 272.777 221.976C272.659 221.934 272.559 221.854 272.493 221.748C272.427 221.641 272.399 221.516 272.414 221.392C272.425 221.269 272.479 221.154 272.565 221.066C272.651 220.977 272.765 220.921 272.888 220.907C274.64 220.644 276.364 220.212 278.034 219.618C279.498 219.212 280.84 218.455 281.946 217.414C281.626 217.469 281.219 217.557 280.844 217.645C280.117 217.799 279.29 217.987 278.42 218.086C276.473 218.242 274.515 218.194 272.579 217.942C272.469 217.926 272.366 217.878 272.284 217.803C272.202 217.729 272.143 217.631 272.116 217.524C272.091 217.414 272.099 217.3 272.14 217.195C272.182 217.091 272.254 217.002 272.348 216.94C273.585 216.178 274.887 215.525 276.238 214.989C278.482 214.077 280.452 212.6 281.957 210.702C282.016 210.617 282.054 210.519 282.067 210.416C281.621 210.291 281.146 210.311 280.712 210.471C279.863 210.757 274.331 213.226 273.483 213.656C272.896 213.86 272.27 213.922 271.656 213.838C271.041 213.753 270.455 213.525 269.945 213.171C269.776 213.017 269.658 212.815 269.609 212.592C269.56 212.369 269.581 212.136 269.67 211.926C270.011 211.121 271.708 210.041 274.474 208.366C275.4 207.804 276.282 207.264 276.866 206.867C278.783 205.545 279.07 204.994 278.971 204.333C278.893 204.212 278.431 204.09 276.293 205.314C274.155 206.537 264.512 210.57 264.105 210.746C264.009 210.786 263.904 210.797 263.802 210.779C263.7 210.762 263.606 210.716 263.528 210.647C263.451 210.578 263.395 210.489 263.367 210.389C263.338 210.29 263.338 210.185 263.366 210.085L264.237 207.165C264.519 206.391 264.635 205.566 264.578 204.744C264.521 203.922 264.292 203.121 263.906 202.393L263.774 202.074C263.664 202.415 263.532 202.834 263.41 203.242C263.289 203.65 263.212 203.903 263.102 204.267C262.133 206.649 260.694 208.812 258.87 210.625C258.264 211.253 256.765 214.659 255.939 216.852Z" fill="#0C2ACB"/>
<path d="M173.807 257.979C173.807 257.979 199.374 261.484 206.526 260.9C213.071 260.192 219.446 258.362 225.37 255.489C228.588 253.737 255.311 231.972 256.777 230.22C258.242 228.468 263.785 226.572 263.785 226.572C263.785 226.572 256.193 218.098 255.311 216.93L254.44 215.762C254.44 215.762 255.025 217.966 244.071 225.988C233.117 234.011 225.083 239.278 218.207 240.314C210.882 241.249 203.463 241.149 196.167 240.017C191.053 238.992 177.907 234.176 171.328 238.265C164.749 242.353 166.402 248.601 166.402 248.601" fill="white"/>
<path d="M204.553 261.516C195.66 261.516 174.689 258.65 173.697 258.518C173.625 258.508 173.555 258.484 173.492 258.447C173.429 258.41 173.374 258.361 173.33 258.302C173.286 258.244 173.254 258.178 173.236 258.107C173.217 258.036 173.213 257.962 173.223 257.89C173.233 257.818 173.258 257.748 173.295 257.685C173.332 257.622 173.381 257.567 173.439 257.523C173.498 257.479 173.564 257.447 173.635 257.429C173.705 257.41 173.779 257.406 173.851 257.416C174.105 257.416 199.44 260.899 206.449 260.337C212.918 259.639 219.218 257.831 225.072 254.992C228.268 253.251 254.992 231.453 256.325 229.855C257.659 228.257 261.185 226.924 262.805 226.318C261.031 224.334 255.598 218.251 254.837 217.248L254.606 216.94C253.813 218.427 251.388 221.271 244.357 226.417C232.676 234.98 225.061 239.817 218.262 240.831C210.869 241.782 203.378 241.682 196.013 240.534C195.021 240.335 193.754 240.005 192.288 239.619C186.084 237.988 176.706 235.52 171.581 238.715C165.421 242.539 166.843 248.424 166.854 248.479C166.872 248.549 166.876 248.622 166.866 248.694C166.856 248.766 166.832 248.835 166.795 248.898C166.758 248.96 166.709 249.015 166.651 249.058C166.593 249.102 166.527 249.133 166.457 249.151C166.315 249.185 166.166 249.163 166.041 249.089C165.915 249.015 165.824 248.895 165.785 248.755C165.785 248.688 164.165 242.032 170.997 237.735C176.507 234.296 186.183 236.831 192.574 238.506C194.018 238.892 195.274 239.222 196.233 239.41C203.471 240.537 210.832 240.634 218.097 239.696C224.632 238.726 232.423 233.745 243.707 225.48C253.735 218.13 253.857 215.86 253.857 215.772C253.826 215.652 253.838 215.525 253.893 215.413C253.948 215.302 254.04 215.214 254.154 215.166C254.277 215.119 254.411 215.114 254.537 215.152C254.662 215.19 254.772 215.268 254.848 215.375L255.719 216.543C256.579 217.645 264.094 226.064 264.16 226.141C264.224 226.208 264.269 226.289 264.292 226.378C264.315 226.467 264.315 226.56 264.293 226.648C264.267 226.737 264.22 226.818 264.157 226.885C264.094 226.952 264.016 227.003 263.929 227.034C262.43 227.552 258.287 229.172 257.163 230.516C255.73 232.236 229.051 254.044 225.601 255.918C219.608 258.831 213.16 260.694 206.537 261.428C206.008 261.494 205.325 261.516 204.553 261.516Z" fill="#0C2ACB"/>
<path d="M255.166 229.745C255.085 229.745 255.004 229.728 254.93 229.693C254.855 229.659 254.79 229.609 254.737 229.547L249.48 222.935C249.388 222.821 249.345 222.675 249.361 222.529C249.376 222.383 249.449 222.25 249.563 222.158C249.677 222.066 249.823 222.023 249.968 222.038C250.114 222.054 250.248 222.127 250.34 222.24L255.596 228.852C255.642 228.908 255.677 228.973 255.697 229.043C255.718 229.112 255.724 229.185 255.716 229.257C255.707 229.329 255.685 229.398 255.649 229.462C255.614 229.525 255.566 229.58 255.508 229.624C255.414 229.706 255.292 229.749 255.166 229.745Z" fill="#0C2ACB"/>
<path d="M252.357 226.242C252.246 226.241 252.138 226.206 252.048 226.143C251.957 226.08 251.888 225.99 251.848 225.887C251.809 225.783 251.802 225.671 251.828 225.563C251.853 225.455 251.911 225.358 251.993 225.284L256.522 221.195C256.572 221.144 256.632 221.103 256.699 221.075C256.765 221.048 256.836 221.033 256.908 221.033C256.98 221.033 257.051 221.048 257.117 221.075C257.183 221.103 257.243 221.144 257.294 221.195C257.345 221.247 257.386 221.307 257.414 221.375C257.442 221.442 257.457 221.514 257.457 221.586C257.457 221.659 257.442 221.731 257.414 221.798C257.386 221.866 257.345 221.926 257.294 221.978L252.764 226.066C252.712 226.122 252.649 226.167 252.579 226.197C252.509 226.228 252.433 226.243 252.357 226.242Z" fill="#0C2ACB"/>
<path d="M257.359 225.216C257.271 225.217 257.183 225.197 257.105 225.157C257.026 225.116 256.958 225.057 256.908 224.984C256.866 224.925 256.836 224.857 256.821 224.786C256.806 224.714 256.805 224.641 256.818 224.569C256.831 224.497 256.859 224.429 256.899 224.368C256.939 224.306 256.99 224.254 257.051 224.213L259.387 222.604C259.508 222.522 259.657 222.492 259.801 222.52C259.944 222.548 260.071 222.632 260.153 222.753C260.235 222.874 260.265 223.023 260.237 223.167C260.209 223.31 260.125 223.437 260.004 223.519L257.668 225.128C257.575 225.185 257.468 225.215 257.359 225.216Z" fill="#0C2ACB"/>
<path d="M166.501 268.162C166.375 268.163 166.254 268.121 166.155 268.043C166.057 267.964 165.989 267.855 165.961 267.733C165.945 267.662 165.943 267.59 165.955 267.519C165.968 267.448 165.994 267.38 166.033 267.319C166.072 267.259 166.123 267.207 166.183 267.166C166.242 267.125 166.309 267.097 166.38 267.082C167.498 266.827 168.602 266.511 169.686 266.135C169.755 266.103 169.831 266.087 169.907 266.086C169.983 266.085 170.059 266.1 170.129 266.13C170.2 266.16 170.263 266.205 170.315 266.261C170.367 266.316 170.407 266.382 170.432 266.454C170.458 266.526 170.468 266.603 170.462 266.679C170.456 266.755 170.434 266.829 170.398 266.897C170.362 266.964 170.313 267.023 170.253 267.07C170.193 267.118 170.123 267.152 170.049 267.171C168.924 267.565 167.776 267.893 166.611 268.151L166.501 268.162Z" fill="#0C2ACB"/>
<path d="M172.671 266.146C172.562 266.147 172.455 266.115 172.364 266.054C172.274 265.993 172.204 265.906 172.164 265.804C172.135 265.737 172.12 265.665 172.119 265.592C172.119 265.518 172.132 265.446 172.16 265.378C172.188 265.31 172.229 265.249 172.28 265.197C172.332 265.145 172.394 265.105 172.461 265.077C176.598 263.311 180.612 261.268 184.473 258.961C184.535 258.923 184.604 258.898 184.676 258.887C184.748 258.876 184.822 258.88 184.892 258.897C184.963 258.914 185.029 258.945 185.088 258.989C185.146 259.032 185.196 259.086 185.234 259.148C185.271 259.21 185.296 259.279 185.307 259.351C185.318 259.423 185.315 259.496 185.297 259.567C185.28 259.638 185.249 259.704 185.206 259.763C185.163 259.821 185.108 259.871 185.046 259.908C181.147 262.24 177.098 264.309 172.924 266.102C172.843 266.132 172.757 266.147 172.671 266.146Z" fill="#0C2ACB"/>
<path d="M170.302 276.052C170.214 276.054 170.126 276.033 170.048 275.993C169.969 275.952 169.901 275.893 169.851 275.821C169.808 275.761 169.778 275.694 169.762 275.624C169.746 275.553 169.744 275.479 169.756 275.407C169.768 275.336 169.795 275.267 169.834 275.206C169.873 275.144 169.923 275.091 169.983 275.049C175.857 270.895 186.149 259.897 186.259 259.787C186.36 259.68 186.499 259.618 186.646 259.614C186.793 259.609 186.935 259.664 187.042 259.765C187.148 259.865 187.211 260.004 187.215 260.151C187.219 260.298 187.165 260.44 187.064 260.547C186.634 260.999 176.584 271.732 170.622 275.975C170.525 276.031 170.414 276.058 170.302 276.052Z" fill="#0C2ACB"/>
<path d="M161.531 281.662C161.409 281.66 161.291 281.618 161.196 281.542C161.101 281.466 161.033 281.36 161.004 281.242C160.975 281.123 160.986 280.999 161.036 280.887C161.085 280.776 161.17 280.684 161.278 280.626C163.118 279.634 167.735 276.317 167.79 276.284C167.909 276.214 168.05 276.19 168.185 276.219C168.32 276.247 168.439 276.325 168.519 276.437C168.6 276.549 168.635 276.687 168.618 276.824C168.602 276.961 168.534 277.087 168.43 277.177C168.242 277.309 163.702 280.571 161.818 281.585C161.73 281.635 161.632 281.661 161.531 281.662Z" fill="#0C2ACB"/>
</svg>
