<svg width="168" height="37" viewBox="0 0 168 37" fill="none" xmlns="http://www.w3.org/2000/svg">
<path d="M0.792 21.312C0.792 24.948 3.78 27.468 8.532 27.468C13.212 27.468 16.488 25.128 16.488 21.276C16.488 18.396 14.868 17.028 11.916 16.38L8.568 15.66C7.308 15.372 6.624 14.904 6.624 14.076C6.624 13.104 7.416 12.456 8.676 12.456C10.008 12.456 10.764 13.284 10.764 14.508H16.02C16.02 10.872 13.104 8.424 8.928 8.424C4.608 8.424 1.404 10.584 1.404 14.328C1.404 17.496 3.024 18.936 6.336 19.656L9.648 20.376C10.98 20.664 11.268 21.24 11.268 21.78C11.268 22.716 10.476 23.328 8.748 23.328C7.056 23.328 6.12 22.572 6.048 21.312H0.792ZM27.3769 27V13.608H30.7969V9H27.3769V3.42H21.8329V9H18.4129V13.608H21.8329V27H27.3769ZM32.8607 17.964C32.8607 23.652 37.0367 27.432 42.7967 27.432C48.5207 27.432 52.6967 23.652 52.6967 17.964C52.6967 12.276 48.5207 8.46 42.7967 8.46C37.0367 8.46 32.8607 12.276 32.8607 17.964ZM38.4407 17.928C38.4407 15.228 40.2047 13.428 42.7967 13.428C45.3527 13.428 47.1167 15.228 47.1167 17.928C47.1167 20.664 45.3527 22.464 42.7967 22.464C40.2047 22.464 38.4407 20.664 38.4407 17.928ZM69.0148 9C68.2588 8.82 67.5388 8.748 66.8908 8.748C64.4788 8.748 62.8948 9.936 62.1388 11.7L61.8508 9.036H56.6308V27H62.1748V19.188C62.1748 15.624 64.0828 14.22 67.2508 14.22H69.0148V9ZM71.6257 35.64C72.7057 35.964 73.9657 36.144 75.2977 36.144C78.4657 36.144 80.4817 34.596 81.9937 30.924L91.1377 9H85.3777L81.0217 20.556L77.0977 9H71.1577L78.3937 27.612L78.0697 28.476C77.3497 30.42 76.5577 30.996 74.6857 30.996H71.6257V35.64Z" fill="#0C2ACB"/>
<path d="M97.8491 27L100.225 12.132H103.609L104.041 9.396H100.657L101.521 3.888H98.2811L97.4171 9.396H94.0331L93.6011 12.132H96.9851L94.6451 27H97.8491ZM117.562 9.252C116.986 9.108 116.374 9.036 115.762 9.036C113.458 9.036 111.55 10.296 110.506 12.168L110.722 9.396H107.77L104.962 27H108.202L109.714 17.568C110.218 14.184 112.558 12.24 115.618 12.24H117.094L117.562 9.252ZM123.695 5.148C124.991 5.148 126.179 3.924 126.179 2.592C126.179 1.548 125.423 0.755999 124.343 0.755999C123.011 0.755999 121.823 1.98 121.823 3.312C121.823 4.356 122.615 5.148 123.695 5.148ZM118.619 27H121.859L124.631 9.396H121.427L118.619 27ZM130.413 27L131.133 23.76C131.961 26.028 134.265 27.432 137.109 27.432C142.401 27.432 146.397 22.932 146.397 16.74C146.397 12.132 143.481 8.928 139.341 8.928C136.605 8.928 134.481 10.152 132.969 12.492L134.841 0.503998H131.601L127.425 27H130.413ZM131.997 19.548C131.997 15.192 134.841 11.808 138.513 11.808C141.357 11.808 143.157 13.824 143.157 16.92C143.157 21.24 140.349 24.552 136.677 24.552C133.689 24.552 131.997 22.68 131.997 19.548ZM157.227 27.432C161.079 27.432 164.427 25.164 165.615 21.564H162.375C161.583 23.544 159.639 24.696 157.335 24.696C154.419 24.696 152.655 22.68 152.655 19.404C152.655 19.188 152.655 19.008 152.655 18.828L166.047 18.792L166.227 17.568C167.019 12.528 164.103 8.928 159.099 8.928C153.663 8.928 149.487 13.572 149.487 19.584C149.487 24.336 152.547 27.432 157.227 27.432ZM158.955 11.664C161.871 11.664 163.599 13.644 163.131 16.632H153.051C153.915 13.68 156.183 11.664 158.955 11.664Z" fill="#030B33"/>
</svg>
