<svg width="52" height="48" viewBox="0 0 52 48" fill="none" xmlns="http://www.w3.org/2000/svg">
<rect width="52" height="48" rx="24" fill="#CCDFFB"/>
<path d="M26.002 9.00195C17.737 9.00195 11.002 15.737 11.002 24.002C11.002 32.267 17.737 39.002 26.002 39.002C34.267 39.002 41.002 32.267 41.002 24.002C41.002 15.737 34.267 9.00195 26.002 9.00195ZM33.172 20.552L24.667 29.057C24.457 29.267 24.172 29.387 23.872 29.387C23.572 29.387 23.287 29.267 23.077 29.057L18.832 24.812C18.397 24.377 18.397 23.657 18.832 23.222C19.267 22.787 19.987 22.787 20.422 23.222L23.872 26.672L31.582 18.962C32.017 18.527 32.737 18.527 33.172 18.962C33.607 19.397 33.607 20.102 33.172 20.552Z" fill="#0C2ACB"/>
</svg>
