<svg width="260" height="243" viewBox="0 0 260 243" fill="none" xmlns="http://www.w3.org/2000/svg">
<path d="M174.674 139.313C174.674 139.313 188.808 169.478 188.808 171.071C188.808 172.663 176.267 179.485 173.878 180.918C172.025 181.973 170.116 182.926 168.158 183.771L169.591 197.745C169.591 197.745 191.183 192.822 200.234 187.898C209.285 182.975 208.966 177.414 206.87 169.16C204.773 160.905 190.825 129.002 190.825 129.002L174.674 139.313Z" fill="white"/>
<g style="mix-blend-mode:multiply" opacity="0.5">
<path d="M200.198 187.896C209.249 182.973 208.93 177.412 206.833 169.158C204.736 160.903 190.789 129 190.789 129L188.533 130.433L187.816 131.76C187.816 131.76 200.835 163.717 201.618 174.36C202.149 181.513 187.75 190.431 178.234 195.527C185.295 193.656 194.903 190.776 200.198 187.896Z" fill="#CCDFFB"/>
</g>
<path d="M174.674 139.313C174.674 139.313 188.808 169.478 188.808 171.071C188.808 172.663 176.267 179.485 173.878 180.918C172.025 181.973 170.116 182.926 168.158 183.771L169.591 197.745C169.591 197.745 191.183 192.822 200.234 187.898C209.285 182.975 208.966 177.414 206.87 169.16C204.773 160.905 190.825 129.002 190.825 129.002L174.674 139.313Z" stroke="#0F2077" stroke-linecap="round" stroke-linejoin="round"/>
<path d="M72.7021 132.648C72.7021 132.648 62.3906 170.431 62.0854 177.106C61.7801 183.781 82.5624 196.946 83.3188 197.742C84.0753 198.539 82.1377 174.784 82.1377 174.784L89.1846 140.279L72.7021 132.648Z" fill="white"/>
<g style="mix-blend-mode:multiply" opacity="0.5">
<path d="M77.4246 135.741L77.199 134.719L72.7001 132.648C72.7001 132.648 62.3886 170.431 62.0834 177.106C61.7782 183.781 82.5604 196.946 83.3169 197.742C83.6221 198.061 83.5027 194.504 83.2505 190.112C77.0663 184.87 68.188 177.491 67.1529 174.385" fill="#CCDFFB"/>
</g>
<path d="M72.7021 132.648C72.7021 132.648 62.3906 170.431 62.0854 177.106C61.7801 183.781 82.5624 196.946 83.3188 197.742C84.0753 198.539 82.1377 174.784 82.1377 174.784L89.1846 140.279L72.7021 132.648Z" stroke="#0F2077" stroke-linecap="round" stroke-linejoin="round"/>
<path d="M121.13 94.6942C121.13 94.6942 117.149 97.5607 109.385 97.8792C101.622 98.1977 101.25 92.5708 91.6021 92.5708C79.9105 92.5708 65.2461 129.557 65.2461 129.557C65.2461 129.557 72.5451 136.71 79.6981 139.722C83.6551 141.456 87.8153 142.682 92.0799 143.372L93.1947 167.671H171.944L172.887 143.372L197.504 127.407C197.504 127.407 185.428 105.815 179.562 97.72C173.696 89.6247 163.836 92.6372 160.823 94.6942C157.811 96.7512 148.879 97.2422 145.588 96.7645C141.295 95.8142 137.052 94.6493 132.875 93.2742C132.875 93.2742 127.805 89.0541 121.13 94.6942Z" fill="#CCDFFB" stroke="#0F2077" stroke-linecap="round" stroke-linejoin="round"/>
<path d="M92.8752 103.268L92.5566 143.598" stroke="#0F2077" stroke-width="0.5" stroke-linecap="round" stroke-linejoin="round"/>
<path d="M95.7305 106.93C95.7305 106.93 96.8452 126.61 101.039 137.572" stroke="#0F2077" stroke-width="0.5" stroke-linecap="round" stroke-linejoin="round"/>
<path d="M101.768 139.152C102.673 141.828 103.787 144.428 105.099 146.929" stroke="#0F2077" stroke-width="0.5" stroke-linecap="round" stroke-linejoin="round"/>
<path d="M98.2617 104.701C99.7683 111.857 101.895 118.869 104.619 125.656" stroke="#0F2077" stroke-width="0.5" stroke-linecap="round" stroke-linejoin="round"/>
<path d="M166.714 108.189C166.714 108.189 162.905 123.756 159.561 130.75" stroke="#0F2077" stroke-width="0.5" stroke-linecap="round" stroke-linejoin="round"/>
<path d="M172.886 143.439L172.727 112" stroke="#0F2077" stroke-width="0.5" stroke-linecap="round" stroke-linejoin="round"/>
<path d="M171.146 112.635C171.146 112.635 168.279 132.541 161.299 142.959" stroke="#0F2077" stroke-width="0.5" stroke-linecap="round" stroke-linejoin="round"/>
<path d="M167.657 138.994C167.657 138.994 164.472 145.032 162.256 148.204" stroke="#0F2077" stroke-width="0.5" stroke-linecap="round" stroke-linejoin="round"/>
<path d="M116.684 97.084C116.684 97.084 118.913 110.74 122.085 117.72C125.257 124.701 130.817 126.134 135.581 124.077C140.346 122.02 143.836 111.841 143.544 98.8623" stroke="#0F2077" stroke-width="0.5" stroke-linecap="round" stroke-linejoin="round"/>
<path d="M105.416 68.4954C105.416 68.4954 102.391 63.2667 100.015 65.9607C97.6397 68.6547 101.926 74.8522 104.302 76.9092C106.677 78.9662 108.429 77.7055 108.283 75.4892C108.137 73.273 105.416 68.4954 105.416 68.4954Z" fill="#CCDFFB" stroke="#0F2077" stroke-linecap="round" stroke-linejoin="round"/>
<path opacity="0.5" d="M105.416 68.4954C105.416 68.4954 102.391 63.2667 100.015 65.9607C97.6397 68.6547 101.926 74.8522 104.302 76.9092C106.677 78.9662 108.429 77.7055 108.283 75.4892C108.137 73.273 105.416 68.4954 105.416 68.4954Z" fill="white"/>
<path d="M105.416 68.4954C105.416 68.4954 102.391 63.2667 100.015 65.9607C97.6397 68.6547 101.926 74.8522 104.302 76.9092C106.677 78.9662 108.429 77.7055 108.283 75.4892C108.137 73.273 105.416 68.4954 105.416 68.4954Z" stroke="#0F2077" stroke-linecap="round" stroke-linejoin="round"/>
<path d="M153.445 68.4954C153.445 68.4954 156.457 63.2667 158.846 65.9607C161.235 68.6547 156.935 74.8522 154.56 76.9092C152.184 78.9662 150.419 77.7055 150.578 75.4892C150.738 73.273 153.445 68.4954 153.445 68.4954Z" fill="#CCDFFB" stroke="#0F2077" stroke-linecap="round" stroke-linejoin="round"/>
<path opacity="0.5" d="M153.445 68.4954C153.445 68.4954 156.457 63.2667 158.846 65.9607C161.235 68.6547 156.935 74.8522 154.56 76.9092C152.184 78.9662 150.419 77.7055 150.578 75.4892C150.738 73.273 153.445 68.4954 153.445 68.4954Z" fill="white"/>
<path d="M153.445 68.4954C153.445 68.4954 156.457 63.2667 158.846 65.9607C161.235 68.6547 156.935 74.8522 154.56 76.9092C152.184 78.9662 150.419 77.7055 150.578 75.4892C150.738 73.273 153.445 68.4954 153.445 68.4954Z" stroke="#0F2077" stroke-linecap="round" stroke-linejoin="round"/>
<path d="M119.693 93.5938C121.192 100.37 123.102 107.049 125.413 113.593C128.28 120.733 133.668 120.733 135.897 116.128C138.127 111.523 139.547 94.3635 139.547 94.3635C139.547 94.3635 124.617 96.447 119.693 93.5938Z" fill="white" stroke="#0F2077" stroke-linecap="round" stroke-linejoin="round"/>
<path d="M105.734 70.2486C105.734 70.2486 109.861 84.8466 117.678 93.4329C125.494 102.019 128.294 104.05 132.448 103.426C136.602 102.802 141.021 97.4009 147.205 86.1737C153.39 74.9465 153.841 66.3336 154.358 65.5374C154.876 64.7411 153.031 48.8691 144.193 42.0346C135.354 35.2001 125.454 32.2008 116.881 39.6591C108.308 47.1173 102.867 59.2868 105.734 70.2486Z" fill="white"/>
<g style="mix-blend-mode:multiply" opacity="0.5">
<path d="M144.155 41.9818C135.263 35.1606 125.416 32.1481 116.843 39.6063C108.27 47.0646 102.869 59.2871 105.735 70.2489C105.735 70.2489 106.518 73.0623 108.071 76.8843C108.066 76.395 108.133 75.9077 108.27 75.4378C110.168 69.4261 115.768 57.7875 134.613 63.1224C149.582 67.3425 147.751 80.5073 146.358 87.5276L147.167 86.0678C153.365 74.8008 153.803 66.2278 154.32 65.4315C154.838 64.6353 153.046 48.8163 144.155 41.9818Z" fill="#CCDFFB"/>
</g>
<path d="M105.734 70.2486C105.734 70.2486 109.861 84.8466 117.678 93.4329C125.494 102.019 128.294 104.05 132.448 103.426C136.602 102.802 141.021 97.4009 147.205 86.1737C153.39 74.9465 153.841 66.3336 154.358 65.5374C154.876 64.7411 153.031 48.8691 144.193 42.0346C135.354 35.2001 125.454 32.2008 116.881 39.6591C108.308 47.1173 102.867 59.2868 105.734 70.2486Z" stroke="#0F2077" stroke-linecap="round" stroke-linejoin="round"/>
<path d="M132.407 77.8652C131.914 80.9649 131.648 84.0962 131.61 87.2345C131.77 90.4063 132.725 91.3617 131.292 91.6802C129.859 91.9988 128.279 89.7692 128.279 89.7692" stroke="#0F2077" stroke-linecap="round" stroke-linejoin="round"/>
<path d="M116.525 80.4141C117.445 81.0785 118.545 81.4493 119.679 81.4777C120.814 81.5061 121.93 81.1909 122.882 80.5733" stroke="#0F2077" stroke-linecap="round" stroke-linejoin="round"/>
<path d="M136.695 80.4141C137.613 81.0774 138.71 81.4475 139.842 81.476C140.975 81.5044 142.089 81.1897 143.039 80.5733" stroke="#0F2077" stroke-linecap="round" stroke-linejoin="round"/>
<path d="M127.695 96.4141C128.613 97.0774 129.71 97.4475 130.842 97.476C131.975 97.5044 133.089 97.1897 134.039 96.5733" stroke="#0F2077" stroke-linecap="round" stroke-linejoin="round"/>
<path d="M126.663 75.0663C126.663 75.0663 123.638 67.5947 113.645 71.085" stroke="#0F2077" stroke-linecap="round" stroke-linejoin="round"/>
<path d="M134.984 74.1504C134.984 74.1504 137.519 66.8381 146.57 71.1246" stroke="#0F2077" stroke-linecap="round" stroke-linejoin="round"/>
<path d="M128.586 80.96C128.586 85.0474 123.901 88.3519 118.115 88.3519C112.329 88.3519 107.631 85.0474 107.631 80.96C107.631 76.8725 112.01 75.1738 117.796 75.1738C123.583 75.1738 128.586 76.8858 128.586 80.96Z" stroke="#0F2077" stroke-linecap="round" stroke-linejoin="round"/>
<path d="M152.726 80.96C152.726 85.0474 148.028 88.3519 142.242 88.3519C136.456 88.3519 131.771 85.0474 131.771 80.96C131.771 76.8725 136.138 75.1738 141.924 75.1738C147.71 75.1738 152.726 76.8858 152.726 80.96Z" stroke="#0F2077" stroke-linecap="round" stroke-linejoin="round"/>
<path d="M18.9179 208.266L18.2676 369.149C18.2676 369.656 18.4689 370.142 18.8273 370.5C19.1857 370.859 19.6718 371.06 20.1786 371.06C20.6728 371.06 21.1477 370.868 21.5021 370.523C21.8565 370.179 22.0625 369.709 22.0763 369.215L26.6681 208.491L18.9179 208.266Z" fill="white" stroke="#0F2077" stroke-linecap="round" stroke-linejoin="round"/>
<path d="M241.335 208.266L241.985 369.149C241.987 369.399 241.939 369.648 241.844 369.879C241.75 370.111 241.61 370.322 241.434 370.5C241.257 370.677 241.048 370.818 240.816 370.914C240.585 371.011 240.337 371.06 240.087 371.06C239.592 371.06 239.115 370.868 238.759 370.524C238.402 370.18 238.193 369.711 238.176 369.215L233.598 208.491L241.335 208.266Z" fill="white" stroke="#0F2077" stroke-linecap="round" stroke-linejoin="round"/>
<path d="M128.229 263.13C160.845 263.13 187.285 257.087 187.285 249.633C187.285 242.179 160.845 236.137 128.229 236.137C95.6139 236.137 69.1738 242.179 69.1738 249.633C69.1738 257.087 95.6139 263.13 128.229 263.13Z" fill="white" stroke="#0F2077" stroke-linecap="round" stroke-linejoin="round"/>
<path d="M101.249 272.192C101.368 266.751 104.513 264.071 104.752 260.342C105.127 255.412 104.719 250.453 103.545 245.651L97.493 237.383C80.0816 237.608 67.6069 237.9 67.4078 237.967C66.7443 238.179 66.2931 241.948 65.8552 245.04C65.8552 245.04 58.4632 245.982 59.7903 266.552C59.9761 269.419 67.4344 302.583 67.9785 306.365C71.2962 329.47 78.6881 341.042 78.6881 341.042C78.6881 341.042 79.3517 343.922 87.9778 343.258C96.6039 342.595 105.23 336.848 105.23 336.848C105.23 336.848 100.797 291.873 101.249 272.192Z" fill="#0F2077" stroke="#0F2077" stroke-linecap="round" stroke-linejoin="round"/>
<path d="M64.6605 241.67C64.6605 241.67 55.5168 242.997 49.9165 249.394C44.3162 255.79 49.0672 260.01 59.9493 258.869C70.8315 257.728 83.3858 246.594 83.9166 245.996C84.4474 245.399 72.57 237.835 64.6605 241.67Z" fill="white" stroke="#0F2077" stroke-linecap="round" stroke-linejoin="round"/>
<path d="M80.8914 245.652C86.717 245.952 92.4973 246.841 98.1436 248.306C105.668 250.522 118.939 254.942 122.031 254.942C125.123 254.942 124.248 243.436 124.248 241.233C124.248 239.03 84.4348 237.689 79.5643 237.689C74.6939 237.689 80.8914 245.652 80.8914 245.652Z" fill="white" stroke="#0F2077" stroke-linecap="round" stroke-linejoin="round"/>
<path d="M124.247 241.23C124.247 241.23 120.703 242.995 119.376 249.631C118.049 256.266 116.284 259.81 118.938 261.575C121.593 263.34 133.099 264.667 134.864 262.902C136.629 261.137 141.499 252.285 142.388 246.539C143.277 240.792 124.247 241.23 124.247 241.23Z" fill="#CCDFFB" stroke="#0F2077" stroke-linecap="round" stroke-linejoin="round"/>
<path d="M139.284 243.435C137.227 245.796 135.585 248.488 134.427 251.398C133.489 254.443 132.749 257.546 132.211 260.687C136.445 261.848 140.584 263.33 144.593 265.12C151.679 268.212 163.623 270.428 175.116 273.082C186.608 275.736 189.714 278.391 193.695 278.391C197.676 278.391 202.547 275.285 208.744 267.774C214.942 260.263 209.62 244.324 203.436 239.454C197.252 234.583 164.061 230.615 159.642 231.942C155.223 233.27 139.284 243.435 139.284 243.435Z" fill="#0F2077" stroke="#0F2077" stroke-linecap="round" stroke-linejoin="round"/>
<path d="M258.894 236.878L254.116 232.578L243.075 208.691C242.551 207.604 241.729 206.689 240.704 206.052C239.68 205.415 238.495 205.083 237.289 205.094H22.8307C21.6221 205.08 20.4346 205.411 19.4075 206.048C18.3803 206.685 17.556 207.602 17.0313 208.691L3.26932 238.444L1 237.608V244.416L1.10617 244.336C1.24135 245.245 1.70235 246.073 2.40317 246.666C3.104 247.259 3.99677 247.578 4.91492 247.561H255.191C256.158 247.583 257.096 247.229 257.807 246.573C258.517 245.917 258.945 245.01 259 244.044L258.894 236.878Z" fill="#0F2077" stroke="#0F2077" stroke-linecap="round" stroke-linejoin="round"/>
<path d="M255.192 241.337H4.91568C4.29589 241.361 3.68 241.228 3.12576 240.95C2.57151 240.671 2.09707 240.257 1.7469 239.745C1.39674 239.233 1.18233 238.64 1.12378 238.023C1.06523 237.405 1.16445 236.783 1.41215 236.214L17.032 202.466C17.5542 201.375 18.3779 200.457 19.4056 199.82C20.4334 199.182 21.6222 198.853 22.8314 198.87H237.29C238.497 198.855 239.682 199.186 240.708 199.823C241.733 200.46 242.554 201.377 243.076 202.466L258.696 236.214C258.943 236.783 259.042 237.405 258.984 238.023C258.925 238.64 258.711 239.233 258.361 239.745C258.011 240.257 257.536 240.671 256.982 240.95C256.428 241.228 255.812 241.361 255.192 241.337Z" fill="white" stroke="#0F2077" stroke-linecap="round" stroke-linejoin="round"/>
<g style="mix-blend-mode:multiply" opacity="0.5">
<path d="M17.5876 218.671C17.5876 218.671 11.9209 222.559 15.4642 223.979C19.0076 225.399 59.7361 224.338 64.6994 222.918C69.6627 221.498 75.3161 208.399 75.3161 206.276C75.3161 204.152 68.1764 202.626 65.5487 202.507C62.9211 202.387 28.2043 204.497 28.2043 204.497L17.5876 218.671Z" fill="#CCDFFB"/>
</g>
<g style="mix-blend-mode:multiply" opacity="0.5">
<path d="M220.182 225.402C228.201 225.402 234.701 222.704 234.701 219.377C234.701 216.049 228.201 213.352 220.182 213.352C212.164 213.352 205.664 216.049 205.664 219.377C205.664 222.704 212.164 225.402 220.182 225.402Z" fill="#CCDFFB"/>
</g>
<g style="mix-blend-mode:multiply" opacity="0.5">
<path d="M127.751 232.845C156.504 232.845 179.813 228.484 179.813 223.104C179.813 217.724 156.504 213.363 127.751 213.363C98.9983 213.363 75.6895 217.724 75.6895 223.104C75.6895 228.484 98.9983 232.845 127.751 232.845Z" fill="#CCDFFB"/>
</g>
<path d="M209.566 195.67C209.566 195.67 208.61 191.862 205.439 193.136C202.267 194.41 202.585 202.824 203.209 207.588C203.833 212.352 208.133 210.123 208.133 210.123V207.269C208.133 207.269 206.553 208.53 205.757 206.792C204.961 205.053 205.12 196.308 205.916 196.467C206.713 196.626 208.292 199.32 208.292 199.32C208.292 199.32 208.77 199.015 209.566 195.67Z" fill="#CCDFFB" stroke="#0F2077" stroke-linecap="round" stroke-linejoin="round"/>
<path d="M207.283 196.309V217.17C207.283 219.626 212.923 221.616 219.891 221.616C226.858 221.616 232.485 219.626 232.485 217.17V196.309H207.283Z" fill="#CCDFFB" stroke="#0F2077" stroke-linecap="round" stroke-linejoin="round"/>
<path d="M232.485 196.308C232.485 198.431 226.845 200.143 219.891 200.143C212.937 200.143 207.283 198.431 207.283 196.308C207.283 194.185 212.923 192.473 219.891 192.473C226.858 192.473 232.485 194.198 232.485 196.308Z" fill="white" stroke="#0F2077" stroke-linecap="round" stroke-linejoin="round"/>
<path d="M230.838 196.31C230.838 198.154 225.928 199.641 219.89 199.641C213.851 199.641 208.928 198.154 208.928 196.31C208.928 194.465 213.838 192.979 219.89 192.979C225.941 192.979 230.838 194.465 230.838 196.31Z" fill="white" stroke="#0F2077" stroke-linecap="round" stroke-linejoin="round"/>
<path d="M211.436 198.434C216.952 200.044 222.813 200.044 228.329 198.434C222.813 196.824 216.952 196.824 211.436 198.434Z" fill="#0F2077" stroke="#0F2077" stroke-linecap="round" stroke-linejoin="round"/>
<path d="M16.0215 205.836L16.1807 212.976L64.2878 213.454V205.199L16.0215 205.836Z" fill="white" stroke="#0F2077" stroke-linecap="round" stroke-linejoin="round"/>
<path d="M64.2892 213.457L71.283 198.381V193.936L63.9707 206.636L64.2892 213.457Z" fill="white" stroke="#0F2077" stroke-linecap="round" stroke-linejoin="round"/>
<path d="M16.0215 212.339L16.1807 219.492L64.2878 219.969V211.715L16.0215 212.339Z" fill="white" stroke="#0F2077" stroke-linecap="round" stroke-linejoin="round"/>
<path d="M64.2892 219.972L71.283 204.883V200.438L63.9707 213.138L64.2892 219.972Z" fill="white" stroke="#0F2077" stroke-linecap="round" stroke-linejoin="round"/>
<path d="M34.6039 187.736C34.6039 187.736 35.7187 185.52 34.1262 184.564C32.5337 183.609 30.7952 185.891 29.8397 186.621C28.8842 187.351 8.88488 200.595 8.24787 202.666C7.61087 204.736 8.24789 209.301 12.5344 209.805C16.8209 210.31 20.6297 207.43 22.5407 206.952C24.4517 206.474 25.1948 206.315 25.1948 206.315L38.3729 188.532L34.6039 187.736Z" fill="white" stroke="#0F2077" stroke-linecap="round" stroke-linejoin="round"/>
<path d="M12.5309 209.819C16.8174 210.297 20.6262 207.444 22.5372 206.966C24.4482 206.488 25.1914 206.329 25.1914 206.329L25.6691 205.679L13.2873 203.157C12.6142 202.523 11.7487 202.132 10.828 202.046C9.90734 201.959 8.98409 202.182 8.20458 202.68C7.60739 204.723 8.24441 209.328 12.5309 209.819Z" fill="white" stroke="#0F2077" stroke-linecap="round" stroke-linejoin="round"/>
<path d="M13.3281 203.183H50.4867C62.0855 203.183 65.5757 202.546 65.5757 202.546L72.7155 187.775C72.7155 187.775 50.1549 189.209 43.1877 188.731C40.3087 188.648 37.4413 188.328 34.6147 187.775L13.3281 203.183Z" fill="white" stroke="#0F2077" stroke-linecap="round" stroke-linejoin="round"/>
<path d="M13.3281 203.183L13.9651 206.037C13.9651 206.037 44.1299 206.196 52.0659 206.196C60.002 206.196 66.0402 206.514 66.0402 206.514L65.5625 202.533L13.3281 203.183Z" fill="white" stroke="#0F2077" stroke-linecap="round" stroke-linejoin="round"/>
<path d="M66.0403 206.475L72.7023 191.227V187.736L65.5625 202.507L66.0403 206.475Z" fill="white" stroke="#0F2077" stroke-linecap="round" stroke-linejoin="round"/>
<path d="M173.215 224.31H82.2426C82.041 224.312 81.8411 224.274 81.6544 224.198C81.4677 224.122 81.2979 224.01 81.1548 223.868C81.0117 223.726 80.8981 223.557 80.8206 223.371C80.743 223.185 80.7031 222.986 80.7031 222.784C80.7031 222.582 80.743 222.383 80.8206 222.197C80.8981 222.011 81.0117 221.842 81.1548 221.7C81.2979 221.558 81.4677 221.446 81.6544 221.37C81.8411 221.294 82.041 221.256 82.2426 221.258H173.215C173.416 221.256 173.615 221.294 173.801 221.37C173.987 221.447 174.156 221.559 174.298 221.701C174.44 221.843 174.552 222.012 174.628 222.198C174.704 222.384 174.743 222.583 174.741 222.784C174.743 222.985 174.704 223.184 174.628 223.37C174.552 223.556 174.44 223.725 174.298 223.867C174.156 224.009 173.987 224.122 173.801 224.198C173.615 224.274 173.416 224.312 173.215 224.31Z" fill="white" stroke="#0F2077" stroke-linecap="round" stroke-linejoin="round"/>
<path d="M173.987 221.234H81.4621C81.1235 221.234 80.7974 221.105 80.5507 220.874C80.304 220.642 80.1553 220.324 80.135 219.986L75.1053 159.537C75.0827 159.35 75.1002 159.16 75.1567 158.98C75.2131 158.8 75.3073 158.635 75.4329 158.494C75.5584 158.353 75.7125 158.241 75.8849 158.165C76.0572 158.088 76.2439 158.049 76.4324 158.051H179.03C179.218 158.049 179.405 158.088 179.577 158.165C179.75 158.241 179.904 158.353 180.029 158.494C180.155 158.635 180.249 158.8 180.306 158.98C180.362 159.16 180.38 159.35 180.357 159.537L175.327 219.986C175.307 220.326 175.156 220.646 174.907 220.878C174.657 221.11 174.328 221.238 173.987 221.234Z" fill="white" stroke="#0F2077" stroke-linecap="round" stroke-linejoin="round"/>
<path d="M136.456 190.684C136.456 194.294 132.541 197.213 127.724 197.213C122.907 197.213 118.979 194.294 118.979 190.684C118.979 187.074 122.893 184.168 127.724 184.168C132.555 184.168 136.456 187.088 136.456 190.684Z" fill="white" stroke="#0F2077" stroke-linecap="round" stroke-linejoin="round"/>
<path d="M226.869 143.467C228.288 142.36 229.286 140.8 229.696 139.048C229.994 137.733 229.962 136.365 229.603 135.066" stroke="#0F2077" stroke-linecap="round" stroke-linejoin="round"/>
<path d="M216.283 190.787C216.283 190.787 225.108 185.478 222.228 179.413C219.348 173.349 209.607 169.328 209.607 159.879C209.607 151.73 218.273 148.718 223.927 145.453" stroke="#0F2077" stroke-linecap="round" stroke-linejoin="round"/>
<path d="M224.43 190.617C224.43 190.617 229.354 187.339 229.354 182.136C229.354 178.646 225.625 176.364 220.701 170.75" stroke="#0F2077" stroke-linecap="round" stroke-linejoin="round"/>
<path d="M217.978 167.352C217.978 167.352 214.753 164.817 217.129 160.053" stroke="#0F2077" stroke-linecap="round" stroke-linejoin="round"/>
<path d="M143.266 28.3395C144.845 28.0077 148.23 26.7072 150.512 21.4121C150.547 21.332 150.566 21.2457 150.568 21.1582C150.569 21.0707 150.554 20.9838 150.522 20.9023C150.49 20.8209 150.442 20.7467 150.381 20.6839C150.32 20.621 150.247 20.5708 150.167 20.5362C150.005 20.4688 149.823 20.4671 149.659 20.5315C149.496 20.5959 149.364 20.7213 149.291 20.8812C147.194 25.7384 144.195 26.8133 142.948 27.0522C145.18 24.3506 146.413 20.9619 146.438 17.4573C146.438 8.24733 137.905 0.789062 127.381 0.789062C116.857 0.789062 108.324 8.24733 108.324 17.4573C108.331 20.8206 109.451 24.0869 111.509 26.747C109.505 26.6408 106.121 27.4902 101.834 32.4933C101.712 32.6196 101.643 32.7885 101.643 32.9644C101.643 33.1403 101.712 33.3093 101.834 33.4355C101.957 33.5378 102.112 33.5941 102.272 33.5948C102.369 33.5949 102.464 33.5735 102.551 33.5322C102.639 33.4909 102.716 33.4307 102.777 33.3559C108.257 26.9726 111.88 28.0475 112.61 28.3395C111.371 29.0211 110.21 29.8354 109.147 30.7681C103.029 36.2755 99.2996 46.6932 99.7774 55.3724C100.314 61.1288 102.401 66.6321 105.816 71.2975C110.259 68.1174 113.944 63.9933 116.605 59.2209C118.588 55.7155 120.361 52.0949 121.913 48.3786C121.913 52.267 122.418 56.9649 124.461 60.3224C125.936 62.9745 128.095 65.1817 130.715 66.7132C133.334 68.2447 136.317 69.0442 139.351 69.0282C140.399 69.0432 141.445 68.9408 142.47 68.7229C142.56 68.7004 142.644 68.6592 142.717 68.6021C142.791 68.5449 142.851 68.4731 142.895 68.3911C148.017 69.4794 153.113 69.3865 153.896 68.2982C155.157 66.5598 156.948 61.132 157.546 54.4965C158.634 43.2428 151.547 33.4753 143.266 28.3395ZM125.695 59.5129C123.121 55.306 123.201 48.4449 123.506 44.5035L123.678 44.0523C123.801 48.106 124.834 52.0803 126.702 55.6802C128.57 59.2802 131.224 62.4135 134.468 64.8478C136.259 66.0864 138.247 67.015 140.347 67.5949C137.095 67.8205 130.407 67.1968 125.695 59.5129Z" fill="#0F2077"/>
<path d="M125.918 38.625C125.918 38.625 124.83 46.6672 135.049 54.5501C145.267 62.433 154.955 59.3276 154.955 59.3276" stroke="white" stroke-width="0.5" stroke-linecap="round" stroke-linejoin="round"/>
<path d="M127.418 35.9707C127.418 35.9707 138.181 51.6437 153.044 47.5562" stroke="white" stroke-width="0.5" stroke-linecap="round" stroke-linejoin="round"/>
<path d="M122.095 30.7549C120.398 29.8931 118.496 29.514 116.599 29.6591C114.701 29.8042 112.879 30.4679 111.332 31.5777C105.613 35.3864 102.746 44.3841 102.746 44.3841" stroke="white" stroke-width="0.5" stroke-linecap="round" stroke-linejoin="round"/>
<path d="M122.373 35.1197C122.373 35.1197 117.742 33.8855 114.875 36.752C113.478 38.018 112.283 39.4905 111.332 41.1181" stroke="white" stroke-width="0.5" stroke-linecap="round" stroke-linejoin="round"/>
</svg>
